<?xml version="1.0" encoding="UTF-8" standalone="no"?>
<!DOCTYPE svg PUBLIC "-//W3C//DTD SVG 1.1//EN"
 "http://www.w3.org/Graphics/SVG/1.1/DTD/svg11.dtd">
<!-- Generated by graphviz version 7.1.0 (20230121.1956)
 -->
<!-- Title: subobject_lattice Pages: 1 -->
<svg width="400pt" height="438pt"
 viewBox="0.00 0.00 399.63 438.19" xmlns="http://www.w3.org/2000/svg" xmlns:xlink="http://www.w3.org/1999/xlink">
<g id="graph0" class="graph" transform="scale(1 1) rotate(0) translate(4 434.19)">
<title>subobject_lattice</title>
<polygon fill="white" stroke="none" points="-4,4 -4,-434.19 395.63,-434.19 395.63,4 -4,4"/>
<!-- 1 -->
<g id="node1" class="node">
<title>1</title>
<ellipse fill="none" stroke="black" cx="236.31" cy="-10.61" rx="10.71" ry="10.71"/>
<text text-anchor="middle" x="236.31" y="-7.51" font-family="DejaVu Serif,serif" font-size="12.00">1</text>
</g>
<!-- 2 -->
<g id="node2" class="node">
<title>2</title>
<ellipse fill="none" stroke="black" cx="217.31" cy="-67.82" rx="10.71" ry="10.71"/>
<text text-anchor="middle" x="217.31" y="-64.72" font-family="DejaVu Serif,serif" font-size="12.00">2</text>
</g>
<!-- 2&#45;&gt;1 -->
<g id="edge1" class="edge">
<title>2&#45;&gt;1</title>
<path fill="none" stroke="black" d="M220.62,-57.2C223.48,-48.89 227.67,-36.72 231,-27.05"/>
<polygon fill="black" stroke="black" points="232.58,-27.84 232.55,-22.54 229.27,-26.7 232.58,-27.84"/>
</g>
<!-- 3 -->
<g id="node3" class="node">
<title>3</title>
<ellipse fill="none" stroke="black" cx="156.31" cy="-125.74" rx="10.71" ry="10.71"/>
<text text-anchor="middle" x="156.31" y="-122.64" font-family="DejaVu Serif,serif" font-size="12.00">3</text>
</g>
<!-- 3&#45;&gt;2 -->
<g id="edge2" class="edge">
<title>3&#45;&gt;2</title>
<path fill="none" stroke="black" d="M164.04,-117.66C174.45,-108.11 193.1,-91.02 205.34,-79.8"/>
<polygon fill="black" stroke="black" points="206.22,-81.36 208.73,-76.69 203.86,-78.78 206.22,-81.36"/>
</g>
<!-- 4 -->
<g id="node4" class="node">
<title>4</title>
<ellipse fill="none" stroke="black" cx="256.31" cy="-67.82" rx="10.71" ry="10.71"/>
<text text-anchor="middle" x="256.31" y="-64.72" font-family="DejaVu Serif,serif" font-size="12.00">4</text>
</g>
<!-- 4&#45;&gt;1 -->
<g id="edge3" class="edge">
<title>4&#45;&gt;1</title>
<path fill="none" stroke="black" d="M252.83,-57.2C249.82,-48.89 245.41,-36.72 241.91,-27.05"/>
<polygon fill="black" stroke="black" points="243.62,-26.64 240.27,-22.54 240.33,-27.83 243.62,-26.64"/>
</g>
<!-- 5 -->
<g id="node5" class="node">
<title>5</title>
<ellipse fill="none" stroke="black" cx="217.31" cy="-125.74" rx="10.71" ry="10.71"/>
<text text-anchor="middle" x="217.31" y="-122.64" font-family="DejaVu Serif,serif" font-size="12.00">5</text>
</g>
<!-- 5&#45;&gt;2 -->
<g id="edge4" class="edge">
<title>5&#45;&gt;2</title>
<path fill="none" stroke="black" d="M217.31,-114.74C217.31,-106.55 217.31,-94.8 217.31,-85.23"/>
<polygon fill="black" stroke="black" points="219.06,-85.24 217.31,-80.24 215.56,-85.24 219.06,-85.24"/>
</g>
<!-- 5&#45;&gt;4 -->
<g id="edge5" class="edge">
<title>5&#45;&gt;4</title>
<path fill="none" stroke="black" d="M223.07,-116.49C229.35,-107.49 239.5,-92.94 246.93,-82.27"/>
<polygon fill="black" stroke="black" points="248.24,-83.45 249.67,-78.35 245.37,-81.45 248.24,-83.45"/>
</g>
<!-- 6 -->
<g id="node6" class="node">
<title>6</title>
<ellipse fill="none" stroke="black" cx="114.31" cy="-184.37" rx="10.71" ry="10.71"/>
<text text-anchor="middle" x="114.31" y="-181.27" font-family="DejaVu Serif,serif" font-size="12.00">6</text>
</g>
<!-- 6&#45;&gt;3 -->
<g id="edge6" class="edge">
<title>6&#45;&gt;3</title>
<path fill="none" stroke="black" d="M120.15,-175.49C126.97,-166.3 138.36,-150.95 146.53,-139.93"/>
<polygon fill="black" stroke="black" points="147.78,-141.19 149.35,-136.13 144.97,-139.1 147.78,-141.19"/>
</g>
<!-- 6&#45;&gt;5 -->
<g id="edge7" class="edge">
<title>6&#45;&gt;5</title>
<path fill="none" stroke="black" d="M123.45,-178.34C141.28,-168.54 180.81,-146.81 202.45,-134.91"/>
<polygon fill="black" stroke="black" points="203.18,-136.51 206.72,-132.56 201.49,-133.44 203.18,-136.51"/>
</g>
<!-- 7 -->
<g id="node7" class="node">
<title>7</title>
<ellipse fill="none" stroke="black" cx="178.31" cy="-184.37" rx="10.71" ry="10.71"/>
<text text-anchor="middle" x="178.31" y="-181.27" font-family="DejaVu Serif,serif" font-size="12.00">7</text>
</g>
<!-- 7&#45;&gt;5 -->
<g id="edge8" class="edge">
<title>7&#45;&gt;5</title>
<path fill="none" stroke="black" d="M184.07,-175.01C190.35,-165.89 200.5,-151.16 207.93,-140.37"/>
<polygon fill="black" stroke="black" points="209.28,-141.49 210.68,-136.38 206.4,-139.5 209.28,-141.49"/>
</g>
<!-- 8 -->
<g id="node8" class="node">
<title>8</title>
<ellipse fill="none" stroke="black" cx="12.31" cy="-242.99" rx="10.71" ry="10.71"/>
<text text-anchor="middle" x="12.31" y="-239.89" font-family="DejaVu Serif,serif" font-size="12.00">8</text>
</g>
<!-- 8&#45;&gt;6 -->
<g id="edge9" class="edge">
<title>8&#45;&gt;6</title>
<path fill="none" stroke="black" d="M21.37,-236.97C39.01,-227.17 78.16,-205.44 99.59,-193.54"/>
<polygon fill="black" stroke="black" points="100.29,-195.15 103.81,-191.2 98.59,-192.09 100.29,-195.15"/>
</g>
<!-- 8&#45;&gt;7 -->
<g id="edge10" class="edge">
<title>8&#45;&gt;7</title>
<path fill="none" stroke="black" d="M21.52,-236.83C24.86,-235.07 28.7,-233.17 32.31,-231.68 78.05,-212.79 134.44,-196.89 161.83,-189.62"/>
<polygon fill="black" stroke="black" points="161.98,-191.39 166.37,-188.42 161.09,-188 161.98,-191.39"/>
</g>
<!-- 9 -->
<g id="node9" class="node">
<title>9</title>
<ellipse fill="none" stroke="black" cx="217.31" cy="-184.37" rx="10.71" ry="10.71"/>
<text text-anchor="middle" x="217.31" y="-181.27" font-family="DejaVu Serif,serif" font-size="12.00">9</text>
</g>
<!-- 9&#45;&gt;5 -->
<g id="edge11" class="edge">
<title>9&#45;&gt;5</title>
<path fill="none" stroke="black" d="M217.31,-173.24C217.31,-164.87 217.31,-152.81 217.31,-143.07"/>
<polygon fill="black" stroke="black" points="219.06,-143.29 217.31,-138.29 215.56,-143.29 219.06,-143.29"/>
</g>
<!-- 10 -->
<g id="node10" class="node">
<title>10</title>
<ellipse fill="none" stroke="black" cx="52.31" cy="-242.99" rx="11.13" ry="11.13"/>
<text text-anchor="middle" x="52.31" y="-239.89" font-family="DejaVu Serif,serif" font-size="12.00">10</text>
</g>
<!-- 10&#45;&gt;6 -->
<g id="edge12" class="edge">
<title>10&#45;&gt;6</title>
<path fill="none" stroke="black" d="M60.17,-234.82C70.75,-225.15 89.7,-207.84 102.14,-196.48"/>
<polygon fill="black" stroke="black" points="103.09,-197.99 105.6,-193.32 100.73,-195.4 103.09,-197.99"/>
</g>
<!-- 10&#45;&gt;9 -->
<g id="edge13" class="edge">
<title>10&#45;&gt;9</title>
<path fill="none" stroke="black" d="M61.98,-236.8C65.49,-235.04 69.52,-233.14 73.31,-231.68 127.25,-210.86 144.82,-217.6 198.31,-195.68 199.77,-195.08 201.26,-194.4 202.74,-193.69"/>
<polygon fill="black" stroke="black" points="203.27,-195.38 206.89,-191.52 201.65,-192.28 203.27,-195.38"/>
</g>
<!-- 11 -->
<g id="node11" class="node">
<title>11</title>
<ellipse fill="none" stroke="black" cx="175.31" cy="-242.99" rx="11.13" ry="11.13"/>
<text text-anchor="middle" x="175.31" y="-239.89" font-family="DejaVu Serif,serif" font-size="12.00">11</text>
</g>
<!-- 11&#45;&gt;7 -->
<g id="edge14" class="edge">
<title>11&#45;&gt;7</title>
<path fill="none" stroke="black" d="M175.86,-231.61C176.31,-223.2 176.94,-211.22 177.46,-201.55"/>
<polygon fill="black" stroke="black" points="179.19,-201.91 177.71,-196.82 175.69,-201.72 179.19,-201.91"/>
</g>
<!-- 11&#45;&gt;9 -->
<g id="edge15" class="edge">
<title>11&#45;&gt;9</title>
<path fill="none" stroke="black" d="M181.51,-233.64C188.35,-224.42 199.45,-209.45 207.48,-198.62"/>
<polygon fill="black" stroke="black" points="208.89,-199.66 210.46,-194.61 206.08,-197.58 208.89,-199.66"/>
</g>
<!-- 12 -->
<g id="node12" class="node">
<title>12</title>
<ellipse fill="none" stroke="black" cx="11.31" cy="-301.62" rx="11.13" ry="11.13"/>
<text text-anchor="middle" x="11.31" y="-298.52" font-family="DejaVu Serif,serif" font-size="12.00">12</text>
</g>
<!-- 12&#45;&gt;8 -->
<g id="edge16" class="edge">
<title>12&#45;&gt;8</title>
<path fill="none" stroke="black" d="M11.5,-290.24C11.65,-281.83 11.86,-269.84 12.03,-260.18"/>
<polygon fill="black" stroke="black" points="13.77,-260.48 12.11,-255.45 10.27,-260.42 13.77,-260.48"/>
</g>
<!-- 12&#45;&gt;10 -->
<g id="edge17" class="edge">
<title>12&#45;&gt;10</title>
<path fill="none" stroke="black" d="M17.36,-292.27C23.96,-283.15 34.63,-268.42 42.45,-257.62"/>
<polygon fill="black" stroke="black" points="43.84,-258.69 45.35,-253.61 41,-256.63 43.84,-258.69"/>
</g>
<!-- 12&#45;&gt;11 -->
<g id="edge18" class="edge">
<title>12&#45;&gt;11</title>
<path fill="none" stroke="black" d="M20.99,-295.44C24.5,-293.68 28.53,-291.78 32.31,-290.31 84.99,-269.77 101.64,-274.84 154.31,-254.31 156.21,-253.57 158.16,-252.73 160.08,-251.85"/>
<polygon fill="black" stroke="black" points="160.53,-253.58 164.28,-249.83 159.01,-250.42 160.53,-253.58"/>
</g>
<!-- 13 -->
<g id="node13" class="node">
<title>13</title>
<ellipse fill="none" stroke="black" cx="257.31" cy="-125.74" rx="11.13" ry="11.13"/>
<text text-anchor="middle" x="257.31" y="-122.64" font-family="DejaVu Serif,serif" font-size="12.00">13</text>
</g>
<!-- 13&#45;&gt;4 -->
<g id="edge19" class="edge">
<title>13&#45;&gt;4</title>
<path fill="none" stroke="black" d="M257.13,-114.22C256.98,-106.08 256.78,-94.64 256.61,-85.28"/>
<polygon fill="black" stroke="black" points="258.36,-85.4 256.52,-80.43 254.86,-85.46 258.36,-85.4"/>
</g>
<!-- 14 -->
<g id="node14" class="node">
<title>14</title>
<ellipse fill="none" stroke="black" cx="257.31" cy="-184.37" rx="11.13" ry="11.13"/>
<text text-anchor="middle" x="257.31" y="-181.27" font-family="DejaVu Serif,serif" font-size="12.00">14</text>
</g>
<!-- 14&#45;&gt;5 -->
<g id="edge20" class="edge">
<title>14&#45;&gt;5</title>
<path fill="none" stroke="black" d="M251.41,-175.01C244.97,-165.89 234.56,-151.16 226.94,-140.37"/>
<polygon fill="black" stroke="black" points="228.43,-139.44 224.11,-136.37 225.57,-141.46 228.43,-139.44"/>
</g>
<!-- 14&#45;&gt;13 -->
<g id="edge21" class="edge">
<title>14&#45;&gt;13</title>
<path fill="none" stroke="black" d="M257.31,-172.98C257.31,-164.76 257.31,-153.11 257.31,-143.56"/>
<polygon fill="black" stroke="black" points="259.06,-143.57 257.31,-138.57 255.56,-143.57 259.06,-143.57"/>
</g>
<!-- 15 -->
<g id="node15" class="node">
<title>15</title>
<ellipse fill="none" stroke="black" cx="93.31" cy="-242.99" rx="11.13" ry="11.13"/>
<text text-anchor="middle" x="93.31" y="-239.89" font-family="DejaVu Serif,serif" font-size="12.00">15</text>
</g>
<!-- 15&#45;&gt;6 -->
<g id="edge22" class="edge">
<title>15&#45;&gt;6</title>
<path fill="none" stroke="black" d="M96.97,-232.13C100.17,-223.5 104.87,-210.82 108.58,-200.84"/>
<polygon fill="black" stroke="black" points="110.21,-201.46 110.31,-196.16 106.93,-200.24 110.21,-201.46"/>
</g>
<!-- 15&#45;&gt;14 -->
<g id="edge23" class="edge">
<title>15&#45;&gt;14</title>
<path fill="none" stroke="black" d="M102.99,-236.81C106.5,-235.05 110.53,-233.15 114.31,-231.68 167.41,-211.05 184.43,-216.83 237.31,-195.68 238.84,-195.07 240.4,-194.39 241.95,-193.66"/>
<polygon fill="black" stroke="black" points="242.67,-195.26 246.37,-191.46 241.11,-192.12 242.67,-195.26"/>
</g>
<!-- 16 -->
<g id="node16" class="node">
<title>16</title>
<ellipse fill="none" stroke="black" cx="216.31" cy="-242.99" rx="11.13" ry="11.13"/>
<text text-anchor="middle" x="216.31" y="-239.89" font-family="DejaVu Serif,serif" font-size="12.00">16</text>
</g>
<!-- 16&#45;&gt;7 -->
<g id="edge24" class="edge">
<title>16&#45;&gt;7</title>
<path fill="none" stroke="black" d="M210.38,-233.15C204.26,-224.03 194.65,-209.71 187.54,-199.12"/>
<polygon fill="black" stroke="black" points="189.17,-198.4 184.93,-195.22 186.26,-200.35 189.17,-198.4"/>
</g>
<!-- 16&#45;&gt;14 -->
<g id="edge25" class="edge">
<title>16&#45;&gt;14</title>
<path fill="none" stroke="black" d="M222.36,-233.64C228.96,-224.52 239.63,-209.79 247.45,-198.99"/>
<polygon fill="black" stroke="black" points="248.84,-200.06 250.35,-194.98 246,-198.01 248.84,-200.06"/>
</g>
<!-- 17 -->
<g id="node17" class="node">
<title>17</title>
<ellipse fill="none" stroke="black" cx="52.31" cy="-301.62" rx="11.13" ry="11.13"/>
<text text-anchor="middle" x="52.31" y="-298.52" font-family="DejaVu Serif,serif" font-size="12.00">17</text>
</g>
<!-- 17&#45;&gt;8 -->
<g id="edge26" class="edge">
<title>17&#45;&gt;8</title>
<path fill="none" stroke="black" d="M46.41,-292.27C39.97,-283.15 29.56,-268.42 21.94,-257.62"/>
<polygon fill="black" stroke="black" points="23.43,-256.7 19.11,-253.62 20.57,-258.71 23.43,-256.7"/>
</g>
<!-- 17&#45;&gt;15 -->
<g id="edge27" class="edge">
<title>17&#45;&gt;15</title>
<path fill="none" stroke="black" d="M58.36,-292.27C64.96,-283.15 75.63,-268.42 83.45,-257.62"/>
<polygon fill="black" stroke="black" points="84.84,-258.69 86.35,-253.61 82,-256.63 84.84,-258.69"/>
</g>
<!-- 17&#45;&gt;16 -->
<g id="edge28" class="edge">
<title>17&#45;&gt;16</title>
<path fill="none" stroke="black" d="M61.99,-295.44C65.5,-293.68 69.53,-291.78 73.31,-290.31 125.99,-269.77 142.64,-274.84 195.31,-254.31 197.21,-253.57 199.16,-252.73 201.08,-251.85"/>
<polygon fill="black" stroke="black" points="201.53,-253.58 205.28,-249.83 200.01,-250.42 201.53,-253.58"/>
</g>
<!-- 18 -->
<g id="node18" class="node">
<title>18</title>
<ellipse fill="none" stroke="black" cx="257.31" cy="-242.99" rx="11.13" ry="11.13"/>
<text text-anchor="middle" x="257.31" y="-239.89" font-family="DejaVu Serif,serif" font-size="12.00">18</text>
</g>
<!-- 18&#45;&gt;9 -->
<g id="edge29" class="edge">
<title>18&#45;&gt;9</title>
<path fill="none" stroke="black" d="M251.41,-233.64C244.97,-224.52 234.56,-209.79 226.94,-198.99"/>
<polygon fill="black" stroke="black" points="228.43,-198.07 224.11,-194.99 225.57,-200.09 228.43,-198.07"/>
</g>
<!-- 18&#45;&gt;14 -->
<g id="edge30" class="edge">
<title>18&#45;&gt;14</title>
<path fill="none" stroke="black" d="M257.31,-231.61C257.31,-223.39 257.31,-211.74 257.31,-202.19"/>
<polygon fill="black" stroke="black" points="259.06,-202.2 257.31,-197.2 255.56,-202.2 259.06,-202.2"/>
</g>
<!-- 19 -->
<g id="node19" class="node">
<title>19</title>
<ellipse fill="none" stroke="black" cx="93.31" cy="-301.62" rx="11.13" ry="11.13"/>
<text text-anchor="middle" x="93.31" y="-298.52" font-family="DejaVu Serif,serif" font-size="12.00">19</text>
</g>
<!-- 19&#45;&gt;10 -->
<g id="edge31" class="edge">
<title>19&#45;&gt;10</title>
<path fill="none" stroke="black" d="M87.26,-292.27C80.66,-283.15 69.99,-268.42 62.18,-257.62"/>
<polygon fill="black" stroke="black" points="63.63,-256.63 59.28,-253.61 60.79,-258.69 63.63,-256.63"/>
</g>
<!-- 19&#45;&gt;15 -->
<g id="edge32" class="edge">
<title>19&#45;&gt;15</title>
<path fill="none" stroke="black" d="M93.31,-290.24C93.31,-282.01 93.31,-270.37 93.31,-260.82"/>
<polygon fill="black" stroke="black" points="95.06,-260.83 93.31,-255.83 91.56,-260.83 95.06,-260.83"/>
</g>
<!-- 19&#45;&gt;18 -->
<g id="edge33" class="edge">
<title>19&#45;&gt;18</title>
<path fill="none" stroke="black" d="M102.99,-295.44C106.5,-293.68 110.53,-291.78 114.31,-290.31 166.99,-269.77 183.64,-274.84 236.31,-254.31 238.21,-253.57 240.16,-252.73 242.08,-251.85"/>
<polygon fill="black" stroke="black" points="242.53,-253.58 246.28,-249.83 241.01,-250.42 242.53,-253.58"/>
</g>
<!-- 20 -->
<g id="node20" class="node">
<title>20</title>
<ellipse fill="none" stroke="black" cx="257.31" cy="-301.62" rx="11.13" ry="11.13"/>
<text text-anchor="middle" x="257.31" y="-298.52" font-family="DejaVu Serif,serif" font-size="12.00">20</text>
</g>
<!-- 20&#45;&gt;11 -->
<g id="edge34" class="edge">
<title>20&#45;&gt;11</title>
<path fill="none" stroke="black" d="M248.54,-294.56C234.43,-284.82 206.58,-265.59 189.59,-253.85"/>
<polygon fill="black" stroke="black" points="190.63,-252.44 185.52,-251.04 188.64,-255.32 190.63,-252.44"/>
</g>
<!-- 20&#45;&gt;16 -->
<g id="edge35" class="edge">
<title>20&#45;&gt;16</title>
<path fill="none" stroke="black" d="M251.26,-292.27C244.66,-283.15 233.99,-268.42 226.18,-257.62"/>
<polygon fill="black" stroke="black" points="227.63,-256.63 223.28,-253.61 224.79,-258.69 227.63,-256.63"/>
</g>
<!-- 20&#45;&gt;18 -->
<g id="edge36" class="edge">
<title>20&#45;&gt;18</title>
<path fill="none" stroke="black" d="M257.31,-290.24C257.31,-282.01 257.31,-270.37 257.31,-260.82"/>
<polygon fill="black" stroke="black" points="259.06,-260.83 257.31,-255.83 255.56,-260.83 259.06,-260.83"/>
</g>
<!-- 21 -->
<g id="node21" class="node">
<title>21</title>
<ellipse fill="none" stroke="black" cx="93.31" cy="-360.25" rx="11.13" ry="11.13"/>
<text text-anchor="middle" x="93.31" y="-357.15" font-family="DejaVu Serif,serif" font-size="12.00">21</text>
</g>
<!-- 21&#45;&gt;12 -->
<g id="edge37" class="edge">
<title>21&#45;&gt;12</title>
<path fill="none" stroke="black" d="M84.54,-353.19C70.43,-343.45 42.58,-324.21 25.59,-312.48"/>
<polygon fill="black" stroke="black" points="26.63,-311.07 21.52,-309.67 24.64,-313.95 26.63,-311.07"/>
</g>
<!-- 21&#45;&gt;17 -->
<g id="edge38" class="edge">
<title>21&#45;&gt;17</title>
<path fill="none" stroke="black" d="M87.26,-350.89C80.66,-341.78 69.99,-327.04 62.18,-316.25"/>
<polygon fill="black" stroke="black" points="63.63,-315.26 59.28,-312.24 60.79,-317.31 63.63,-315.26"/>
</g>
<!-- 21&#45;&gt;19 -->
<g id="edge39" class="edge">
<title>21&#45;&gt;19</title>
<path fill="none" stroke="black" d="M93.31,-348.86C93.31,-340.64 93.31,-328.99 93.31,-319.45"/>
<polygon fill="black" stroke="black" points="95.06,-319.46 93.31,-314.46 91.56,-319.46 95.06,-319.46"/>
</g>
<!-- 21&#45;&gt;20 -->
<g id="edge40" class="edge">
<title>21&#45;&gt;20</title>
<path fill="none" stroke="black" d="M102.99,-354.07C106.5,-352.31 110.53,-350.41 114.31,-348.94 166.99,-328.4 183.64,-333.47 236.31,-312.94 238.21,-312.2 240.16,-311.36 242.08,-310.48"/>
<polygon fill="black" stroke="black" points="242.53,-312.2 246.28,-308.46 241.01,-309.05 242.53,-312.2"/>
</g>
<!-- 22 -->
<g id="node22" class="node">
<title>22</title>
<ellipse fill="none" stroke="black" cx="298.31" cy="-125.74" rx="11.13" ry="11.13"/>
<text text-anchor="middle" x="298.31" y="-122.64" font-family="DejaVu Serif,serif" font-size="12.00">22</text>
</g>
<!-- 22&#45;&gt;4 -->
<g id="edge41" class="edge">
<title>22&#45;&gt;4</title>
<path fill="none" stroke="black" d="M292.12,-116.49C285.35,-107.49 274.43,-92.94 266.42,-82.27"/>
<polygon fill="black" stroke="black" points="267.85,-81.26 263.45,-78.32 265.05,-83.36 267.85,-81.26"/>
</g>
<!-- 23 -->
<g id="node23" class="node">
<title>23</title>
<ellipse fill="none" stroke="black" cx="298.31" cy="-184.37" rx="11.13" ry="11.13"/>
<text text-anchor="middle" x="298.31" y="-181.27" font-family="DejaVu Serif,serif" font-size="12.00">23</text>
</g>
<!-- 23&#45;&gt;5 -->
<g id="edge42" class="edge">
<title>23&#45;&gt;5</title>
<path fill="none" stroke="black" d="M289.34,-177.09C275.13,-167.16 247.36,-147.75 230.77,-136.15"/>
<polygon fill="black" stroke="black" points="231.94,-134.83 226.84,-133.4 229.94,-137.7 231.94,-134.83"/>
</g>
<!-- 23&#45;&gt;22 -->
<g id="edge43" class="edge">
<title>23&#45;&gt;22</title>
<path fill="none" stroke="black" d="M298.31,-172.98C298.31,-164.76 298.31,-153.11 298.31,-143.56"/>
<polygon fill="black" stroke="black" points="300.06,-143.57 298.31,-138.57 296.56,-143.57 300.06,-143.57"/>
</g>
<!-- 24 -->
<g id="node24" class="node">
<title>24</title>
<ellipse fill="none" stroke="black" cx="134.31" cy="-242.99" rx="11.13" ry="11.13"/>
<text text-anchor="middle" x="134.31" y="-239.89" font-family="DejaVu Serif,serif" font-size="12.00">24</text>
</g>
<!-- 24&#45;&gt;6 -->
<g id="edge44" class="edge">
<title>24&#45;&gt;6</title>
<path fill="none" stroke="black" d="M130.83,-232.13C127.78,-223.5 123.3,-210.82 119.78,-200.84"/>
<polygon fill="black" stroke="black" points="121.44,-200.3 118.13,-196.17 118.14,-201.47 121.44,-200.3"/>
</g>
<!-- 24&#45;&gt;23 -->
<g id="edge45" class="edge">
<title>24&#45;&gt;23</title>
<path fill="none" stroke="black" d="M143.99,-236.82C147.5,-235.05 151.53,-233.16 155.31,-231.68 207.99,-211.15 224.64,-216.22 277.31,-195.68 279.21,-194.94 281.16,-194.1 283.08,-193.22"/>
<polygon fill="black" stroke="black" points="283.53,-194.95 287.28,-191.2 282.01,-191.79 283.53,-194.95"/>
</g>
<!-- 25 -->
<g id="node25" class="node">
<title>25</title>
<ellipse fill="none" stroke="black" cx="298.31" cy="-242.99" rx="11.13" ry="11.13"/>
<text text-anchor="middle" x="298.31" y="-239.89" font-family="DejaVu Serif,serif" font-size="12.00">25</text>
</g>
<!-- 25&#45;&gt;7 -->
<g id="edge46" class="edge">
<title>25&#45;&gt;7</title>
<path fill="none" stroke="black" d="M288.52,-237.1C285,-235.36 280.99,-233.41 277.31,-231.68 242.03,-215.08 232.25,-212.99 197.31,-195.68 195.9,-194.98 194.44,-194.23 192.99,-193.47"/>
<polygon fill="black" stroke="black" points="194.09,-192.08 188.85,-191.26 192.43,-195.16 194.09,-192.08"/>
</g>
<!-- 25&#45;&gt;23 -->
<g id="edge47" class="edge">
<title>25&#45;&gt;23</title>
<path fill="none" stroke="black" d="M298.31,-231.61C298.31,-223.39 298.31,-211.74 298.31,-202.19"/>
<polygon fill="black" stroke="black" points="300.06,-202.2 298.31,-197.2 296.56,-202.2 300.06,-202.2"/>
</g>
<!-- 26 -->
<g id="node26" class="node">
<title>26</title>
<ellipse fill="none" stroke="black" cx="134.31" cy="-301.62" rx="11.13" ry="11.13"/>
<text text-anchor="middle" x="134.31" y="-298.52" font-family="DejaVu Serif,serif" font-size="12.00">26</text>
</g>
<!-- 26&#45;&gt;8 -->
<g id="edge48" class="edge">
<title>26&#45;&gt;8</title>
<path fill="none" stroke="black" d="M124.52,-295.72C121,-293.98 116.99,-292.03 113.31,-290.31 77.63,-273.62 67.84,-271.34 32.31,-254.31 30.66,-253.52 28.95,-252.67 27.24,-251.81"/>
<polygon fill="black" stroke="black" points="28.21,-250.34 22.97,-249.62 26.62,-253.46 28.21,-250.34"/>
</g>
<!-- 26&#45;&gt;24 -->
<g id="edge49" class="edge">
<title>26&#45;&gt;24</title>
<path fill="none" stroke="black" d="M134.31,-290.24C134.31,-282.01 134.31,-270.37 134.31,-260.82"/>
<polygon fill="black" stroke="black" points="136.06,-260.83 134.31,-255.83 132.56,-260.83 136.06,-260.83"/>
</g>
<!-- 26&#45;&gt;25 -->
<g id="edge50" class="edge">
<title>26&#45;&gt;25</title>
<path fill="none" stroke="black" d="M143.99,-295.44C147.5,-293.68 151.53,-291.78 155.31,-290.31 207.99,-269.77 224.64,-274.84 277.31,-254.31 279.21,-253.57 281.16,-252.73 283.08,-251.85"/>
<polygon fill="black" stroke="black" points="283.53,-253.58 287.28,-249.83 282.01,-250.42 283.53,-253.58"/>
</g>
<!-- 27 -->
<g id="node27" class="node">
<title>27</title>
<ellipse fill="none" stroke="black" cx="339.31" cy="-242.99" rx="11.13" ry="11.13"/>
<text text-anchor="middle" x="339.31" y="-239.89" font-family="DejaVu Serif,serif" font-size="12.00">27</text>
</g>
<!-- 27&#45;&gt;9 -->
<g id="edge51" class="edge">
<title>27&#45;&gt;9</title>
<path fill="none" stroke="black" d="M329.52,-237.09C326,-235.35 321.99,-233.4 318.31,-231.68 282.63,-214.99 272.84,-212.72 237.31,-195.68 235.66,-194.89 233.95,-194.04 232.24,-193.19"/>
<polygon fill="black" stroke="black" points="233.21,-191.72 227.97,-191 231.62,-194.83 233.21,-191.72"/>
</g>
<!-- 27&#45;&gt;23 -->
<g id="edge52" class="edge">
<title>27&#45;&gt;23</title>
<path fill="none" stroke="black" d="M333.26,-233.64C326.66,-224.52 315.99,-209.79 308.18,-198.99"/>
<polygon fill="black" stroke="black" points="309.63,-198.01 305.28,-194.98 306.79,-200.06 309.63,-198.01"/>
</g>
<!-- 28 -->
<g id="node28" class="node">
<title>28</title>
<ellipse fill="none" stroke="black" cx="175.31" cy="-301.62" rx="11.13" ry="11.13"/>
<text text-anchor="middle" x="175.31" y="-298.52" font-family="DejaVu Serif,serif" font-size="12.00">28</text>
</g>
<!-- 28&#45;&gt;10 -->
<g id="edge53" class="edge">
<title>28&#45;&gt;10</title>
<path fill="none" stroke="black" d="M165.52,-295.72C162,-293.98 157.99,-292.03 154.31,-290.31 118.63,-273.62 109,-271 73.31,-254.31 71.47,-253.45 69.55,-252.53 67.65,-251.61"/>
<polygon fill="black" stroke="black" points="68.73,-250.19 63.46,-249.57 67.19,-253.33 68.73,-250.19"/>
</g>
<!-- 28&#45;&gt;24 -->
<g id="edge54" class="edge">
<title>28&#45;&gt;24</title>
<path fill="none" stroke="black" d="M169.26,-292.27C162.66,-283.15 151.99,-268.42 144.18,-257.62"/>
<polygon fill="black" stroke="black" points="145.63,-256.63 141.28,-253.61 142.79,-258.69 145.63,-256.63"/>
</g>
<!-- 28&#45;&gt;27 -->
<g id="edge55" class="edge">
<title>28&#45;&gt;27</title>
<path fill="none" stroke="black" d="M184.99,-295.44C188.5,-293.68 192.53,-291.78 196.31,-290.31 248.99,-269.77 265.64,-274.84 318.31,-254.31 320.21,-253.57 322.16,-252.73 324.08,-251.85"/>
<polygon fill="black" stroke="black" points="324.53,-253.58 328.28,-249.83 323.01,-250.42 324.53,-253.58"/>
</g>
<!-- 29 -->
<g id="node29" class="node">
<title>29</title>
<ellipse fill="none" stroke="black" cx="298.31" cy="-301.62" rx="11.13" ry="11.13"/>
<text text-anchor="middle" x="298.31" y="-298.52" font-family="DejaVu Serif,serif" font-size="12.00">29</text>
</g>
<!-- 29&#45;&gt;11 -->
<g id="edge56" class="edge">
<title>29&#45;&gt;11</title>
<path fill="none" stroke="black" d="M288.52,-295.72C285,-293.98 280.99,-292.03 277.31,-290.31 241.63,-273.62 232,-271 196.31,-254.31 194.47,-253.45 192.55,-252.53 190.65,-251.61"/>
<polygon fill="black" stroke="black" points="191.73,-250.19 186.46,-249.57 190.19,-253.33 191.73,-250.19"/>
</g>
<!-- 29&#45;&gt;25 -->
<g id="edge57" class="edge">
<title>29&#45;&gt;25</title>
<path fill="none" stroke="black" d="M298.31,-290.24C298.31,-282.01 298.31,-270.37 298.31,-260.82"/>
<polygon fill="black" stroke="black" points="300.06,-260.83 298.31,-255.83 296.56,-260.83 300.06,-260.83"/>
</g>
<!-- 29&#45;&gt;27 -->
<g id="edge58" class="edge">
<title>29&#45;&gt;27</title>
<path fill="none" stroke="black" d="M304.36,-292.27C310.96,-283.15 321.63,-268.42 329.45,-257.62"/>
<polygon fill="black" stroke="black" points="330.84,-258.69 332.35,-253.61 328,-256.63 330.84,-258.69"/>
</g>
<!-- 30 -->
<g id="node30" class="node">
<title>30</title>
<ellipse fill="none" stroke="black" cx="134.31" cy="-360.25" rx="11.13" ry="11.13"/>
<text text-anchor="middle" x="134.31" y="-357.15" font-family="DejaVu Serif,serif" font-size="12.00">30</text>
</g>
<!-- 30&#45;&gt;12 -->
<g id="edge59" class="edge">
<title>30&#45;&gt;12</title>
<path fill="none" stroke="black" d="M124.52,-354.34C121,-352.61 116.99,-350.66 113.31,-348.94 77.63,-332.25 68,-329.62 32.31,-312.94 30.47,-312.08 28.55,-311.16 26.65,-310.24"/>
<polygon fill="black" stroke="black" points="27.73,-308.82 22.46,-308.19 26.19,-311.96 27.73,-308.82"/>
</g>
<!-- 30&#45;&gt;26 -->
<g id="edge60" class="edge">
<title>30&#45;&gt;26</title>
<path fill="none" stroke="black" d="M134.31,-348.86C134.31,-340.64 134.31,-328.99 134.31,-319.45"/>
<polygon fill="black" stroke="black" points="136.06,-319.46 134.31,-314.46 132.56,-319.46 136.06,-319.46"/>
</g>
<!-- 30&#45;&gt;28 -->
<g id="edge61" class="edge">
<title>30&#45;&gt;28</title>
<path fill="none" stroke="black" d="M140.36,-350.89C146.96,-341.78 157.63,-327.04 165.45,-316.25"/>
<polygon fill="black" stroke="black" points="166.84,-317.31 168.35,-312.24 164,-315.26 166.84,-317.31"/>
</g>
<!-- 30&#45;&gt;29 -->
<g id="edge62" class="edge">
<title>30&#45;&gt;29</title>
<path fill="none" stroke="black" d="M143.99,-354.07C147.5,-352.31 151.53,-350.41 155.31,-348.94 207.99,-328.4 224.64,-333.47 277.31,-312.94 279.21,-312.2 281.16,-311.36 283.08,-310.48"/>
<polygon fill="black" stroke="black" points="283.53,-312.2 287.28,-308.46 282.01,-309.05 283.53,-312.2"/>
</g>
<!-- 31 -->
<g id="node31" class="node">
<title>31</title>
<ellipse fill="none" stroke="black" cx="339.31" cy="-184.37" rx="11.13" ry="11.13"/>
<text text-anchor="middle" x="339.31" y="-181.27" font-family="DejaVu Serif,serif" font-size="12.00">31</text>
</g>
<!-- 31&#45;&gt;13 -->
<g id="edge63" class="edge">
<title>31&#45;&gt;13</title>
<path fill="none" stroke="black" d="M330.54,-177.31C316.43,-167.57 288.58,-148.33 271.59,-136.6"/>
<polygon fill="black" stroke="black" points="272.63,-135.19 267.52,-133.79 270.64,-138.07 272.63,-135.19"/>
</g>
<!-- 31&#45;&gt;22 -->
<g id="edge64" class="edge">
<title>31&#45;&gt;22</title>
<path fill="none" stroke="black" d="M333.26,-175.01C326.66,-165.89 315.99,-151.16 308.18,-140.37"/>
<polygon fill="black" stroke="black" points="309.63,-139.38 305.28,-136.36 306.79,-141.43 309.63,-139.38"/>
</g>
<!-- 32 -->
<g id="node32" class="node">
<title>32</title>
<ellipse fill="none" stroke="black" cx="380.31" cy="-242.99" rx="11.13" ry="11.13"/>
<text text-anchor="middle" x="380.31" y="-239.89" font-family="DejaVu Serif,serif" font-size="12.00">32</text>
</g>
<!-- 32&#45;&gt;14 -->
<g id="edge65" class="edge">
<title>32&#45;&gt;14</title>
<path fill="none" stroke="black" d="M370.52,-237.09C367,-235.35 362.99,-233.4 359.31,-231.68 323.63,-214.99 314,-212.37 278.31,-195.68 276.47,-194.82 274.55,-193.9 272.65,-192.98"/>
<polygon fill="black" stroke="black" points="273.73,-191.56 268.46,-190.94 272.19,-194.71 273.73,-191.56"/>
</g>
<!-- 32&#45;&gt;23 -->
<g id="edge66" class="edge">
<title>32&#45;&gt;23</title>
<path fill="none" stroke="black" d="M371.54,-235.93C357.43,-226.19 329.58,-206.96 312.59,-195.22"/>
<polygon fill="black" stroke="black" points="313.63,-193.82 308.52,-192.42 311.64,-196.7 313.63,-193.82"/>
</g>
<!-- 32&#45;&gt;31 -->
<g id="edge67" class="edge">
<title>32&#45;&gt;31</title>
<path fill="none" stroke="black" d="M374.26,-233.64C367.66,-224.52 356.99,-209.79 349.18,-198.99"/>
<polygon fill="black" stroke="black" points="350.63,-198.01 346.28,-194.98 347.79,-200.06 350.63,-198.01"/>
</g>
<!-- 33 -->
<g id="node33" class="node">
<title>33</title>
<ellipse fill="none" stroke="black" cx="216.31" cy="-301.62" rx="11.13" ry="11.13"/>
<text text-anchor="middle" x="216.31" y="-298.52" font-family="DejaVu Serif,serif" font-size="12.00">33</text>
</g>
<!-- 33&#45;&gt;15 -->
<g id="edge68" class="edge">
<title>33&#45;&gt;15</title>
<path fill="none" stroke="black" d="M206.52,-295.72C203,-293.98 198.99,-292.03 195.31,-290.31 159.63,-273.62 150,-271 114.31,-254.31 112.47,-253.45 110.55,-252.53 108.65,-251.61"/>
<polygon fill="black" stroke="black" points="109.73,-250.19 104.46,-249.57 108.19,-253.33 109.73,-250.19"/>
</g>
<!-- 33&#45;&gt;24 -->
<g id="edge69" class="edge">
<title>33&#45;&gt;24</title>
<path fill="none" stroke="black" d="M207.54,-294.56C193.43,-284.82 165.58,-265.59 148.59,-253.85"/>
<polygon fill="black" stroke="black" points="149.63,-252.44 144.52,-251.04 147.64,-255.32 149.63,-252.44"/>
</g>
<!-- 33&#45;&gt;32 -->
<g id="edge70" class="edge">
<title>33&#45;&gt;32</title>
<path fill="none" stroke="black" d="M225.99,-295.44C229.5,-293.68 233.53,-291.78 237.31,-290.31 289.99,-269.77 306.64,-274.84 359.31,-254.31 361.21,-253.57 363.16,-252.73 365.08,-251.85"/>
<polygon fill="black" stroke="black" points="365.53,-253.58 369.28,-249.83 364.01,-250.42 365.53,-253.58"/>
</g>
<!-- 34 -->
<g id="node34" class="node">
<title>34</title>
<ellipse fill="none" stroke="black" cx="339.31" cy="-301.62" rx="11.13" ry="11.13"/>
<text text-anchor="middle" x="339.31" y="-298.52" font-family="DejaVu Serif,serif" font-size="12.00">34</text>
</g>
<!-- 34&#45;&gt;16 -->
<g id="edge71" class="edge">
<title>34&#45;&gt;16</title>
<path fill="none" stroke="black" d="M329.52,-295.72C326,-293.98 321.99,-292.03 318.31,-290.31 282.63,-273.62 273,-271 237.31,-254.31 235.47,-253.45 233.55,-252.53 231.65,-251.61"/>
<polygon fill="black" stroke="black" points="232.73,-250.19 227.46,-249.57 231.19,-253.33 232.73,-250.19"/>
</g>
<!-- 34&#45;&gt;25 -->
<g id="edge72" class="edge">
<title>34&#45;&gt;25</title>
<path fill="none" stroke="black" d="M333.26,-292.27C326.66,-283.15 315.99,-268.42 308.18,-257.62"/>
<polygon fill="black" stroke="black" points="309.63,-256.63 305.28,-253.61 306.79,-258.69 309.63,-256.63"/>
</g>
<!-- 34&#45;&gt;32 -->
<g id="edge73" class="edge">
<title>34&#45;&gt;32</title>
<path fill="none" stroke="black" d="M345.36,-292.27C351.96,-283.15 362.63,-268.42 370.45,-257.62"/>
<polygon fill="black" stroke="black" points="371.84,-258.69 373.35,-253.61 369,-256.63 371.84,-258.69"/>
</g>
<!-- 35 -->
<g id="node35" class="node">
<title>35</title>
<ellipse fill="none" stroke="black" cx="175.31" cy="-360.25" rx="11.13" ry="11.13"/>
<text text-anchor="middle" x="175.31" y="-357.15" font-family="DejaVu Serif,serif" font-size="12.00">35</text>
</g>
<!-- 35&#45;&gt;17 -->
<g id="edge74" class="edge">
<title>35&#45;&gt;17</title>
<path fill="none" stroke="black" d="M165.52,-354.34C162,-352.61 157.99,-350.66 154.31,-348.94 118.63,-332.25 109,-329.62 73.31,-312.94 71.47,-312.08 69.55,-311.16 67.65,-310.24"/>
<polygon fill="black" stroke="black" points="68.73,-308.82 63.46,-308.19 67.19,-311.96 68.73,-308.82"/>
</g>
<!-- 35&#45;&gt;26 -->
<g id="edge75" class="edge">
<title>35&#45;&gt;26</title>
<path fill="none" stroke="black" d="M169.26,-350.89C162.66,-341.78 151.99,-327.04 144.18,-316.25"/>
<polygon fill="black" stroke="black" points="145.63,-315.26 141.28,-312.24 142.79,-317.31 145.63,-315.26"/>
</g>
<!-- 35&#45;&gt;33 -->
<g id="edge76" class="edge">
<title>35&#45;&gt;33</title>
<path fill="none" stroke="black" d="M181.36,-350.89C187.96,-341.78 198.63,-327.04 206.45,-316.25"/>
<polygon fill="black" stroke="black" points="207.84,-317.31 209.35,-312.24 205,-315.26 207.84,-317.31"/>
</g>
<!-- 35&#45;&gt;34 -->
<g id="edge77" class="edge">
<title>35&#45;&gt;34</title>
<path fill="none" stroke="black" d="M184.99,-354.07C188.5,-352.31 192.53,-350.41 196.31,-348.94 248.99,-328.4 265.64,-333.47 318.31,-312.94 320.21,-312.2 322.16,-311.36 324.08,-310.48"/>
<polygon fill="black" stroke="black" points="324.53,-312.2 328.28,-308.46 323.01,-309.05 324.53,-312.2"/>
</g>
<!-- 36 -->
<g id="node36" class="node">
<title>36</title>
<ellipse fill="none" stroke="black" cx="380.31" cy="-301.62" rx="11.13" ry="11.13"/>
<text text-anchor="middle" x="380.31" y="-298.52" font-family="DejaVu Serif,serif" font-size="12.00">36</text>
</g>
<!-- 36&#45;&gt;18 -->
<g id="edge78" class="edge">
<title>36&#45;&gt;18</title>
<path fill="none" stroke="black" d="M370.52,-295.72C367,-293.98 362.99,-292.03 359.31,-290.31 323.63,-273.62 314,-271 278.31,-254.31 276.47,-253.45 274.55,-252.53 272.65,-251.61"/>
<polygon fill="black" stroke="black" points="273.73,-250.19 268.46,-249.57 272.19,-253.33 273.73,-250.19"/>
</g>
<!-- 36&#45;&gt;27 -->
<g id="edge79" class="edge">
<title>36&#45;&gt;27</title>
<path fill="none" stroke="black" d="M374.26,-292.27C367.66,-283.15 356.99,-268.42 349.18,-257.62"/>
<polygon fill="black" stroke="black" points="350.63,-256.63 346.28,-253.61 347.79,-258.69 350.63,-256.63"/>
</g>
<!-- 36&#45;&gt;32 -->
<g id="edge80" class="edge">
<title>36&#45;&gt;32</title>
<path fill="none" stroke="black" d="M380.31,-290.24C380.31,-282.01 380.31,-270.37 380.31,-260.82"/>
<polygon fill="black" stroke="black" points="382.06,-260.83 380.31,-255.83 378.56,-260.83 382.06,-260.83"/>
</g>
<!-- 37 -->
<g id="node37" class="node">
<title>37</title>
<ellipse fill="none" stroke="black" cx="216.31" cy="-360.25" rx="11.13" ry="11.13"/>
<text text-anchor="middle" x="216.31" y="-357.15" font-family="DejaVu Serif,serif" font-size="12.00">37</text>
</g>
<!-- 37&#45;&gt;19 -->
<g id="edge81" class="edge">
<title>37&#45;&gt;19</title>
<path fill="none" stroke="black" d="M206.52,-354.34C203,-352.61 198.99,-350.66 195.31,-348.94 159.63,-332.25 150,-329.62 114.31,-312.94 112.47,-312.08 110.55,-311.16 108.65,-310.24"/>
<polygon fill="black" stroke="black" points="109.73,-308.82 104.46,-308.19 108.19,-311.96 109.73,-308.82"/>
</g>
<!-- 37&#45;&gt;28 -->
<g id="edge82" class="edge">
<title>37&#45;&gt;28</title>
<path fill="none" stroke="black" d="M210.26,-350.89C203.66,-341.78 192.99,-327.04 185.18,-316.25"/>
<polygon fill="black" stroke="black" points="186.63,-315.26 182.28,-312.24 183.79,-317.31 186.63,-315.26"/>
</g>
<!-- 37&#45;&gt;33 -->
<g id="edge83" class="edge">
<title>37&#45;&gt;33</title>
<path fill="none" stroke="black" d="M216.31,-348.86C216.31,-340.64 216.31,-328.99 216.31,-319.45"/>
<polygon fill="black" stroke="black" points="218.06,-319.46 216.31,-314.46 214.56,-319.46 218.06,-319.46"/>
</g>
<!-- 37&#45;&gt;36 -->
<g id="edge84" class="edge">
<title>37&#45;&gt;36</title>
<path fill="none" stroke="black" d="M226.9,-356.38C250.87,-349.78 310.94,-332.53 359.31,-312.94 361.2,-312.17 363.14,-311.32 365.06,-310.43"/>
<polygon fill="black" stroke="black" points="365.51,-312.15 369.25,-308.4 363.99,-309 365.51,-312.15"/>
</g>
<!-- 38 -->
<g id="node38" class="node">
<title>38</title>
<ellipse fill="none" stroke="black" cx="298.31" cy="-360.25" rx="11.13" ry="11.13"/>
<text text-anchor="middle" x="298.31" y="-357.15" font-family="DejaVu Serif,serif" font-size="12.00">38</text>
</g>
<!-- 38&#45;&gt;20 -->
<g id="edge85" class="edge">
<title>38&#45;&gt;20</title>
<path fill="none" stroke="black" d="M292.26,-350.89C285.66,-341.78 274.99,-327.04 267.18,-316.25"/>
<polygon fill="black" stroke="black" points="268.63,-315.26 264.28,-312.24 265.79,-317.31 268.63,-315.26"/>
</g>
<!-- 38&#45;&gt;29 -->
<g id="edge86" class="edge">
<title>38&#45;&gt;29</title>
<path fill="none" stroke="black" d="M298.31,-348.86C298.31,-340.64 298.31,-328.99 298.31,-319.45"/>
<polygon fill="black" stroke="black" points="300.06,-319.46 298.31,-314.46 296.56,-319.46 300.06,-319.46"/>
</g>
<!-- 38&#45;&gt;34 -->
<g id="edge87" class="edge">
<title>38&#45;&gt;34</title>
<path fill="none" stroke="black" d="M304.36,-350.89C310.96,-341.78 321.63,-327.04 329.45,-316.25"/>
<polygon fill="black" stroke="black" points="330.84,-317.31 332.35,-312.24 328,-315.26 330.84,-317.31"/>
</g>
<!-- 38&#45;&gt;36 -->
<g id="edge88" class="edge">
<title>38&#45;&gt;36</title>
<path fill="none" stroke="black" d="M307.09,-353.19C321.19,-343.45 349.05,-324.21 366.04,-312.48"/>
<polygon fill="black" stroke="black" points="366.99,-313.95 370.11,-309.67 365,-311.07 366.99,-313.95"/>
</g>
<!-- 39 -->
<g id="node39" class="node">
<title>39</title>
<ellipse fill="none" stroke="black" cx="175.31" cy="-418.88" rx="11.13" ry="11.13"/>
<text text-anchor="middle" x="175.31" y="-415.78" font-family="DejaVu Serif,serif" font-size="12.00">39</text>
</g>
<!-- 39&#45;&gt;21 -->
<g id="edge89" class="edge">
<title>39&#45;&gt;21</title>
<path fill="none" stroke="black" d="M166.54,-411.82C152.43,-402.08 124.58,-382.84 107.59,-371.11"/>
<polygon fill="black" stroke="black" points="108.63,-369.7 103.52,-368.3 106.64,-372.58 108.63,-369.7"/>
</g>
<!-- 39&#45;&gt;30 -->
<g id="edge90" class="edge">
<title>39&#45;&gt;30</title>
<path fill="none" stroke="black" d="M169.26,-409.52C162.66,-400.4 151.99,-385.67 144.18,-374.87"/>
<polygon fill="black" stroke="black" points="145.63,-373.89 141.28,-370.87 142.79,-375.94 145.63,-373.89"/>
</g>
<!-- 39&#45;&gt;35 -->
<g id="edge91" class="edge">
<title>39&#45;&gt;35</title>
<path fill="none" stroke="black" d="M175.31,-407.49C175.31,-399.27 175.31,-387.62 175.31,-378.07"/>
<polygon fill="black" stroke="black" points="177.06,-378.08 175.31,-373.08 173.56,-378.08 177.06,-378.08"/>
</g>
<!-- 39&#45;&gt;37 -->
<g id="edge92" class="edge">
<title>39&#45;&gt;37</title>
<path fill="none" stroke="black" d="M181.36,-409.52C187.96,-400.4 198.63,-385.67 206.45,-374.87"/>
<polygon fill="black" stroke="black" points="207.84,-375.94 209.35,-370.87 205,-373.89 207.84,-375.94"/>
</g>
<!-- 39&#45;&gt;38 -->
<g id="edge93" class="edge">
<title>39&#45;&gt;38</title>
<path fill="none" stroke="black" d="M185.38,-413.24C206.84,-403.36 257.21,-380.17 282.8,-368.39"/>
<polygon fill="black" stroke="black" points="283.27,-370.1 287.08,-366.42 281.8,-366.92 283.27,-370.1"/>
</g>
</g>
</svg>
