<?xml version="1.0" encoding="UTF-8" standalone="no"?>
<!DOCTYPE svg PUBLIC "-//W3C//DTD SVG 1.1//EN"
 "http://www.w3.org/Graphics/SVG/1.1/DTD/svg11.dtd">
<!-- Generated by graphviz version 2.50.0 (20211204.2007)
 -->
<!-- Title: subobject_lattice Pages: 1 -->
<svg width="150pt" height="321pt"
 viewBox="0.00 0.00 149.92 320.94" xmlns="http://www.w3.org/2000/svg" xmlns:xlink="http://www.w3.org/1999/xlink">
<g id="graph0" class="graph" transform="scale(1 1) rotate(0) translate(4 316.94)">
<title>subobject_lattice</title>
<polygon fill="white" stroke="transparent" points="-4,4 -4,-316.94 145.92,-316.94 145.92,4 -4,4"/>
<!-- 1 -->
<g id="node1" class="node">
<title>1</title>
<ellipse fill="none" stroke="black" cx="68.61" cy="-10.61" rx="10.71" ry="10.71"/>
<text text-anchor="middle" x="68.61" y="-7.51" font-family="DejaVu Serif,serif" font-size="12.00">1</text>
</g>
<!-- 2 -->
<g id="node2" class="node">
<title>2</title>
<ellipse fill="none" stroke="black" cx="49.61" cy="-67.82" rx="10.71" ry="10.71"/>
<text text-anchor="middle" x="49.61" y="-64.72" font-family="DejaVu Serif,serif" font-size="12.00">2</text>
</g>
<!-- 1&#45;&gt;2 -->
<g id="edge1" class="edge">
<title>1&#45;&gt;2</title>
<path fill="none" stroke="black" d="M65.38,-20.97C62.39,-29.67 57.89,-42.74 54.46,-52.71"/>
<polygon fill="black" stroke="black" points="52.75,-52.29 52.78,-57.59 56.06,-53.43 52.75,-52.29"/>
</g>
<!-- 4 -->
<g id="node4" class="node">
<title>4</title>
<ellipse fill="none" stroke="black" cx="88.61" cy="-67.82" rx="10.71" ry="10.71"/>
<text text-anchor="middle" x="88.61" y="-64.72" font-family="DejaVu Serif,serif" font-size="12.00">4</text>
</g>
<!-- 1&#45;&gt;4 -->
<g id="edge2" class="edge">
<title>1&#45;&gt;4</title>
<path fill="none" stroke="black" d="M71.91,-20.72C75.05,-29.38 79.81,-42.53 83.45,-52.58"/>
<polygon fill="black" stroke="black" points="81.88,-53.4 85.23,-57.5 85.17,-52.21 81.88,-53.4"/>
</g>
<!-- 3 -->
<g id="node3" class="node">
<title>3</title>
<ellipse fill="none" stroke="black" cx="10.61" cy="-125.74" rx="10.71" ry="10.71"/>
<text text-anchor="middle" x="10.61" y="-122.64" font-family="DejaVu Serif,serif" font-size="12.00">3</text>
</g>
<!-- 2&#45;&gt;3 -->
<g id="edge3" class="edge">
<title>2&#45;&gt;3</title>
<path fill="none" stroke="black" d="M43.85,-77.07C37.4,-86.32 26.86,-101.43 19.38,-112.16"/>
<polygon fill="black" stroke="black" points="17.81,-111.35 16.38,-116.46 20.68,-113.35 17.81,-111.35"/>
</g>
<!-- 5 -->
<g id="node5" class="node">
<title>5</title>
<ellipse fill="none" stroke="black" cx="49.61" cy="-125.74" rx="10.71" ry="10.71"/>
<text text-anchor="middle" x="49.61" y="-122.64" font-family="DejaVu Serif,serif" font-size="12.00">5</text>
</g>
<!-- 2&#45;&gt;5 -->
<g id="edge4" class="edge">
<title>2&#45;&gt;5</title>
<path fill="none" stroke="black" d="M49.61,-78.56C49.61,-87.22 49.61,-100.01 49.61,-109.94"/>
<polygon fill="black" stroke="black" points="47.86,-110.11 49.61,-115.11 51.36,-110.11 47.86,-110.11"/>
</g>
<!-- 6 -->
<g id="node6" class="node">
<title>6</title>
<ellipse fill="none" stroke="black" cx="10.61" cy="-184.37" rx="10.71" ry="10.71"/>
<text text-anchor="middle" x="10.61" y="-181.27" font-family="DejaVu Serif,serif" font-size="12.00">6</text>
</g>
<!-- 3&#45;&gt;6 -->
<g id="edge5" class="edge">
<title>3&#45;&gt;6</title>
<path fill="none" stroke="black" d="M10.61,-136.6C10.61,-145.37 10.61,-158.33 10.61,-168.38"/>
<polygon fill="black" stroke="black" points="8.86,-168.62 10.61,-173.62 12.36,-168.62 8.86,-168.62"/>
</g>
<!-- 4&#45;&gt;5 -->
<g id="edge6" class="edge">
<title>4&#45;&gt;5</title>
<path fill="none" stroke="black" d="M82.85,-77.07C76.4,-86.32 65.86,-101.43 58.38,-112.16"/>
<polygon fill="black" stroke="black" points="56.81,-111.35 55.38,-116.46 59.68,-113.35 56.81,-111.35"/>
</g>
<!-- 7 -->
<g id="node7" class="node">
<title>7</title>
<ellipse fill="none" stroke="black" cx="88.61" cy="-125.74" rx="10.71" ry="10.71"/>
<text text-anchor="middle" x="88.61" y="-122.64" font-family="DejaVu Serif,serif" font-size="12.00">7</text>
</g>
<!-- 4&#45;&gt;7 -->
<g id="edge7" class="edge">
<title>4&#45;&gt;7</title>
<path fill="none" stroke="black" d="M88.61,-78.56C88.61,-87.22 88.61,-100.01 88.61,-109.94"/>
<polygon fill="black" stroke="black" points="86.86,-110.11 88.61,-115.11 90.36,-110.11 86.86,-110.11"/>
</g>
<!-- 10 -->
<g id="node10" class="node">
<title>10</title>
<ellipse fill="none" stroke="black" cx="128.61" cy="-125.74" rx="11.13" ry="11.13"/>
<text text-anchor="middle" x="128.61" y="-122.64" font-family="DejaVu Serif,serif" font-size="12.00">10</text>
</g>
<!-- 4&#45;&gt;10 -->
<g id="edge8" class="edge">
<title>4&#45;&gt;10</title>
<path fill="none" stroke="black" d="M94.51,-77.07C101.05,-86.22 111.68,-101.08 119.34,-111.78"/>
<polygon fill="black" stroke="black" points="118.08,-113.04 122.42,-116.09 120.93,-111 118.08,-113.04"/>
</g>
<!-- 5&#45;&gt;6 -->
<g id="edge9" class="edge">
<title>5&#45;&gt;6</title>
<path fill="none" stroke="black" d="M43.85,-135.1C37.4,-144.46 26.86,-159.76 19.38,-170.62"/>
<polygon fill="black" stroke="black" points="17.78,-169.87 16.38,-174.98 20.66,-171.85 17.78,-169.87"/>
</g>
<!-- 8 -->
<g id="node8" class="node">
<title>8</title>
<ellipse fill="none" stroke="black" cx="49.61" cy="-184.37" rx="10.71" ry="10.71"/>
<text text-anchor="middle" x="49.61" y="-181.27" font-family="DejaVu Serif,serif" font-size="12.00">8</text>
</g>
<!-- 5&#45;&gt;8 -->
<g id="edge10" class="edge">
<title>5&#45;&gt;8</title>
<path fill="none" stroke="black" d="M49.61,-136.6C49.61,-145.37 49.61,-158.33 49.61,-168.38"/>
<polygon fill="black" stroke="black" points="47.86,-168.62 49.61,-173.62 51.36,-168.62 47.86,-168.62"/>
</g>
<!-- 11 -->
<g id="node11" class="node">
<title>11</title>
<ellipse fill="none" stroke="black" cx="89.61" cy="-184.37" rx="11.13" ry="11.13"/>
<text text-anchor="middle" x="89.61" y="-181.27" font-family="DejaVu Serif,serif" font-size="12.00">11</text>
</g>
<!-- 5&#45;&gt;11 -->
<g id="edge11" class="edge">
<title>5&#45;&gt;11</title>
<path fill="none" stroke="black" d="M55.51,-135.1C62.05,-144.36 72.68,-159.41 80.34,-170.25"/>
<polygon fill="black" stroke="black" points="79.1,-171.53 83.42,-174.6 81.96,-169.51 79.1,-171.53"/>
</g>
<!-- 9 -->
<g id="node9" class="node">
<title>9</title>
<ellipse fill="none" stroke="black" cx="10.61" cy="-242.99" rx="10.71" ry="10.71"/>
<text text-anchor="middle" x="10.61" y="-239.89" font-family="DejaVu Serif,serif" font-size="12.00">9</text>
</g>
<!-- 6&#45;&gt;9 -->
<g id="edge12" class="edge">
<title>6&#45;&gt;9</title>
<path fill="none" stroke="black" d="M10.61,-195.23C10.61,-204 10.61,-216.95 10.61,-227"/>
<polygon fill="black" stroke="black" points="8.86,-227.24 10.61,-232.24 12.36,-227.24 8.86,-227.24"/>
</g>
<!-- 12 -->
<g id="node12" class="node">
<title>12</title>
<ellipse fill="none" stroke="black" cx="50.61" cy="-242.99" rx="11.13" ry="11.13"/>
<text text-anchor="middle" x="50.61" y="-239.89" font-family="DejaVu Serif,serif" font-size="12.00">12</text>
</g>
<!-- 6&#45;&gt;12 -->
<g id="edge13" class="edge">
<title>6&#45;&gt;12</title>
<path fill="none" stroke="black" d="M16.51,-193.72C23.05,-202.98 33.68,-218.04 41.34,-228.88"/>
<polygon fill="black" stroke="black" points="40.1,-230.16 44.42,-233.23 42.96,-228.14 40.1,-230.16"/>
</g>
<!-- 7&#45;&gt;8 -->
<g id="edge14" class="edge">
<title>7&#45;&gt;8</title>
<path fill="none" stroke="black" d="M82.85,-135.1C76.4,-144.46 65.86,-159.76 58.38,-170.62"/>
<polygon fill="black" stroke="black" points="56.78,-169.87 55.38,-174.98 59.66,-171.85 56.78,-169.87"/>
</g>
<!-- 13 -->
<g id="node13" class="node">
<title>13</title>
<ellipse fill="none" stroke="black" cx="130.61" cy="-184.37" rx="11.13" ry="11.13"/>
<text text-anchor="middle" x="130.61" y="-181.27" font-family="DejaVu Serif,serif" font-size="12.00">13</text>
</g>
<!-- 7&#45;&gt;13 -->
<g id="edge15" class="edge">
<title>7&#45;&gt;13</title>
<path fill="none" stroke="black" d="M94.45,-134.61C101.37,-143.95 113,-159.64 121.2,-170.69"/>
<polygon fill="black" stroke="black" points="119.88,-171.85 124.27,-174.82 122.69,-169.76 119.88,-171.85"/>
</g>
<!-- 8&#45;&gt;9 -->
<g id="edge16" class="edge">
<title>8&#45;&gt;9</title>
<path fill="none" stroke="black" d="M43.85,-193.72C37.4,-203.09 26.86,-218.39 19.38,-229.25"/>
<polygon fill="black" stroke="black" points="17.78,-228.49 16.38,-233.61 20.66,-230.48 17.78,-228.49"/>
</g>
<!-- 14 -->
<g id="node14" class="node">
<title>14</title>
<ellipse fill="none" stroke="black" cx="91.61" cy="-242.99" rx="11.13" ry="11.13"/>
<text text-anchor="middle" x="91.61" y="-239.89" font-family="DejaVu Serif,serif" font-size="12.00">14</text>
</g>
<!-- 8&#45;&gt;14 -->
<g id="edge17" class="edge">
<title>8&#45;&gt;14</title>
<path fill="none" stroke="black" d="M55.45,-193.24C62.37,-202.58 74,-218.26 82.2,-229.32"/>
<polygon fill="black" stroke="black" points="80.88,-230.47 85.27,-233.45 83.69,-228.39 80.88,-230.47"/>
</g>
<!-- 15 -->
<g id="node15" class="node">
<title>15</title>
<ellipse fill="none" stroke="black" cx="50.61" cy="-301.62" rx="11.13" ry="11.13"/>
<text text-anchor="middle" x="50.61" y="-298.52" font-family="DejaVu Serif,serif" font-size="12.00">15</text>
</g>
<!-- 9&#45;&gt;15 -->
<g id="edge18" class="edge">
<title>9&#45;&gt;15</title>
<path fill="none" stroke="black" d="M16.51,-252.35C23.05,-261.61 33.68,-276.67 41.34,-287.5"/>
<polygon fill="black" stroke="black" points="40.1,-288.79 44.42,-291.86 42.96,-286.77 40.1,-288.79"/>
</g>
<!-- 10&#45;&gt;11 -->
<g id="edge19" class="edge">
<title>10&#45;&gt;11</title>
<path fill="none" stroke="black" d="M122.51,-135.59C116.14,-144.84 106.06,-159.47 98.74,-170.11"/>
<polygon fill="black" stroke="black" points="97.18,-169.28 95.79,-174.39 100.06,-171.27 97.18,-169.28"/>
</g>
<!-- 10&#45;&gt;13 -->
<g id="edge20" class="edge">
<title>10&#45;&gt;13</title>
<path fill="none" stroke="black" d="M128.97,-137.13C129.28,-145.75 129.72,-158.14 130.06,-167.92"/>
<polygon fill="black" stroke="black" points="128.32,-168.11 130.24,-173.05 131.81,-167.99 128.32,-168.11"/>
</g>
<!-- 11&#45;&gt;12 -->
<g id="edge21" class="edge">
<title>11&#45;&gt;12</title>
<path fill="none" stroke="black" d="M83.51,-194.22C77.14,-203.47 67.06,-218.1 59.74,-228.74"/>
<polygon fill="black" stroke="black" points="58.18,-227.91 56.79,-233.02 61.06,-229.9 58.18,-227.91"/>
</g>
<!-- 11&#45;&gt;14 -->
<g id="edge22" class="edge">
<title>11&#45;&gt;14</title>
<path fill="none" stroke="black" d="M89.97,-195.75C90.28,-204.37 90.72,-216.76 91.06,-226.55"/>
<polygon fill="black" stroke="black" points="89.32,-226.74 91.24,-231.67 92.81,-226.62 89.32,-226.74"/>
</g>
<!-- 12&#45;&gt;15 -->
<g id="edge23" class="edge">
<title>12&#45;&gt;15</title>
<path fill="none" stroke="black" d="M50.61,-254.38C50.61,-263 50.61,-275.39 50.61,-285.17"/>
<polygon fill="black" stroke="black" points="48.86,-285.3 50.61,-290.3 52.36,-285.3 48.86,-285.3"/>
</g>
<!-- 13&#45;&gt;14 -->
<g id="edge24" class="edge">
<title>13&#45;&gt;14</title>
<path fill="none" stroke="black" d="M124.51,-194.22C118.14,-203.47 108.06,-218.1 100.74,-228.74"/>
<polygon fill="black" stroke="black" points="99.18,-227.91 97.79,-233.02 102.06,-229.9 99.18,-227.91"/>
</g>
<!-- 14&#45;&gt;15 -->
<g id="edge25" class="edge">
<title>14&#45;&gt;15</title>
<path fill="none" stroke="black" d="M85.2,-252.84C78.42,-262.21 67.66,-277.07 59.94,-287.74"/>
<polygon fill="black" stroke="black" points="58.35,-286.95 56.83,-292.02 61.18,-289 58.35,-286.95"/>
</g>
</g>
</svg>
