<?xml version="1.0" encoding="UTF-8" standalone="no"?>
<!DOCTYPE svg PUBLIC "-//W3C//DTD SVG 1.1//EN"
 "http://www.w3.org/Graphics/SVG/1.1/DTD/svg11.dtd">
<!-- Generated by graphviz version 7.1.0 (20230121.1956)
 -->
<!-- Title: subobject_lattice Pages: 1 -->
<svg width="150pt" height="321pt"
 viewBox="0.00 0.00 149.92 320.94" xmlns="http://www.w3.org/2000/svg" xmlns:xlink="http://www.w3.org/1999/xlink">
<g id="graph0" class="graph" transform="scale(1 1) rotate(0) translate(4 316.94)">
<title>subobject_lattice</title>
<polygon fill="white" stroke="none" points="-4,4 -4,-316.94 145.92,-316.94 145.92,4 -4,4"/>
<!-- 1 -->
<g id="node1" class="node">
<title>1</title>
<ellipse fill="none" stroke="black" cx="68.61" cy="-10.61" rx="10.71" ry="10.71"/>
<text text-anchor="middle" x="68.61" y="-7.51" font-family="DejaVu Serif,serif" font-size="12.00">1</text>
</g>
<!-- 2 -->
<g id="node2" class="node">
<title>2</title>
<ellipse fill="none" stroke="black" cx="49.61" cy="-67.82" rx="10.71" ry="10.71"/>
<text text-anchor="middle" x="49.61" y="-64.72" font-family="DejaVu Serif,serif" font-size="12.00">2</text>
</g>
<!-- 2&#45;&gt;1 -->
<g id="edge1" class="edge">
<title>2&#45;&gt;1</title>
<path fill="none" stroke="black" d="M52.92,-57.2C55.78,-48.89 59.96,-36.72 63.29,-27.05"/>
<polygon fill="black" stroke="black" points="64.87,-27.84 64.84,-22.54 61.56,-26.7 64.87,-27.84"/>
</g>
<!-- 3 -->
<g id="node3" class="node">
<title>3</title>
<ellipse fill="none" stroke="black" cx="10.61" cy="-125.74" rx="10.71" ry="10.71"/>
<text text-anchor="middle" x="10.61" y="-122.64" font-family="DejaVu Serif,serif" font-size="12.00">3</text>
</g>
<!-- 3&#45;&gt;2 -->
<g id="edge2" class="edge">
<title>3&#45;&gt;2</title>
<path fill="none" stroke="black" d="M16.36,-116.49C22.64,-107.49 32.79,-92.94 40.22,-82.27"/>
<polygon fill="black" stroke="black" points="41.54,-83.45 42.96,-78.35 38.67,-81.45 41.54,-83.45"/>
</g>
<!-- 4 -->
<g id="node4" class="node">
<title>4</title>
<ellipse fill="none" stroke="black" cx="88.61" cy="-67.82" rx="10.71" ry="10.71"/>
<text text-anchor="middle" x="88.61" y="-64.72" font-family="DejaVu Serif,serif" font-size="12.00">4</text>
</g>
<!-- 4&#45;&gt;1 -->
<g id="edge3" class="edge">
<title>4&#45;&gt;1</title>
<path fill="none" stroke="black" d="M85.12,-57.2C82.11,-48.89 77.7,-36.72 74.2,-27.05"/>
<polygon fill="black" stroke="black" points="75.91,-26.64 72.57,-22.54 72.62,-27.83 75.91,-26.64"/>
</g>
<!-- 5 -->
<g id="node5" class="node">
<title>5</title>
<ellipse fill="none" stroke="black" cx="49.61" cy="-125.74" rx="10.71" ry="10.71"/>
<text text-anchor="middle" x="49.61" y="-122.64" font-family="DejaVu Serif,serif" font-size="12.00">5</text>
</g>
<!-- 5&#45;&gt;2 -->
<g id="edge4" class="edge">
<title>5&#45;&gt;2</title>
<path fill="none" stroke="black" d="M49.61,-114.74C49.61,-106.55 49.61,-94.8 49.61,-85.23"/>
<polygon fill="black" stroke="black" points="51.36,-85.24 49.61,-80.24 47.86,-85.24 51.36,-85.24"/>
</g>
<!-- 5&#45;&gt;4 -->
<g id="edge5" class="edge">
<title>5&#45;&gt;4</title>
<path fill="none" stroke="black" d="M55.36,-116.49C61.64,-107.49 71.79,-92.94 79.22,-82.27"/>
<polygon fill="black" stroke="black" points="80.54,-83.45 81.96,-78.35 77.67,-81.45 80.54,-83.45"/>
</g>
<!-- 6 -->
<g id="node6" class="node">
<title>6</title>
<ellipse fill="none" stroke="black" cx="10.61" cy="-184.37" rx="10.71" ry="10.71"/>
<text text-anchor="middle" x="10.61" y="-181.27" font-family="DejaVu Serif,serif" font-size="12.00">6</text>
</g>
<!-- 6&#45;&gt;3 -->
<g id="edge6" class="edge">
<title>6&#45;&gt;3</title>
<path fill="none" stroke="black" d="M10.61,-173.24C10.61,-164.87 10.61,-152.81 10.61,-143.07"/>
<polygon fill="black" stroke="black" points="12.36,-143.29 10.61,-138.29 8.86,-143.29 12.36,-143.29"/>
</g>
<!-- 6&#45;&gt;5 -->
<g id="edge7" class="edge">
<title>6&#45;&gt;5</title>
<path fill="none" stroke="black" d="M16.36,-175.01C22.64,-165.89 32.79,-151.16 40.22,-140.37"/>
<polygon fill="black" stroke="black" points="41.58,-141.49 42.97,-136.38 38.69,-139.5 41.58,-141.49"/>
</g>
<!-- 7 -->
<g id="node7" class="node">
<title>7</title>
<ellipse fill="none" stroke="black" cx="88.61" cy="-125.74" rx="10.71" ry="10.71"/>
<text text-anchor="middle" x="88.61" y="-122.64" font-family="DejaVu Serif,serif" font-size="12.00">7</text>
</g>
<!-- 7&#45;&gt;4 -->
<g id="edge8" class="edge">
<title>7&#45;&gt;4</title>
<path fill="none" stroke="black" d="M88.61,-114.74C88.61,-106.55 88.61,-94.8 88.61,-85.23"/>
<polygon fill="black" stroke="black" points="90.36,-85.24 88.61,-80.24 86.86,-85.24 90.36,-85.24"/>
</g>
<!-- 8 -->
<g id="node8" class="node">
<title>8</title>
<ellipse fill="none" stroke="black" cx="49.61" cy="-184.37" rx="10.71" ry="10.71"/>
<text text-anchor="middle" x="49.61" y="-181.27" font-family="DejaVu Serif,serif" font-size="12.00">8</text>
</g>
<!-- 8&#45;&gt;5 -->
<g id="edge9" class="edge">
<title>8&#45;&gt;5</title>
<path fill="none" stroke="black" d="M49.61,-173.24C49.61,-164.87 49.61,-152.81 49.61,-143.07"/>
<polygon fill="black" stroke="black" points="51.36,-143.29 49.61,-138.29 47.86,-143.29 51.36,-143.29"/>
</g>
<!-- 8&#45;&gt;7 -->
<g id="edge10" class="edge">
<title>8&#45;&gt;7</title>
<path fill="none" stroke="black" d="M55.36,-175.01C61.64,-165.89 71.79,-151.16 79.22,-140.37"/>
<polygon fill="black" stroke="black" points="80.58,-141.49 81.97,-136.38 77.69,-139.5 80.58,-141.49"/>
</g>
<!-- 9 -->
<g id="node9" class="node">
<title>9</title>
<ellipse fill="none" stroke="black" cx="10.61" cy="-242.99" rx="10.71" ry="10.71"/>
<text text-anchor="middle" x="10.61" y="-239.89" font-family="DejaVu Serif,serif" font-size="12.00">9</text>
</g>
<!-- 9&#45;&gt;6 -->
<g id="edge11" class="edge">
<title>9&#45;&gt;6</title>
<path fill="none" stroke="black" d="M10.61,-231.87C10.61,-223.5 10.61,-211.44 10.61,-201.7"/>
<polygon fill="black" stroke="black" points="12.36,-201.92 10.61,-196.92 8.86,-201.92 12.36,-201.92"/>
</g>
<!-- 9&#45;&gt;8 -->
<g id="edge12" class="edge">
<title>9&#45;&gt;8</title>
<path fill="none" stroke="black" d="M16.36,-233.64C22.64,-224.52 32.79,-209.79 40.22,-198.99"/>
<polygon fill="black" stroke="black" points="41.58,-200.11 42.97,-195 38.69,-198.13 41.58,-200.11"/>
</g>
<!-- 10 -->
<g id="node10" class="node">
<title>10</title>
<ellipse fill="none" stroke="black" cx="128.61" cy="-125.74" rx="11.13" ry="11.13"/>
<text text-anchor="middle" x="128.61" y="-122.64" font-family="DejaVu Serif,serif" font-size="12.00">10</text>
</g>
<!-- 10&#45;&gt;4 -->
<g id="edge13" class="edge">
<title>10&#45;&gt;4</title>
<path fill="none" stroke="black" d="M122.36,-116C115.85,-106.9 105.56,-92.53 98.06,-82.04"/>
<polygon fill="black" stroke="black" points="99.64,-81.23 95.3,-78.18 96.79,-83.27 99.64,-81.23"/>
</g>
<!-- 11 -->
<g id="node11" class="node">
<title>11</title>
<ellipse fill="none" stroke="black" cx="89.61" cy="-184.37" rx="11.13" ry="11.13"/>
<text text-anchor="middle" x="89.61" y="-181.27" font-family="DejaVu Serif,serif" font-size="12.00">11</text>
</g>
<!-- 11&#45;&gt;5 -->
<g id="edge14" class="edge">
<title>11&#45;&gt;5</title>
<path fill="none" stroke="black" d="M83.7,-175.01C77.26,-165.89 66.86,-151.16 59.23,-140.37"/>
<polygon fill="black" stroke="black" points="60.72,-139.44 56.41,-136.37 57.86,-141.46 60.72,-139.44"/>
</g>
<!-- 11&#45;&gt;10 -->
<g id="edge15" class="edge">
<title>11&#45;&gt;10</title>
<path fill="none" stroke="black" d="M95.7,-174.52C101.98,-165.41 111.84,-151.08 119.14,-140.49"/>
<polygon fill="black" stroke="black" points="120.43,-141.7 121.82,-136.59 117.55,-139.71 120.43,-141.7"/>
</g>
<!-- 12 -->
<g id="node12" class="node">
<title>12</title>
<ellipse fill="none" stroke="black" cx="50.61" cy="-242.99" rx="11.13" ry="11.13"/>
<text text-anchor="middle" x="50.61" y="-239.89" font-family="DejaVu Serif,serif" font-size="12.00">12</text>
</g>
<!-- 12&#45;&gt;6 -->
<g id="edge16" class="edge">
<title>12&#45;&gt;6</title>
<path fill="none" stroke="black" d="M44.7,-233.64C38.26,-224.52 27.86,-209.79 20.23,-198.99"/>
<polygon fill="black" stroke="black" points="21.72,-198.07 17.41,-194.99 18.86,-200.09 21.72,-198.07"/>
</g>
<!-- 12&#45;&gt;11 -->
<g id="edge17" class="edge">
<title>12&#45;&gt;11</title>
<path fill="none" stroke="black" d="M56.7,-233.15C62.98,-224.03 72.84,-209.71 80.14,-199.12"/>
<polygon fill="black" stroke="black" points="81.43,-200.33 82.82,-195.21 78.55,-198.34 81.43,-200.33"/>
</g>
<!-- 13 -->
<g id="node13" class="node">
<title>13</title>
<ellipse fill="none" stroke="black" cx="130.61" cy="-184.37" rx="11.13" ry="11.13"/>
<text text-anchor="middle" x="130.61" y="-181.27" font-family="DejaVu Serif,serif" font-size="12.00">13</text>
</g>
<!-- 13&#45;&gt;7 -->
<g id="edge18" class="edge">
<title>13&#45;&gt;7</title>
<path fill="none" stroke="black" d="M124.41,-175.01C117.57,-165.79 106.47,-150.82 98.44,-139.99"/>
<polygon fill="black" stroke="black" points="99.84,-138.95 95.46,-135.98 97.03,-141.04 99.84,-138.95"/>
</g>
<!-- 13&#45;&gt;10 -->
<g id="edge19" class="edge">
<title>13&#45;&gt;10</title>
<path fill="none" stroke="black" d="M130.24,-172.98C129.95,-164.76 129.54,-153.11 129.2,-143.56"/>
<polygon fill="black" stroke="black" points="130.95,-143.51 129.02,-138.57 127.45,-143.63 130.95,-143.51"/>
</g>
<!-- 14 -->
<g id="node14" class="node">
<title>14</title>
<ellipse fill="none" stroke="black" cx="91.61" cy="-242.99" rx="11.13" ry="11.13"/>
<text text-anchor="middle" x="91.61" y="-239.89" font-family="DejaVu Serif,serif" font-size="12.00">14</text>
</g>
<!-- 14&#45;&gt;8 -->
<g id="edge20" class="edge">
<title>14&#45;&gt;8</title>
<path fill="none" stroke="black" d="M85.41,-233.64C78.57,-224.42 67.47,-209.45 59.44,-198.62"/>
<polygon fill="black" stroke="black" points="60.84,-197.58 56.46,-194.61 58.03,-199.66 60.84,-197.58"/>
</g>
<!-- 14&#45;&gt;11 -->
<g id="edge21" class="edge">
<title>14&#45;&gt;11</title>
<path fill="none" stroke="black" d="M91.24,-231.61C90.95,-223.39 90.54,-211.74 90.2,-202.19"/>
<polygon fill="black" stroke="black" points="91.95,-202.14 90.02,-197.2 88.45,-202.26 91.95,-202.14"/>
</g>
<!-- 14&#45;&gt;13 -->
<g id="edge22" class="edge">
<title>14&#45;&gt;13</title>
<path fill="none" stroke="black" d="M97.7,-233.15C103.98,-224.03 113.84,-209.71 121.14,-199.12"/>
<polygon fill="black" stroke="black" points="122.43,-200.33 123.82,-195.21 119.55,-198.34 122.43,-200.33"/>
</g>
<!-- 15 -->
<g id="node15" class="node">
<title>15</title>
<ellipse fill="none" stroke="black" cx="50.61" cy="-301.62" rx="11.13" ry="11.13"/>
<text text-anchor="middle" x="50.61" y="-298.52" font-family="DejaVu Serif,serif" font-size="12.00">15</text>
</g>
<!-- 15&#45;&gt;9 -->
<g id="edge23" class="edge">
<title>15&#45;&gt;9</title>
<path fill="none" stroke="black" d="M44.7,-292.27C38.26,-283.15 27.86,-268.42 20.23,-257.62"/>
<polygon fill="black" stroke="black" points="21.72,-256.7 17.41,-253.62 18.86,-258.71 21.72,-256.7"/>
</g>
<!-- 15&#45;&gt;12 -->
<g id="edge24" class="edge">
<title>15&#45;&gt;12</title>
<path fill="none" stroke="black" d="M50.61,-290.24C50.61,-282.01 50.61,-270.37 50.61,-260.82"/>
<polygon fill="black" stroke="black" points="52.36,-260.83 50.61,-255.83 48.86,-260.83 52.36,-260.83"/>
</g>
<!-- 15&#45;&gt;14 -->
<g id="edge25" class="edge">
<title>15&#45;&gt;14</title>
<path fill="none" stroke="black" d="M56.66,-292.27C63.26,-283.15 73.93,-268.42 81.74,-257.62"/>
<polygon fill="black" stroke="black" points="83.13,-258.69 84.64,-253.61 80.29,-256.63 83.13,-258.69"/>
</g>
</g>
</svg>
