<?xml version="1.0" encoding="UTF-8" standalone="no"?>
<!DOCTYPE svg PUBLIC "-//W3C//DTD SVG 1.1//EN"
 "http://www.w3.org/Graphics/SVG/1.1/DTD/svg11.dtd">
<!-- Generated by graphviz version 2.50.0 (20211204.2007)
 -->
<!-- Title: subobject_lattice Pages: 1 -->
<svg width="400pt" height="438pt"
 viewBox="0.00 0.00 399.63 438.19" xmlns="http://www.w3.org/2000/svg" xmlns:xlink="http://www.w3.org/1999/xlink">
<g id="graph0" class="graph" transform="scale(1 1) rotate(0) translate(4 434.19)">
<title>subobject_lattice</title>
<polygon fill="white" stroke="transparent" points="-4,4 -4,-434.19 395.63,-434.19 395.63,4 -4,4"/>
<!-- 1 -->
<g id="node1" class="node">
<title>1</title>
<ellipse fill="none" stroke="black" cx="194.31" cy="-10.61" rx="10.71" ry="10.71"/>
<text text-anchor="middle" x="194.31" y="-7.51" font-family="DejaVu Serif,serif" font-size="12.00">1</text>
</g>
<!-- 2 -->
<g id="node2" class="node">
<title>2</title>
<ellipse fill="none" stroke="black" cx="175.31" cy="-67.82" rx="10.71" ry="10.71"/>
<text text-anchor="middle" x="175.31" y="-64.72" font-family="DejaVu Serif,serif" font-size="12.00">2</text>
</g>
<!-- 1&#45;&gt;2 -->
<g id="edge1" class="edge">
<title>1&#45;&gt;2</title>
<path fill="none" stroke="black" d="M191.09,-20.97C188.1,-29.67 183.6,-42.74 180.17,-52.71"/>
<polygon fill="black" stroke="black" points="178.46,-52.29 178.49,-57.59 181.77,-53.43 178.46,-52.29"/>
</g>
<!-- 4 -->
<g id="node4" class="node">
<title>4</title>
<ellipse fill="none" stroke="black" cx="214.31" cy="-67.82" rx="10.71" ry="10.71"/>
<text text-anchor="middle" x="214.31" y="-64.72" font-family="DejaVu Serif,serif" font-size="12.00">4</text>
</g>
<!-- 1&#45;&gt;4 -->
<g id="edge2" class="edge">
<title>1&#45;&gt;4</title>
<path fill="none" stroke="black" d="M197.62,-20.72C200.75,-29.38 205.52,-42.53 209.15,-52.58"/>
<polygon fill="black" stroke="black" points="207.59,-53.4 210.94,-57.5 210.88,-52.21 207.59,-53.4"/>
</g>
<!-- 3 -->
<g id="node3" class="node">
<title>3</title>
<ellipse fill="none" stroke="black" cx="117.31" cy="-125.74" rx="10.71" ry="10.71"/>
<text text-anchor="middle" x="117.31" y="-122.64" font-family="DejaVu Serif,serif" font-size="12.00">3</text>
</g>
<!-- 2&#45;&gt;3 -->
<g id="edge3" class="edge">
<title>2&#45;&gt;3</title>
<path fill="none" stroke="black" d="M167.73,-76.13C157.69,-85.81 139.91,-102.96 128.37,-114.08"/>
<polygon fill="black" stroke="black" points="127.1,-112.87 124.71,-117.6 129.53,-115.39 127.1,-112.87"/>
</g>
<!-- 5 -->
<g id="node5" class="node">
<title>5</title>
<ellipse fill="none" stroke="black" cx="175.31" cy="-125.74" rx="10.71" ry="10.71"/>
<text text-anchor="middle" x="175.31" y="-122.64" font-family="DejaVu Serif,serif" font-size="12.00">5</text>
</g>
<!-- 2&#45;&gt;5 -->
<g id="edge4" class="edge">
<title>2&#45;&gt;5</title>
<path fill="none" stroke="black" d="M175.31,-78.56C175.31,-87.22 175.31,-100.01 175.31,-109.94"/>
<polygon fill="black" stroke="black" points="173.56,-110.11 175.31,-115.11 177.06,-110.11 173.56,-110.11"/>
</g>
<!-- 6 -->
<g id="node6" class="node">
<title>6</title>
<ellipse fill="none" stroke="black" cx="95.31" cy="-184.37" rx="10.71" ry="10.71"/>
<text text-anchor="middle" x="95.31" y="-181.27" font-family="DejaVu Serif,serif" font-size="12.00">6</text>
</g>
<!-- 3&#45;&gt;6 -->
<g id="edge5" class="edge">
<title>3&#45;&gt;6</title>
<path fill="none" stroke="black" d="M113.78,-135.84C110.27,-144.87 104.85,-158.83 100.78,-169.29"/>
<polygon fill="black" stroke="black" points="99.09,-168.81 98.91,-174.1 102.35,-170.08 99.09,-168.81"/>
</g>
<!-- 4&#45;&gt;5 -->
<g id="edge6" class="edge">
<title>4&#45;&gt;5</title>
<path fill="none" stroke="black" d="M208.56,-77.07C202.11,-86.32 191.57,-101.43 184.09,-112.16"/>
<polygon fill="black" stroke="black" points="182.52,-111.35 181.09,-116.46 185.39,-113.35 182.52,-111.35"/>
</g>
<!-- 13 -->
<g id="node13" class="node">
<title>13</title>
<ellipse fill="none" stroke="black" cx="215.31" cy="-125.74" rx="11.13" ry="11.13"/>
<text text-anchor="middle" x="215.31" y="-122.64" font-family="DejaVu Serif,serif" font-size="12.00">13</text>
</g>
<!-- 4&#45;&gt;13 -->
<g id="edge7" class="edge">
<title>4&#45;&gt;13</title>
<path fill="none" stroke="black" d="M214.49,-78.56C214.64,-87.01 214.86,-99.39 215.04,-109.2"/>
<polygon fill="black" stroke="black" points="213.29,-109.39 215.13,-114.35 216.79,-109.32 213.29,-109.39"/>
</g>
<!-- 22 -->
<g id="node22" class="node">
<title>22</title>
<ellipse fill="none" stroke="black" cx="276.31" cy="-125.74" rx="11.13" ry="11.13"/>
<text text-anchor="middle" x="276.31" y="-122.64" font-family="DejaVu Serif,serif" font-size="12.00">22</text>
</g>
<!-- 4&#45;&gt;22 -->
<g id="edge8" class="edge">
<title>4&#45;&gt;22</title>
<path fill="none" stroke="black" d="M221.92,-75.68C232.49,-85.21 251.75,-102.58 264.28,-113.89"/>
<polygon fill="black" stroke="black" points="263.37,-115.42 268.26,-117.47 265.72,-112.82 263.37,-115.42"/>
</g>
<!-- 5&#45;&gt;6 -->
<g id="edge9" class="edge">
<title>5&#45;&gt;6</title>
<path fill="none" stroke="black" d="M167.05,-132.59C153.04,-142.51 124.53,-162.69 107.98,-174.4"/>
<polygon fill="black" stroke="black" points="106.72,-173.15 103.65,-177.47 108.74,-176.01 106.72,-173.15"/>
</g>
<!-- 7 -->
<g id="node7" class="node">
<title>7</title>
<ellipse fill="none" stroke="black" cx="136.31" cy="-184.37" rx="10.71" ry="10.71"/>
<text text-anchor="middle" x="136.31" y="-181.27" font-family="DejaVu Serif,serif" font-size="12.00">7</text>
</g>
<!-- 5&#45;&gt;7 -->
<g id="edge10" class="edge">
<title>5&#45;&gt;7</title>
<path fill="none" stroke="black" d="M169.56,-135.1C163.11,-144.46 152.57,-159.76 145.09,-170.62"/>
<polygon fill="black" stroke="black" points="143.49,-169.87 142.09,-174.98 146.37,-171.85 143.49,-169.87"/>
</g>
<!-- 9 -->
<g id="node9" class="node">
<title>9</title>
<ellipse fill="none" stroke="black" cx="175.31" cy="-184.37" rx="10.71" ry="10.71"/>
<text text-anchor="middle" x="175.31" y="-181.27" font-family="DejaVu Serif,serif" font-size="12.00">9</text>
</g>
<!-- 5&#45;&gt;9 -->
<g id="edge11" class="edge">
<title>5&#45;&gt;9</title>
<path fill="none" stroke="black" d="M175.31,-136.6C175.31,-145.37 175.31,-158.33 175.31,-168.38"/>
<polygon fill="black" stroke="black" points="173.56,-168.62 175.31,-173.62 177.06,-168.62 173.56,-168.62"/>
</g>
<!-- 14 -->
<g id="node14" class="node">
<title>14</title>
<ellipse fill="none" stroke="black" cx="215.31" cy="-184.37" rx="11.13" ry="11.13"/>
<text text-anchor="middle" x="215.31" y="-181.27" font-family="DejaVu Serif,serif" font-size="12.00">14</text>
</g>
<!-- 5&#45;&gt;14 -->
<g id="edge12" class="edge">
<title>5&#45;&gt;14</title>
<path fill="none" stroke="black" d="M181.22,-135.1C187.76,-144.36 198.39,-159.41 206.05,-170.25"/>
<polygon fill="black" stroke="black" points="204.81,-171.53 209.12,-174.6 207.67,-169.51 204.81,-171.53"/>
</g>
<!-- 23 -->
<g id="node23" class="node">
<title>23</title>
<ellipse fill="none" stroke="black" cx="276.31" cy="-184.37" rx="11.13" ry="11.13"/>
<text text-anchor="middle" x="276.31" y="-181.27" font-family="DejaVu Serif,serif" font-size="12.00">23</text>
</g>
<!-- 5&#45;&gt;23 -->
<g id="edge13" class="edge">
<title>5&#45;&gt;23</title>
<path fill="none" stroke="black" d="M184.28,-131.77C201.87,-141.63 241.05,-163.6 262.17,-175.44"/>
<polygon fill="black" stroke="black" points="261.42,-177.02 266.64,-177.94 263.13,-173.97 261.42,-177.02"/>
</g>
<!-- 8 -->
<g id="node8" class="node">
<title>8</title>
<ellipse fill="none" stroke="black" cx="11.31" cy="-242.99" rx="10.71" ry="10.71"/>
<text text-anchor="middle" x="11.31" y="-239.89" font-family="DejaVu Serif,serif" font-size="12.00">8</text>
</g>
<!-- 6&#45;&gt;8 -->
<g id="edge14" class="edge">
<title>6&#45;&gt;8</title>
<path fill="none" stroke="black" d="M86.95,-191C72.23,-200.93 41.61,-221.57 24.18,-233.32"/>
<polygon fill="black" stroke="black" points="22.81,-232.14 19.64,-236.38 24.77,-235.04 22.81,-232.14"/>
</g>
<!-- 10 -->
<g id="node10" class="node">
<title>10</title>
<ellipse fill="none" stroke="black" cx="51.31" cy="-242.99" rx="11.13" ry="11.13"/>
<text text-anchor="middle" x="51.31" y="-239.89" font-family="DejaVu Serif,serif" font-size="12.00">10</text>
</g>
<!-- 6&#45;&gt;10 -->
<g id="edge15" class="edge">
<title>6&#45;&gt;10</title>
<path fill="none" stroke="black" d="M89.2,-193.24C81.94,-202.58 69.75,-218.26 61.16,-229.32"/>
<polygon fill="black" stroke="black" points="59.64,-228.43 57.95,-233.45 62.4,-230.57 59.64,-228.43"/>
</g>
<!-- 15 -->
<g id="node15" class="node">
<title>15</title>
<ellipse fill="none" stroke="black" cx="92.31" cy="-242.99" rx="11.13" ry="11.13"/>
<text text-anchor="middle" x="92.31" y="-239.89" font-family="DejaVu Serif,serif" font-size="12.00">15</text>
</g>
<!-- 6&#45;&gt;15 -->
<g id="edge16" class="edge">
<title>6&#45;&gt;15</title>
<path fill="none" stroke="black" d="M94.8,-194.97C94.35,-203.49 93.69,-216.1 93.15,-226.12"/>
<polygon fill="black" stroke="black" points="91.39,-226.29 92.88,-231.38 94.89,-226.48 91.39,-226.29"/>
</g>
<!-- 24 -->
<g id="node24" class="node">
<title>24</title>
<ellipse fill="none" stroke="black" cx="256.31" cy="-242.99" rx="11.13" ry="11.13"/>
<text text-anchor="middle" x="256.31" y="-239.89" font-family="DejaVu Serif,serif" font-size="12.00">24</text>
</g>
<!-- 6&#45;&gt;24 -->
<g id="edge17" class="edge">
<title>6&#45;&gt;24</title>
<path fill="none" stroke="black" d="M104.58,-190.32C108.18,-192.14 112.38,-194.13 116.31,-195.68 167.73,-215.93 183.9,-211.43 235.31,-231.68 237.44,-232.52 239.65,-233.49 241.79,-234.49"/>
<polygon fill="black" stroke="black" points="241.37,-236.23 246.63,-236.83 242.9,-233.08 241.37,-236.23"/>
</g>
<!-- 7&#45;&gt;8 -->
<g id="edge18" class="edge">
<title>7&#45;&gt;8</title>
<path fill="none" stroke="black" d="M126.95,-190.09C123.34,-191.88 119.15,-193.92 115.31,-195.68 78.41,-212.64 68.05,-214.36 31.31,-231.68 29.33,-232.62 27.25,-233.64 25.21,-234.67"/>
<polygon fill="black" stroke="black" points="24.26,-233.19 20.61,-237.03 25.85,-236.3 24.26,-233.19"/>
</g>
<!-- 11 -->
<g id="node11" class="node">
<title>11</title>
<ellipse fill="none" stroke="black" cx="133.31" cy="-242.99" rx="11.13" ry="11.13"/>
<text text-anchor="middle" x="133.31" y="-239.89" font-family="DejaVu Serif,serif" font-size="12.00">11</text>
</g>
<!-- 7&#45;&gt;11 -->
<g id="edge19" class="edge">
<title>7&#45;&gt;11</title>
<path fill="none" stroke="black" d="M135.8,-194.97C135.35,-203.49 134.69,-216.1 134.15,-226.12"/>
<polygon fill="black" stroke="black" points="132.39,-226.29 133.88,-231.38 135.89,-226.48 132.39,-226.29"/>
</g>
<!-- 16 -->
<g id="node16" class="node">
<title>16</title>
<ellipse fill="none" stroke="black" cx="174.31" cy="-242.99" rx="11.13" ry="11.13"/>
<text text-anchor="middle" x="174.31" y="-239.89" font-family="DejaVu Serif,serif" font-size="12.00">16</text>
</g>
<!-- 7&#45;&gt;16 -->
<g id="edge20" class="edge">
<title>7&#45;&gt;16</title>
<path fill="none" stroke="black" d="M141.92,-193.72C148.13,-202.98 158.24,-218.04 165.51,-228.88"/>
<polygon fill="black" stroke="black" points="164.19,-230.06 168.43,-233.23 167.1,-228.11 164.19,-230.06"/>
</g>
<!-- 25 -->
<g id="node25" class="node">
<title>25</title>
<ellipse fill="none" stroke="black" cx="297.31" cy="-242.99" rx="11.13" ry="11.13"/>
<text text-anchor="middle" x="297.31" y="-239.89" font-family="DejaVu Serif,serif" font-size="12.00">25</text>
</g>
<!-- 7&#45;&gt;25 -->
<g id="edge21" class="edge">
<title>7&#45;&gt;25</title>
<path fill="none" stroke="black" d="M145.02,-190.59C148.19,-192.35 151.85,-194.24 155.31,-195.68 207.14,-217.18 224.06,-211.24 276.31,-231.68 278.44,-232.51 280.65,-233.48 282.8,-234.48"/>
<polygon fill="black" stroke="black" points="282.37,-236.22 287.64,-236.82 283.9,-233.07 282.37,-236.22"/>
</g>
<!-- 12 -->
<g id="node12" class="node">
<title>12</title>
<ellipse fill="none" stroke="black" cx="11.31" cy="-301.62" rx="11.13" ry="11.13"/>
<text text-anchor="middle" x="11.31" y="-298.52" font-family="DejaVu Serif,serif" font-size="12.00">12</text>
</g>
<!-- 8&#45;&gt;12 -->
<g id="edge22" class="edge">
<title>8&#45;&gt;12</title>
<path fill="none" stroke="black" d="M11.31,-253.86C11.31,-262.41 11.31,-274.95 11.31,-284.89"/>
<polygon fill="black" stroke="black" points="9.56,-285.1 11.31,-290.1 13.06,-285.1 9.56,-285.1"/>
</g>
<!-- 17 -->
<g id="node17" class="node">
<title>17</title>
<ellipse fill="none" stroke="black" cx="52.31" cy="-301.62" rx="11.13" ry="11.13"/>
<text text-anchor="middle" x="52.31" y="-298.52" font-family="DejaVu Serif,serif" font-size="12.00">17</text>
</g>
<!-- 8&#45;&gt;17 -->
<g id="edge23" class="edge">
<title>8&#45;&gt;17</title>
<path fill="none" stroke="black" d="M17.36,-252.35C24.13,-261.69 35.16,-276.94 43.02,-287.79"/>
<polygon fill="black" stroke="black" points="41.62,-288.84 45.97,-291.86 44.45,-286.78 41.62,-288.84"/>
</g>
<!-- 26 -->
<g id="node26" class="node">
<title>26</title>
<ellipse fill="none" stroke="black" cx="175.31" cy="-301.62" rx="11.13" ry="11.13"/>
<text text-anchor="middle" x="175.31" y="-298.52" font-family="DejaVu Serif,serif" font-size="12.00">26</text>
</g>
<!-- 8&#45;&gt;26 -->
<g id="edge24" class="edge">
<title>8&#45;&gt;26</title>
<path fill="none" stroke="black" d="M20.1,-248.99C23.53,-250.81 27.54,-252.8 31.31,-254.31 84.2,-275.46 101.22,-269.68 154.31,-290.31 156.44,-291.14 158.65,-292.1 160.8,-293.1"/>
<polygon fill="black" stroke="black" points="160.38,-294.84 165.64,-295.44 161.9,-291.69 160.38,-294.84"/>
</g>
<!-- 9&#45;&gt;10 -->
<g id="edge25" class="edge">
<title>9&#45;&gt;10</title>
<path fill="none" stroke="black" d="M166.51,-190.37C163.33,-192.11 159.69,-194.04 156.31,-195.68 119.76,-213.39 109.22,-214.72 72.31,-231.68 70.24,-232.64 68.06,-233.67 65.93,-234.7"/>
<polygon fill="black" stroke="black" points="64.82,-233.29 61.09,-237.06 66.35,-236.44 64.82,-233.29"/>
</g>
<!-- 9&#45;&gt;11 -->
<g id="edge26" class="edge">
<title>9&#45;&gt;11</title>
<path fill="none" stroke="black" d="M169.47,-193.24C162.55,-202.58 150.92,-218.26 142.72,-229.32"/>
<polygon fill="black" stroke="black" points="141.23,-228.39 139.65,-233.45 144.04,-230.47 141.23,-228.39"/>
</g>
<!-- 18 -->
<g id="node18" class="node">
<title>18</title>
<ellipse fill="none" stroke="black" cx="215.31" cy="-242.99" rx="11.13" ry="11.13"/>
<text text-anchor="middle" x="215.31" y="-239.89" font-family="DejaVu Serif,serif" font-size="12.00">18</text>
</g>
<!-- 9&#45;&gt;18 -->
<g id="edge27" class="edge">
<title>9&#45;&gt;18</title>
<path fill="none" stroke="black" d="M181.22,-193.72C187.76,-202.98 198.39,-218.04 206.05,-228.88"/>
<polygon fill="black" stroke="black" points="204.81,-230.16 209.12,-233.23 207.67,-228.14 204.81,-230.16"/>
</g>
<!-- 27 -->
<g id="node27" class="node">
<title>27</title>
<ellipse fill="none" stroke="black" cx="338.31" cy="-242.99" rx="11.13" ry="11.13"/>
<text text-anchor="middle" x="338.31" y="-239.89" font-family="DejaVu Serif,serif" font-size="12.00">27</text>
</g>
<!-- 9&#45;&gt;27 -->
<g id="edge28" class="edge">
<title>9&#45;&gt;27</title>
<path fill="none" stroke="black" d="M184.11,-190.36C187.54,-192.18 191.54,-194.17 195.31,-195.68 247.78,-216.73 264.64,-211.15 317.31,-231.68 319.44,-232.51 321.65,-233.47 323.8,-234.47"/>
<polygon fill="black" stroke="black" points="323.38,-236.21 328.64,-236.82 324.9,-233.06 323.38,-236.21"/>
</g>
<!-- 10&#45;&gt;12 -->
<g id="edge29" class="edge">
<title>10&#45;&gt;12</title>
<path fill="none" stroke="black" d="M45.06,-252.84C38.45,-262.21 27.95,-277.07 20.42,-287.74"/>
<polygon fill="black" stroke="black" points="18.84,-286.93 17.39,-292.02 21.7,-288.95 18.84,-286.93"/>
</g>
<!-- 19 -->
<g id="node19" class="node">
<title>19</title>
<ellipse fill="none" stroke="black" cx="93.31" cy="-301.62" rx="11.13" ry="11.13"/>
<text text-anchor="middle" x="93.31" y="-298.52" font-family="DejaVu Serif,serif" font-size="12.00">19</text>
</g>
<!-- 10&#45;&gt;19 -->
<g id="edge30" class="edge">
<title>10&#45;&gt;19</title>
<path fill="none" stroke="black" d="M57.88,-252.84C64.82,-262.21 75.85,-277.07 83.76,-287.74"/>
<polygon fill="black" stroke="black" points="82.55,-289.05 86.93,-292.02 85.36,-286.96 82.55,-289.05"/>
</g>
<!-- 28 -->
<g id="node28" class="node">
<title>28</title>
<ellipse fill="none" stroke="black" cx="216.31" cy="-301.62" rx="11.13" ry="11.13"/>
<text text-anchor="middle" x="216.31" y="-298.52" font-family="DejaVu Serif,serif" font-size="12.00">28</text>
</g>
<!-- 10&#45;&gt;28 -->
<g id="edge31" class="edge">
<title>10&#45;&gt;28</title>
<path fill="none" stroke="black" d="M60.99,-249.18C64.5,-250.94 68.53,-252.84 72.31,-254.31 125.41,-274.94 142.22,-269.68 195.31,-290.31 197.44,-291.14 199.65,-292.1 201.8,-293.1"/>
<polygon fill="black" stroke="black" points="201.38,-294.84 206.64,-295.44 202.9,-291.69 201.38,-294.84"/>
</g>
<!-- 11&#45;&gt;12 -->
<g id="edge32" class="edge">
<title>11&#45;&gt;12</title>
<path fill="none" stroke="black" d="M123.52,-248.89C120,-250.63 115.99,-252.58 112.31,-254.31 77.03,-270.9 67.59,-273.71 32.31,-290.31 30.25,-291.28 28.07,-292.32 25.94,-293.36"/>
<polygon fill="black" stroke="black" points="24.83,-291.96 21.11,-295.73 26.37,-295.1 24.83,-291.96"/>
</g>
<!-- 20 -->
<g id="node20" class="node">
<title>20</title>
<ellipse fill="none" stroke="black" cx="134.31" cy="-301.62" rx="11.13" ry="11.13"/>
<text text-anchor="middle" x="134.31" y="-298.52" font-family="DejaVu Serif,serif" font-size="12.00">20</text>
</g>
<!-- 11&#45;&gt;20 -->
<g id="edge33" class="edge">
<title>11&#45;&gt;20</title>
<path fill="none" stroke="black" d="M133.5,-254.38C133.65,-263 133.87,-275.39 134.04,-285.17"/>
<polygon fill="black" stroke="black" points="132.29,-285.33 134.13,-290.3 135.79,-285.27 132.29,-285.33"/>
</g>
<!-- 29 -->
<g id="node29" class="node">
<title>29</title>
<ellipse fill="none" stroke="black" cx="298.31" cy="-301.62" rx="11.13" ry="11.13"/>
<text text-anchor="middle" x="298.31" y="-298.52" font-family="DejaVu Serif,serif" font-size="12.00">29</text>
</g>
<!-- 11&#45;&gt;29 -->
<g id="edge34" class="edge">
<title>11&#45;&gt;29</title>
<path fill="none" stroke="black" d="M142.99,-249.18C146.5,-250.94 150.53,-252.84 154.31,-254.31 207.41,-274.94 224.22,-269.68 277.31,-290.31 279.44,-291.14 281.65,-292.1 283.8,-293.1"/>
<polygon fill="black" stroke="black" points="283.38,-294.84 288.64,-295.44 284.9,-291.69 283.38,-294.84"/>
</g>
<!-- 21 -->
<g id="node21" class="node">
<title>21</title>
<ellipse fill="none" stroke="black" cx="93.31" cy="-360.25" rx="11.13" ry="11.13"/>
<text text-anchor="middle" x="93.31" y="-357.15" font-family="DejaVu Serif,serif" font-size="12.00">21</text>
</g>
<!-- 12&#45;&gt;21 -->
<g id="edge35" class="edge">
<title>12&#45;&gt;21</title>
<path fill="none" stroke="black" d="M20.4,-308.9C34.89,-318.9 63.27,-338.51 80.04,-350.08"/>
<polygon fill="black" stroke="black" points="79.32,-351.72 84.43,-353.12 81.31,-348.84 79.32,-351.72"/>
</g>
<!-- 30 -->
<g id="node30" class="node">
<title>30</title>
<ellipse fill="none" stroke="black" cx="175.31" cy="-360.25" rx="11.13" ry="11.13"/>
<text text-anchor="middle" x="175.31" y="-357.15" font-family="DejaVu Serif,serif" font-size="12.00">30</text>
</g>
<!-- 12&#45;&gt;30 -->
<g id="edge36" class="edge">
<title>12&#45;&gt;30</title>
<path fill="none" stroke="black" d="M21.01,-307.75C24.52,-309.5 28.55,-311.41 32.31,-312.94 77.44,-331.21 132.74,-347.45 159.42,-354.91"/>
<polygon fill="black" stroke="black" points="159.08,-356.63 164.36,-356.28 160.01,-353.26 159.08,-356.63"/>
</g>
<!-- 13&#45;&gt;14 -->
<g id="edge37" class="edge">
<title>13&#45;&gt;14</title>
<path fill="none" stroke="black" d="M215.31,-137.13C215.31,-145.75 215.31,-158.14 215.31,-167.92"/>
<polygon fill="black" stroke="black" points="213.56,-168.05 215.31,-173.05 217.06,-168.05 213.56,-168.05"/>
</g>
<!-- 31 -->
<g id="node31" class="node">
<title>31</title>
<ellipse fill="none" stroke="black" cx="317.31" cy="-184.37" rx="11.13" ry="11.13"/>
<text text-anchor="middle" x="317.31" y="-181.27" font-family="DejaVu Serif,serif" font-size="12.00">31</text>
</g>
<!-- 13&#45;&gt;31 -->
<g id="edge38" class="edge">
<title>13&#45;&gt;31</title>
<path fill="none" stroke="black" d="M225.09,-132.17C243.27,-142.26 282.29,-163.92 303.28,-175.57"/>
<polygon fill="black" stroke="black" points="302.49,-177.14 307.71,-178.04 304.19,-174.08 302.49,-177.14"/>
</g>
<!-- 14&#45;&gt;15 -->
<g id="edge39" class="edge">
<title>14&#45;&gt;15</title>
<path fill="none" stroke="black" d="M205.61,-190.53C202.36,-192.21 198.7,-194.07 195.31,-195.68 159.39,-212.81 149.41,-214.9 113.31,-231.68 111.24,-232.64 109.07,-233.68 106.93,-234.72"/>
<polygon fill="black" stroke="black" points="105.82,-233.31 102.1,-237.08 107.36,-236.45 105.82,-233.31"/>
</g>
<!-- 14&#45;&gt;16 -->
<g id="edge40" class="edge">
<title>14&#45;&gt;16</title>
<path fill="none" stroke="black" d="M208.91,-194.22C202.13,-203.58 191.36,-218.45 183.64,-229.11"/>
<polygon fill="black" stroke="black" points="182.06,-228.32 180.54,-233.39 184.89,-230.37 182.06,-228.32"/>
</g>
<!-- 14&#45;&gt;18 -->
<g id="edge41" class="edge">
<title>14&#45;&gt;18</title>
<path fill="none" stroke="black" d="M215.31,-195.75C215.31,-204.37 215.31,-216.76 215.31,-226.55"/>
<polygon fill="black" stroke="black" points="213.56,-226.67 215.31,-231.67 217.06,-226.67 213.56,-226.67"/>
</g>
<!-- 32 -->
<g id="node32" class="node">
<title>32</title>
<ellipse fill="none" stroke="black" cx="379.31" cy="-242.99" rx="11.13" ry="11.13"/>
<text text-anchor="middle" x="379.31" y="-239.89" font-family="DejaVu Serif,serif" font-size="12.00">32</text>
</g>
<!-- 14&#45;&gt;32 -->
<g id="edge42" class="edge">
<title>14&#45;&gt;32</title>
<path fill="none" stroke="black" d="M226.27,-188.33C250.47,-195.01 310.18,-212.18 358.31,-231.68 360.43,-232.54 362.63,-233.52 364.78,-234.52"/>
<polygon fill="black" stroke="black" points="364.35,-236.26 369.62,-236.87 365.88,-233.11 364.35,-236.26"/>
</g>
<!-- 15&#45;&gt;17 -->
<g id="edge43" class="edge">
<title>15&#45;&gt;17</title>
<path fill="none" stroke="black" d="M86.06,-252.84C79.45,-262.21 68.95,-277.07 61.42,-287.74"/>
<polygon fill="black" stroke="black" points="59.84,-286.93 58.39,-292.02 62.7,-288.95 59.84,-286.93"/>
</g>
<!-- 15&#45;&gt;19 -->
<g id="edge44" class="edge">
<title>15&#45;&gt;19</title>
<path fill="none" stroke="black" d="M92.5,-254.38C92.65,-263 92.87,-275.39 93.04,-285.17"/>
<polygon fill="black" stroke="black" points="91.29,-285.33 93.13,-290.3 94.79,-285.27 91.29,-285.33"/>
</g>
<!-- 33 -->
<g id="node33" class="node">
<title>33</title>
<ellipse fill="none" stroke="black" cx="257.31" cy="-301.62" rx="11.13" ry="11.13"/>
<text text-anchor="middle" x="257.31" y="-298.52" font-family="DejaVu Serif,serif" font-size="12.00">33</text>
</g>
<!-- 15&#45;&gt;33 -->
<g id="edge45" class="edge">
<title>15&#45;&gt;33</title>
<path fill="none" stroke="black" d="M101.99,-249.18C105.5,-250.94 109.53,-252.84 113.31,-254.31 166.41,-274.94 183.22,-269.68 236.31,-290.31 238.44,-291.14 240.65,-292.1 242.8,-293.1"/>
<polygon fill="black" stroke="black" points="242.38,-294.84 247.64,-295.44 243.9,-291.69 242.38,-294.84"/>
</g>
<!-- 16&#45;&gt;17 -->
<g id="edge46" class="edge">
<title>16&#45;&gt;17</title>
<path fill="none" stroke="black" d="M164.52,-248.89C161,-250.63 156.99,-252.58 153.31,-254.31 118.03,-270.9 108.59,-273.71 73.31,-290.31 71.25,-291.28 69.07,-292.32 66.94,-293.36"/>
<polygon fill="black" stroke="black" points="65.83,-291.96 62.11,-295.73 67.37,-295.1 65.83,-291.96"/>
</g>
<!-- 16&#45;&gt;20 -->
<g id="edge47" class="edge">
<title>16&#45;&gt;20</title>
<path fill="none" stroke="black" d="M168.06,-252.84C161.45,-262.21 150.95,-277.07 143.42,-287.74"/>
<polygon fill="black" stroke="black" points="141.84,-286.93 140.39,-292.02 144.7,-288.95 141.84,-286.93"/>
</g>
<!-- 34 -->
<g id="node34" class="node">
<title>34</title>
<ellipse fill="none" stroke="black" cx="339.31" cy="-301.62" rx="11.13" ry="11.13"/>
<text text-anchor="middle" x="339.31" y="-298.52" font-family="DejaVu Serif,serif" font-size="12.00">34</text>
</g>
<!-- 16&#45;&gt;34 -->
<g id="edge48" class="edge">
<title>16&#45;&gt;34</title>
<path fill="none" stroke="black" d="M183.99,-249.18C187.5,-250.94 191.53,-252.84 195.31,-254.31 248.41,-274.94 265.22,-269.68 318.31,-290.31 320.44,-291.14 322.65,-292.1 324.8,-293.1"/>
<polygon fill="black" stroke="black" points="324.38,-294.84 329.64,-295.44 325.9,-291.69 324.38,-294.84"/>
</g>
<!-- 17&#45;&gt;21 -->
<g id="edge49" class="edge">
<title>17&#45;&gt;21</title>
<path fill="none" stroke="black" d="M58.72,-311.47C65.5,-320.83 76.26,-335.7 83.98,-346.36"/>
<polygon fill="black" stroke="black" points="82.74,-347.63 87.09,-350.65 85.57,-345.57 82.74,-347.63"/>
</g>
<!-- 35 -->
<g id="node35" class="node">
<title>35</title>
<ellipse fill="none" stroke="black" cx="216.31" cy="-360.25" rx="11.13" ry="11.13"/>
<text text-anchor="middle" x="216.31" y="-357.15" font-family="DejaVu Serif,serif" font-size="12.00">35</text>
</g>
<!-- 17&#45;&gt;35 -->
<g id="edge50" class="edge">
<title>17&#45;&gt;35</title>
<path fill="none" stroke="black" d="M61.99,-307.8C65.5,-309.56 69.53,-311.46 73.31,-312.94 125.99,-333.47 142.64,-328.4 195.31,-348.94 197.44,-349.77 199.65,-350.73 201.8,-351.73"/>
<polygon fill="black" stroke="black" points="201.38,-353.47 206.64,-354.07 202.9,-350.32 201.38,-353.47"/>
</g>
<!-- 18&#45;&gt;19 -->
<g id="edge51" class="edge">
<title>18&#45;&gt;19</title>
<path fill="none" stroke="black" d="M205.52,-248.89C202,-250.63 197.99,-252.58 194.31,-254.31 159.03,-270.9 149.59,-273.71 114.31,-290.31 112.25,-291.28 110.07,-292.32 107.94,-293.36"/>
<polygon fill="black" stroke="black" points="106.83,-291.96 103.11,-295.73 108.37,-295.1 106.83,-291.96"/>
</g>
<!-- 18&#45;&gt;20 -->
<g id="edge52" class="edge">
<title>18&#45;&gt;20</title>
<path fill="none" stroke="black" d="M206.34,-250.27C192.18,-260.17 164.58,-279.47 147.96,-291.08"/>
<polygon fill="black" stroke="black" points="146.68,-289.84 143.58,-294.14 148.68,-292.71 146.68,-289.84"/>
</g>
<!-- 36 -->
<g id="node36" class="node">
<title>36</title>
<ellipse fill="none" stroke="black" cx="380.31" cy="-301.62" rx="11.13" ry="11.13"/>
<text text-anchor="middle" x="380.31" y="-298.52" font-family="DejaVu Serif,serif" font-size="12.00">36</text>
</g>
<!-- 18&#45;&gt;36 -->
<g id="edge53" class="edge">
<title>18&#45;&gt;36</title>
<path fill="none" stroke="black" d="M224.99,-249.18C228.5,-250.94 232.53,-252.84 236.31,-254.31 289.41,-274.94 306.22,-269.68 359.31,-290.31 361.44,-291.14 363.65,-292.1 365.8,-293.1"/>
<polygon fill="black" stroke="black" points="365.38,-294.84 370.64,-295.44 366.9,-291.69 365.38,-294.84"/>
</g>
<!-- 19&#45;&gt;21 -->
<g id="edge54" class="edge">
<title>19&#45;&gt;21</title>
<path fill="none" stroke="black" d="M93.31,-313.01C93.31,-321.63 93.31,-334.02 93.31,-343.8"/>
<polygon fill="black" stroke="black" points="91.56,-343.93 93.31,-348.93 95.06,-343.93 91.56,-343.93"/>
</g>
<!-- 37 -->
<g id="node37" class="node">
<title>37</title>
<ellipse fill="none" stroke="black" cx="257.31" cy="-360.25" rx="11.13" ry="11.13"/>
<text text-anchor="middle" x="257.31" y="-357.15" font-family="DejaVu Serif,serif" font-size="12.00">37</text>
</g>
<!-- 19&#45;&gt;37 -->
<g id="edge55" class="edge">
<title>19&#45;&gt;37</title>
<path fill="none" stroke="black" d="M102.99,-307.8C106.5,-309.56 110.53,-311.46 114.31,-312.94 166.99,-333.47 183.64,-328.4 236.31,-348.94 238.44,-349.77 240.65,-350.73 242.8,-351.73"/>
<polygon fill="black" stroke="black" points="242.38,-353.47 247.64,-354.07 243.9,-350.32 242.38,-353.47"/>
</g>
<!-- 20&#45;&gt;21 -->
<g id="edge56" class="edge">
<title>20&#45;&gt;21</title>
<path fill="none" stroke="black" d="M127.91,-311.47C121.13,-320.83 110.36,-335.7 102.64,-346.36"/>
<polygon fill="black" stroke="black" points="101.06,-345.57 99.54,-350.65 103.89,-347.63 101.06,-345.57"/>
</g>
<!-- 38 -->
<g id="node38" class="node">
<title>38</title>
<ellipse fill="none" stroke="black" cx="298.31" cy="-360.25" rx="11.13" ry="11.13"/>
<text text-anchor="middle" x="298.31" y="-357.15" font-family="DejaVu Serif,serif" font-size="12.00">38</text>
</g>
<!-- 20&#45;&gt;38 -->
<g id="edge57" class="edge">
<title>20&#45;&gt;38</title>
<path fill="none" stroke="black" d="M143.99,-307.8C147.5,-309.56 151.53,-311.46 155.31,-312.94 207.99,-333.47 224.64,-328.4 277.31,-348.94 279.44,-349.77 281.65,-350.73 283.8,-351.73"/>
<polygon fill="black" stroke="black" points="283.38,-353.47 288.64,-354.07 284.9,-350.32 283.38,-353.47"/>
</g>
<!-- 39 -->
<g id="node39" class="node">
<title>39</title>
<ellipse fill="none" stroke="black" cx="216.31" cy="-418.88" rx="11.13" ry="11.13"/>
<text text-anchor="middle" x="216.31" y="-415.78" font-family="DejaVu Serif,serif" font-size="12.00">39</text>
</g>
<!-- 21&#45;&gt;39 -->
<g id="edge58" class="edge">
<title>21&#45;&gt;39</title>
<path fill="none" stroke="black" d="M103.38,-365.88C125,-375.84 175.98,-399.31 201.39,-411"/>
<polygon fill="black" stroke="black" points="200.84,-412.68 206.11,-413.18 202.3,-409.5 200.84,-412.68"/>
</g>
<!-- 22&#45;&gt;23 -->
<g id="edge59" class="edge">
<title>22&#45;&gt;23</title>
<path fill="none" stroke="black" d="M276.31,-137.13C276.31,-145.75 276.31,-158.14 276.31,-167.92"/>
<polygon fill="black" stroke="black" points="274.56,-168.05 276.31,-173.05 278.06,-168.05 274.56,-168.05"/>
</g>
<!-- 22&#45;&gt;31 -->
<g id="edge60" class="edge">
<title>22&#45;&gt;31</title>
<path fill="none" stroke="black" d="M282.72,-135.59C289.5,-144.95 300.26,-159.82 307.98,-170.48"/>
<polygon fill="black" stroke="black" points="306.74,-171.74 311.09,-174.77 309.57,-169.69 306.74,-171.74"/>
</g>
<!-- 23&#45;&gt;24 -->
<g id="edge61" class="edge">
<title>23&#45;&gt;24</title>
<path fill="none" stroke="black" d="M272.83,-195.23C269.74,-203.97 265.19,-216.87 261.64,-226.91"/>
<polygon fill="black" stroke="black" points="259.91,-226.57 259.89,-231.86 263.21,-227.73 259.91,-226.57"/>
</g>
<!-- 23&#45;&gt;25 -->
<g id="edge62" class="edge">
<title>23&#45;&gt;25</title>
<path fill="none" stroke="black" d="M279.97,-195.23C283.25,-204.08 288.12,-217.19 291.86,-227.28"/>
<polygon fill="black" stroke="black" points="290.32,-228.16 293.7,-232.24 293.6,-226.95 290.32,-228.16"/>
</g>
<!-- 23&#45;&gt;27 -->
<g id="edge63" class="edge">
<title>23&#45;&gt;27</title>
<path fill="none" stroke="black" d="M284.17,-192.54C294.82,-202.27 313.96,-219.75 326.39,-231.11"/>
<polygon fill="black" stroke="black" points="325.46,-232.62 330.33,-234.7 327.82,-230.04 325.46,-232.62"/>
</g>
<!-- 23&#45;&gt;32 -->
<g id="edge64" class="edge">
<title>23&#45;&gt;32</title>
<path fill="none" stroke="black" d="M285.82,-190.59C304.06,-200.62 344.06,-222.61 365.34,-234.31"/>
<polygon fill="black" stroke="black" points="364.61,-235.91 369.83,-236.78 366.29,-232.84 364.61,-235.91"/>
</g>
<!-- 24&#45;&gt;26 -->
<g id="edge65" class="edge">
<title>24&#45;&gt;26</title>
<path fill="none" stroke="black" d="M247.34,-250.27C233.18,-260.17 205.58,-279.47 188.96,-291.08"/>
<polygon fill="black" stroke="black" points="187.68,-289.84 184.58,-294.14 189.68,-292.71 187.68,-289.84"/>
</g>
<!-- 24&#45;&gt;28 -->
<g id="edge66" class="edge">
<title>24&#45;&gt;28</title>
<path fill="none" stroke="black" d="M250.06,-252.84C243.45,-262.21 232.95,-277.07 225.42,-287.74"/>
<polygon fill="black" stroke="black" points="223.84,-286.93 222.39,-292.02 226.7,-288.95 223.84,-286.93"/>
</g>
<!-- 24&#45;&gt;33 -->
<g id="edge67" class="edge">
<title>24&#45;&gt;33</title>
<path fill="none" stroke="black" d="M256.5,-254.38C256.65,-263 256.87,-275.39 257.04,-285.17"/>
<polygon fill="black" stroke="black" points="255.29,-285.33 257.13,-290.3 258.79,-285.27 255.29,-285.33"/>
</g>
<!-- 25&#45;&gt;26 -->
<g id="edge68" class="edge">
<title>25&#45;&gt;26</title>
<path fill="none" stroke="black" d="M287.52,-248.89C284,-250.63 279.99,-252.58 276.31,-254.31 241.03,-270.9 231.59,-273.71 196.31,-290.31 194.25,-291.28 192.07,-292.32 189.94,-293.36"/>
<polygon fill="black" stroke="black" points="188.83,-291.96 185.11,-295.73 190.37,-295.1 188.83,-291.96"/>
</g>
<!-- 25&#45;&gt;29 -->
<g id="edge69" class="edge">
<title>25&#45;&gt;29</title>
<path fill="none" stroke="black" d="M297.5,-254.38C297.65,-263 297.87,-275.39 298.04,-285.17"/>
<polygon fill="black" stroke="black" points="296.29,-285.33 298.13,-290.3 299.79,-285.27 296.29,-285.33"/>
</g>
<!-- 25&#45;&gt;34 -->
<g id="edge70" class="edge">
<title>25&#45;&gt;34</title>
<path fill="none" stroke="black" d="M303.88,-252.84C310.82,-262.21 321.85,-277.07 329.76,-287.74"/>
<polygon fill="black" stroke="black" points="328.55,-289.05 332.93,-292.02 331.36,-286.96 328.55,-289.05"/>
</g>
<!-- 26&#45;&gt;30 -->
<g id="edge71" class="edge">
<title>26&#45;&gt;30</title>
<path fill="none" stroke="black" d="M175.31,-313.01C175.31,-321.63 175.31,-334.02 175.31,-343.8"/>
<polygon fill="black" stroke="black" points="173.56,-343.93 175.31,-348.93 177.06,-343.93 173.56,-343.93"/>
</g>
<!-- 26&#45;&gt;35 -->
<g id="edge72" class="edge">
<title>26&#45;&gt;35</title>
<path fill="none" stroke="black" d="M181.72,-311.47C188.5,-320.83 199.26,-335.7 206.98,-346.36"/>
<polygon fill="black" stroke="black" points="205.74,-347.63 210.09,-350.65 208.57,-345.57 205.74,-347.63"/>
</g>
<!-- 27&#45;&gt;28 -->
<g id="edge73" class="edge">
<title>27&#45;&gt;28</title>
<path fill="none" stroke="black" d="M328.52,-248.89C325,-250.63 320.99,-252.58 317.31,-254.31 282.03,-270.9 272.59,-273.71 237.31,-290.31 235.25,-291.28 233.07,-292.32 230.94,-293.36"/>
<polygon fill="black" stroke="black" points="229.83,-291.96 226.11,-295.73 231.37,-295.1 229.83,-291.96"/>
</g>
<!-- 27&#45;&gt;29 -->
<g id="edge74" class="edge">
<title>27&#45;&gt;29</title>
<path fill="none" stroke="black" d="M332.06,-252.84C325.45,-262.21 314.95,-277.07 307.42,-287.74"/>
<polygon fill="black" stroke="black" points="305.84,-286.93 304.39,-292.02 308.7,-288.95 305.84,-286.93"/>
</g>
<!-- 27&#45;&gt;36 -->
<g id="edge75" class="edge">
<title>27&#45;&gt;36</title>
<path fill="none" stroke="black" d="M344.88,-252.84C351.82,-262.21 362.85,-277.07 370.76,-287.74"/>
<polygon fill="black" stroke="black" points="369.55,-289.05 373.93,-292.02 372.36,-286.96 369.55,-289.05"/>
</g>
<!-- 28&#45;&gt;30 -->
<g id="edge76" class="edge">
<title>28&#45;&gt;30</title>
<path fill="none" stroke="black" d="M209.91,-311.47C203.13,-320.83 192.36,-335.7 184.64,-346.36"/>
<polygon fill="black" stroke="black" points="183.06,-345.57 181.54,-350.65 185.89,-347.63 183.06,-345.57"/>
</g>
<!-- 28&#45;&gt;37 -->
<g id="edge77" class="edge">
<title>28&#45;&gt;37</title>
<path fill="none" stroke="black" d="M222.72,-311.47C229.5,-320.83 240.26,-335.7 247.98,-346.36"/>
<polygon fill="black" stroke="black" points="246.74,-347.63 251.09,-350.65 249.57,-345.57 246.74,-347.63"/>
</g>
<!-- 29&#45;&gt;30 -->
<g id="edge78" class="edge">
<title>29&#45;&gt;30</title>
<path fill="none" stroke="black" d="M288.52,-307.53C285,-309.27 280.99,-311.22 277.31,-312.94 241.63,-329.62 232,-332.25 196.31,-348.94 194.24,-349.9 192.07,-350.94 189.94,-351.98"/>
<polygon fill="black" stroke="black" points="188.83,-350.57 185.11,-354.34 190.37,-353.72 188.83,-350.57"/>
</g>
<!-- 29&#45;&gt;38 -->
<g id="edge79" class="edge">
<title>29&#45;&gt;38</title>
<path fill="none" stroke="black" d="M298.31,-313.01C298.31,-321.63 298.31,-334.02 298.31,-343.8"/>
<polygon fill="black" stroke="black" points="296.56,-343.93 298.31,-348.93 300.06,-343.93 296.56,-343.93"/>
</g>
<!-- 30&#45;&gt;39 -->
<g id="edge80" class="edge">
<title>30&#45;&gt;39</title>
<path fill="none" stroke="black" d="M181.72,-370.1C188.5,-379.46 199.26,-394.33 206.98,-404.99"/>
<polygon fill="black" stroke="black" points="205.74,-406.25 210.09,-409.28 208.57,-404.2 205.74,-406.25"/>
</g>
<!-- 31&#45;&gt;32 -->
<g id="edge81" class="edge">
<title>31&#45;&gt;32</title>
<path fill="none" stroke="black" d="M325.17,-192.54C335.82,-202.27 354.96,-219.75 367.39,-231.11"/>
<polygon fill="black" stroke="black" points="366.46,-232.62 371.33,-234.7 368.82,-230.04 366.46,-232.62"/>
</g>
<!-- 32&#45;&gt;33 -->
<g id="edge82" class="edge">
<title>32&#45;&gt;33</title>
<path fill="none" stroke="black" d="M369.52,-248.89C366,-250.63 361.99,-252.58 358.31,-254.31 323.03,-270.9 313.59,-273.71 278.31,-290.31 276.25,-291.28 274.07,-292.32 271.94,-293.36"/>
<polygon fill="black" stroke="black" points="270.83,-291.96 267.11,-295.73 272.37,-295.1 270.83,-291.96"/>
</g>
<!-- 32&#45;&gt;34 -->
<g id="edge83" class="edge">
<title>32&#45;&gt;34</title>
<path fill="none" stroke="black" d="M373.06,-252.84C366.45,-262.21 355.95,-277.07 348.42,-287.74"/>
<polygon fill="black" stroke="black" points="346.84,-286.93 345.39,-292.02 349.7,-288.95 346.84,-286.93"/>
</g>
<!-- 32&#45;&gt;36 -->
<g id="edge84" class="edge">
<title>32&#45;&gt;36</title>
<path fill="none" stroke="black" d="M379.5,-254.38C379.65,-263 379.87,-275.39 380.04,-285.17"/>
<polygon fill="black" stroke="black" points="378.29,-285.33 380.13,-290.3 381.79,-285.27 378.29,-285.33"/>
</g>
<!-- 33&#45;&gt;35 -->
<g id="edge85" class="edge">
<title>33&#45;&gt;35</title>
<path fill="none" stroke="black" d="M250.91,-311.47C244.13,-320.83 233.36,-335.7 225.64,-346.36"/>
<polygon fill="black" stroke="black" points="224.06,-345.57 222.54,-350.65 226.89,-347.63 224.06,-345.57"/>
</g>
<!-- 33&#45;&gt;37 -->
<g id="edge86" class="edge">
<title>33&#45;&gt;37</title>
<path fill="none" stroke="black" d="M257.31,-313.01C257.31,-321.63 257.31,-334.02 257.31,-343.8"/>
<polygon fill="black" stroke="black" points="255.56,-343.93 257.31,-348.93 259.06,-343.93 255.56,-343.93"/>
</g>
<!-- 34&#45;&gt;35 -->
<g id="edge87" class="edge">
<title>34&#45;&gt;35</title>
<path fill="none" stroke="black" d="M329.52,-307.53C326,-309.27 321.99,-311.22 318.31,-312.94 282.63,-329.62 273,-332.25 237.31,-348.94 235.24,-349.9 233.07,-350.94 230.94,-351.98"/>
<polygon fill="black" stroke="black" points="229.83,-350.57 226.11,-354.34 231.37,-353.72 229.83,-350.57"/>
</g>
<!-- 34&#45;&gt;38 -->
<g id="edge88" class="edge">
<title>34&#45;&gt;38</title>
<path fill="none" stroke="black" d="M332.91,-311.47C326.13,-320.83 315.36,-335.7 307.64,-346.36"/>
<polygon fill="black" stroke="black" points="306.06,-345.57 304.54,-350.65 308.89,-347.63 306.06,-345.57"/>
</g>
<!-- 35&#45;&gt;39 -->
<g id="edge89" class="edge">
<title>35&#45;&gt;39</title>
<path fill="none" stroke="black" d="M216.31,-371.64C216.31,-380.26 216.31,-392.64 216.31,-402.43"/>
<polygon fill="black" stroke="black" points="214.56,-402.56 216.31,-407.56 218.06,-402.56 214.56,-402.56"/>
</g>
<!-- 36&#45;&gt;37 -->
<g id="edge90" class="edge">
<title>36&#45;&gt;37</title>
<path fill="none" stroke="black" d="M370.52,-307.53C367,-309.27 362.99,-311.22 359.31,-312.94 323.63,-329.62 314,-332.25 278.31,-348.94 276.24,-349.9 274.07,-350.94 271.94,-351.98"/>
<polygon fill="black" stroke="black" points="270.83,-350.57 267.11,-354.34 272.37,-353.72 270.83,-350.57"/>
</g>
<!-- 36&#45;&gt;38 -->
<g id="edge91" class="edge">
<title>36&#45;&gt;38</title>
<path fill="none" stroke="black" d="M371.22,-308.9C356.74,-318.9 328.35,-338.51 311.59,-350.08"/>
<polygon fill="black" stroke="black" points="310.31,-348.84 307.19,-353.12 312.3,-351.72 310.31,-348.84"/>
</g>
<!-- 37&#45;&gt;39 -->
<g id="edge92" class="edge">
<title>37&#45;&gt;39</title>
<path fill="none" stroke="black" d="M250.91,-370.1C244.13,-379.46 233.36,-394.33 225.64,-404.99"/>
<polygon fill="black" stroke="black" points="224.06,-404.2 222.54,-409.28 226.89,-406.25 224.06,-404.2"/>
</g>
<!-- 38&#45;&gt;39 -->
<g id="edge93" class="edge">
<title>38&#45;&gt;39</title>
<path fill="none" stroke="black" d="M289.22,-367.53C274.74,-377.53 246.35,-397.13 229.59,-408.71"/>
<polygon fill="black" stroke="black" points="228.31,-407.46 225.19,-411.74 230.3,-410.34 228.31,-407.46"/>
</g>
</g>
</svg>
