<?xml version="1.0" encoding="UTF-8" standalone="no"?>
<!DOCTYPE svg PUBLIC "-//W3C//DTD SVG 1.1//EN"
 "http://www.w3.org/Graphics/SVG/1.1/DTD/svg11.dtd">
<!-- Generated by graphviz version 3.0.0 (20220226.1711)
 -->
<!-- Title: subobject_lattice Pages: 1 -->
<svg width="400pt" height="437pt"
 viewBox="0.00 0.00 399.63 436.78" xmlns="http://www.w3.org/2000/svg" xmlns:xlink="http://www.w3.org/1999/xlink">
<g id="graph0" class="graph" transform="scale(1 1) rotate(0) translate(4 432.78)">
<title>subobject_lattice</title>
<polygon fill="white" stroke="transparent" points="-4,4 -4,-432.78 395.63,-432.78 395.63,4 -4,4"/>
<!-- 1 -->
<g id="node1" class="node">
<title>1</title>
<ellipse fill="none" stroke="black" cx="235.31" cy="-10.61" rx="10.71" ry="10.71"/>
<text text-anchor="middle" x="235.31" y="-7.51" font-family="DejaVu Serif,serif" font-size="12.00">1</text>
</g>
<!-- 2 -->
<g id="node2" class="node">
<title>2</title>
<ellipse fill="none" stroke="black" cx="216.31" cy="-67.82" rx="10.71" ry="10.71"/>
<text text-anchor="middle" x="216.31" y="-64.72" font-family="DejaVu Serif,serif" font-size="12.00">2</text>
</g>
<!-- 2&#45;&gt;1 -->
<g id="edge1" class="edge">
<title>2&#45;&gt;1</title>
<path fill="none" stroke="black" d="M219.54,-57.45C222.53,-48.76 227.03,-35.68 230.46,-25.72"/>
<polygon fill="black" stroke="black" points="232.17,-26.13 232.14,-20.83 228.86,-24.99 232.17,-26.13"/>
</g>
<!-- 3 -->
<g id="node3" class="node">
<title>3</title>
<ellipse fill="none" stroke="black" cx="156.31" cy="-125.03" rx="10.71" ry="10.71"/>
<text text-anchor="middle" x="156.31" y="-121.93" font-family="DejaVu Serif,serif" font-size="12.00">3</text>
</g>
<!-- 3&#45;&gt;2 -->
<g id="edge2" class="edge">
<title>3&#45;&gt;2</title>
<path fill="none" stroke="black" d="M163.67,-117.26C174.02,-107.74 192.95,-90.32 205.07,-79.17"/>
<polygon fill="black" stroke="black" points="206.4,-80.32 208.9,-75.65 204.03,-77.74 206.4,-80.32"/>
</g>
<!-- 4 -->
<g id="node4" class="node">
<title>4</title>
<ellipse fill="none" stroke="black" cx="256.31" cy="-67.82" rx="10.71" ry="10.71"/>
<text text-anchor="middle" x="256.31" y="-64.72" font-family="DejaVu Serif,serif" font-size="12.00">4</text>
</g>
<!-- 4&#45;&gt;1 -->
<g id="edge3" class="edge">
<title>4&#45;&gt;1</title>
<path fill="none" stroke="black" d="M252.85,-57.7C249.55,-49.04 244.55,-35.89 240.73,-25.85"/>
<polygon fill="black" stroke="black" points="242.27,-24.97 238.86,-20.92 239,-26.22 242.27,-24.97"/>
</g>
<!-- 5 -->
<g id="node5" class="node">
<title>5</title>
<ellipse fill="none" stroke="black" cx="257.31" cy="-125.03" rx="10.71" ry="10.71"/>
<text text-anchor="middle" x="257.31" y="-121.93" font-family="DejaVu Serif,serif" font-size="12.00">5</text>
</g>
<!-- 5&#45;&gt;4 -->
<g id="edge4" class="edge">
<title>5&#45;&gt;4</title>
<path fill="none" stroke="black" d="M257.14,-114.42C256.99,-105.97 256.76,-93.54 256.58,-83.8"/>
<polygon fill="black" stroke="black" points="258.33,-83.67 256.49,-78.7 254.83,-83.73 258.33,-83.67"/>
</g>
<!-- 6 -->
<g id="node6" class="node">
<title>6</title>
<ellipse fill="none" stroke="black" cx="298.31" cy="-125.03" rx="10.71" ry="10.71"/>
<text text-anchor="middle" x="298.31" y="-121.93" font-family="DejaVu Serif,serif" font-size="12.00">6</text>
</g>
<!-- 6&#45;&gt;4 -->
<g id="edge5" class="edge">
<title>6&#45;&gt;4</title>
<path fill="none" stroke="black" d="M292.12,-115.89C285.09,-106.65 273.56,-91.49 265.49,-80.88"/>
<polygon fill="black" stroke="black" points="266.68,-79.56 262.26,-76.64 263.9,-81.68 266.68,-79.56"/>
</g>
<!-- 7 -->
<g id="node7" class="node">
<title>7</title>
<ellipse fill="none" stroke="black" cx="338.31" cy="-182.95" rx="10.71" ry="10.71"/>
<text text-anchor="middle" x="338.31" y="-179.85" font-family="DejaVu Serif,serif" font-size="12.00">7</text>
</g>
<!-- 7&#45;&gt;5 -->
<g id="edge6" class="edge">
<title>7&#45;&gt;5</title>
<path fill="none" stroke="black" d="M329.95,-176.18C315.76,-166.38 286.89,-146.45 270.14,-134.88"/>
<polygon fill="black" stroke="black" points="270.86,-133.26 265.75,-131.86 268.87,-136.14 270.86,-133.26"/>
</g>
<!-- 7&#45;&gt;6 -->
<g id="edge7" class="edge">
<title>7&#45;&gt;6</title>
<path fill="none" stroke="black" d="M332.41,-173.7C325.79,-164.45 314.99,-149.34 307.32,-138.62"/>
<polygon fill="black" stroke="black" points="308.57,-137.37 304.24,-134.32 305.73,-139.4 308.57,-137.37"/>
</g>
<!-- 8 -->
<g id="node8" class="node">
<title>8</title>
<ellipse fill="none" stroke="black" cx="216.31" cy="-125.03" rx="10.71" ry="10.71"/>
<text text-anchor="middle" x="216.31" y="-121.93" font-family="DejaVu Serif,serif" font-size="12.00">8</text>
</g>
<!-- 8&#45;&gt;2 -->
<g id="edge8" class="edge">
<title>8&#45;&gt;2</title>
<path fill="none" stroke="black" d="M216.31,-114.42C216.31,-105.97 216.31,-93.54 216.31,-83.8"/>
<polygon fill="black" stroke="black" points="218.06,-83.7 216.31,-78.7 214.56,-83.7 218.06,-83.7"/>
</g>
<!-- 8&#45;&gt;4 -->
<g id="edge9" class="edge">
<title>8&#45;&gt;4</title>
<path fill="none" stroke="black" d="M222.22,-115.89C228.83,-106.75 239.64,-91.84 247.31,-81.24"/>
<polygon fill="black" stroke="black" points="248.87,-82.08 250.39,-77 246.04,-80.02 248.87,-82.08"/>
</g>
<!-- 9 -->
<g id="node9" class="node">
<title>9</title>
<ellipse fill="none" stroke="black" cx="114.31" cy="-182.95" rx="10.71" ry="10.71"/>
<text text-anchor="middle" x="114.31" y="-179.85" font-family="DejaVu Serif,serif" font-size="12.00">9</text>
</g>
<!-- 9&#45;&gt;3 -->
<g id="edge10" class="edge">
<title>9&#45;&gt;3</title>
<path fill="none" stroke="black" d="M120.51,-173.7C127.6,-164.26 139.27,-148.72 147.35,-137.96"/>
<polygon fill="black" stroke="black" points="148.76,-139 150.36,-133.96 145.96,-136.9 148.76,-139"/>
</g>
<!-- 9&#45;&gt;8 -->
<g id="edge11" class="edge">
<title>9&#45;&gt;8</title>
<path fill="none" stroke="black" d="M123.37,-176.99C141.41,-167.1 181.92,-144.89 203,-133.33"/>
<polygon fill="black" stroke="black" points="203.88,-134.84 207.43,-130.9 202.2,-131.77 203.88,-134.84"/>
</g>
<!-- 10 -->
<g id="node10" class="node">
<title>10</title>
<ellipse fill="none" stroke="black" cx="175.31" cy="-182.95" rx="11.13" ry="11.13"/>
<text text-anchor="middle" x="175.31" y="-179.85" font-family="DejaVu Serif,serif" font-size="12.00">10</text>
</g>
<!-- 10&#45;&gt;8 -->
<g id="edge12" class="edge">
<title>10&#45;&gt;8</title>
<path fill="none" stroke="black" d="M181.72,-173.22C188.58,-163.86 199.51,-148.95 207.25,-138.39"/>
<polygon fill="black" stroke="black" points="208.81,-139.23 210.35,-134.16 205.98,-137.16 208.81,-139.23"/>
</g>
<!-- 11 -->
<g id="node11" class="node">
<title>11</title>
<ellipse fill="none" stroke="black" cx="11.31" cy="-241.58" rx="11.13" ry="11.13"/>
<text text-anchor="middle" x="11.31" y="-238.48" font-family="DejaVu Serif,serif" font-size="12.00">11</text>
</g>
<!-- 11&#45;&gt;9 -->
<g id="edge13" class="edge">
<title>11&#45;&gt;9</title>
<path fill="none" stroke="black" d="M20.82,-235.35C39.25,-225.22 79.87,-202.89 100.98,-191.28"/>
<polygon fill="black" stroke="black" points="101.88,-192.79 105.42,-188.84 100.2,-189.72 101.88,-192.79"/>
</g>
<!-- 11&#45;&gt;10 -->
<g id="edge14" class="edge">
<title>11&#45;&gt;10</title>
<path fill="none" stroke="black" d="M21.01,-235.46C24.52,-233.7 28.55,-231.79 32.31,-230.27 77.44,-211.99 132.74,-195.75 159.42,-188.29"/>
<polygon fill="black" stroke="black" points="160.01,-189.94 164.36,-186.92 159.08,-186.57 160.01,-189.94"/>
</g>
<!-- 12 -->
<g id="node12" class="node">
<title>12</title>
<ellipse fill="none" stroke="black" cx="216.31" cy="-182.95" rx="11.13" ry="11.13"/>
<text text-anchor="middle" x="216.31" y="-179.85" font-family="DejaVu Serif,serif" font-size="12.00">12</text>
</g>
<!-- 12&#45;&gt;8 -->
<g id="edge15" class="edge">
<title>12&#45;&gt;8</title>
<path fill="none" stroke="black" d="M216.31,-171.44C216.31,-162.79 216.31,-150.43 216.31,-140.79"/>
<polygon fill="black" stroke="black" points="218.06,-140.76 216.31,-135.76 214.56,-140.76 218.06,-140.76"/>
</g>
<!-- 13 -->
<g id="node13" class="node">
<title>13</title>
<ellipse fill="none" stroke="black" cx="52.31" cy="-241.58" rx="11.13" ry="11.13"/>
<text text-anchor="middle" x="52.31" y="-238.48" font-family="DejaVu Serif,serif" font-size="12.00">13</text>
</g>
<!-- 13&#45;&gt;9 -->
<g id="edge16" class="edge">
<title>13&#45;&gt;9</title>
<path fill="none" stroke="black" d="M60.17,-233.41C70.94,-223.57 90.38,-205.81 102.8,-194.47"/>
<polygon fill="black" stroke="black" points="104.21,-195.55 106.72,-190.89 101.85,-192.97 104.21,-195.55"/>
</g>
<!-- 13&#45;&gt;12 -->
<g id="edge17" class="edge">
<title>13&#45;&gt;12</title>
<path fill="none" stroke="black" d="M61.99,-235.4C65.5,-233.64 69.53,-231.74 73.31,-230.27 125.99,-209.73 142.64,-214.8 195.31,-194.27 197.44,-193.44 199.65,-192.47 201.8,-191.48"/>
<polygon fill="black" stroke="black" points="202.9,-192.89 206.64,-189.13 201.38,-189.74 202.9,-192.89"/>
</g>
<!-- 14 -->
<g id="node14" class="node">
<title>14</title>
<ellipse fill="none" stroke="black" cx="175.31" cy="-241.58" rx="11.13" ry="11.13"/>
<text text-anchor="middle" x="175.31" y="-238.48" font-family="DejaVu Serif,serif" font-size="12.00">14</text>
</g>
<!-- 14&#45;&gt;10 -->
<g id="edge18" class="edge">
<title>14&#45;&gt;10</title>
<path fill="none" stroke="black" d="M175.31,-230.19C175.31,-221.57 175.31,-209.19 175.31,-199.4"/>
<polygon fill="black" stroke="black" points="177.06,-199.27 175.31,-194.27 173.56,-199.27 177.06,-199.27"/>
</g>
<!-- 14&#45;&gt;12 -->
<g id="edge19" class="edge">
<title>14&#45;&gt;12</title>
<path fill="none" stroke="black" d="M181.72,-231.73C188.5,-222.37 199.26,-207.5 206.98,-196.84"/>
<polygon fill="black" stroke="black" points="208.57,-197.63 210.09,-192.55 205.74,-195.58 208.57,-197.63"/>
</g>
<!-- 15 -->
<g id="node15" class="node">
<title>15</title>
<ellipse fill="none" stroke="black" cx="11.31" cy="-300.21" rx="11.13" ry="11.13"/>
<text text-anchor="middle" x="11.31" y="-297.11" font-family="DejaVu Serif,serif" font-size="12.00">15</text>
</g>
<!-- 15&#45;&gt;11 -->
<g id="edge20" class="edge">
<title>15&#45;&gt;11</title>
<path fill="none" stroke="black" d="M11.31,-288.82C11.31,-280.2 11.31,-267.81 11.31,-258.03"/>
<polygon fill="black" stroke="black" points="13.06,-257.9 11.31,-252.9 9.56,-257.9 13.06,-257.9"/>
</g>
<!-- 15&#45;&gt;13 -->
<g id="edge21" class="edge">
<title>15&#45;&gt;13</title>
<path fill="none" stroke="black" d="M17.72,-290.36C24.5,-281 35.26,-266.13 42.98,-255.47"/>
<polygon fill="black" stroke="black" points="44.57,-256.26 46.09,-251.18 41.74,-254.2 44.57,-256.26"/>
</g>
<!-- 15&#45;&gt;14 -->
<g id="edge22" class="edge">
<title>15&#45;&gt;14</title>
<path fill="none" stroke="black" d="M20.99,-294.03C24.5,-292.27 28.53,-290.37 32.31,-288.89 84.99,-268.36 101.64,-273.43 154.31,-252.89 156.44,-252.06 158.65,-251.1 160.8,-250.1"/>
<polygon fill="black" stroke="black" points="161.9,-251.51 165.64,-247.76 160.38,-248.36 161.9,-251.51"/>
</g>
<!-- 16 -->
<g id="node16" class="node">
<title>16</title>
<ellipse fill="none" stroke="black" cx="257.31" cy="-182.95" rx="11.13" ry="11.13"/>
<text text-anchor="middle" x="257.31" y="-179.85" font-family="DejaVu Serif,serif" font-size="12.00">16</text>
</g>
<!-- 16&#45;&gt;5 -->
<g id="edge24" class="edge">
<title>16&#45;&gt;5</title>
<path fill="none" stroke="black" d="M257.31,-171.44C257.31,-162.79 257.31,-150.43 257.31,-140.79"/>
<polygon fill="black" stroke="black" points="259.06,-140.76 257.31,-135.76 255.56,-140.76 259.06,-140.76"/>
</g>
<!-- 16&#45;&gt;8 -->
<g id="edge23" class="edge">
<title>16&#45;&gt;8</title>
<path fill="none" stroke="black" d="M250.91,-173.22C244.05,-163.86 233.11,-148.95 225.37,-138.39"/>
<polygon fill="black" stroke="black" points="226.64,-137.16 222.28,-134.16 223.82,-139.23 226.64,-137.16"/>
</g>
<!-- 17 -->
<g id="node17" class="node">
<title>17</title>
<ellipse fill="none" stroke="black" cx="93.31" cy="-241.58" rx="11.13" ry="11.13"/>
<text text-anchor="middle" x="93.31" y="-238.48" font-family="DejaVu Serif,serif" font-size="12.00">17</text>
</g>
<!-- 17&#45;&gt;9 -->
<g id="edge25" class="edge">
<title>17&#45;&gt;9</title>
<path fill="none" stroke="black" d="M96.97,-230.72C100.32,-221.68 105.33,-208.19 109.1,-198.02"/>
<polygon fill="black" stroke="black" points="110.74,-198.62 110.84,-193.33 107.46,-197.41 110.74,-198.62"/>
</g>
<!-- 17&#45;&gt;16 -->
<g id="edge26" class="edge">
<title>17&#45;&gt;16</title>
<path fill="none" stroke="black" d="M102.99,-235.4C106.5,-233.64 110.53,-231.74 114.31,-230.27 166.99,-209.73 183.64,-214.8 236.31,-194.27 238.44,-193.44 240.65,-192.47 242.8,-191.48"/>
<polygon fill="black" stroke="black" points="243.9,-192.89 247.64,-189.13 242.38,-189.74 243.9,-192.89"/>
</g>
<!-- 18 -->
<g id="node18" class="node">
<title>18</title>
<ellipse fill="none" stroke="black" cx="216.31" cy="-241.58" rx="11.13" ry="11.13"/>
<text text-anchor="middle" x="216.31" y="-238.48" font-family="DejaVu Serif,serif" font-size="12.00">18</text>
</g>
<!-- 18&#45;&gt;10 -->
<g id="edge27" class="edge">
<title>18&#45;&gt;10</title>
<path fill="none" stroke="black" d="M209.91,-231.73C203.13,-222.37 192.36,-207.5 184.64,-196.84"/>
<polygon fill="black" stroke="black" points="185.89,-195.58 181.54,-192.55 183.06,-197.63 185.89,-195.58"/>
</g>
<!-- 18&#45;&gt;16 -->
<g id="edge28" class="edge">
<title>18&#45;&gt;16</title>
<path fill="none" stroke="black" d="M222.72,-231.73C229.5,-222.37 240.26,-207.5 247.98,-196.84"/>
<polygon fill="black" stroke="black" points="249.57,-197.63 251.09,-192.55 246.74,-195.58 249.57,-197.63"/>
</g>
<!-- 19 -->
<g id="node19" class="node">
<title>19</title>
<ellipse fill="none" stroke="black" cx="52.31" cy="-300.21" rx="11.13" ry="11.13"/>
<text text-anchor="middle" x="52.31" y="-297.11" font-family="DejaVu Serif,serif" font-size="12.00">19</text>
</g>
<!-- 19&#45;&gt;11 -->
<g id="edge29" class="edge">
<title>19&#45;&gt;11</title>
<path fill="none" stroke="black" d="M45.91,-290.36C39.13,-281 28.36,-266.13 20.64,-255.47"/>
<polygon fill="black" stroke="black" points="21.89,-254.2 17.54,-251.18 19.06,-256.26 21.89,-254.2"/>
</g>
<!-- 19&#45;&gt;17 -->
<g id="edge30" class="edge">
<title>19&#45;&gt;17</title>
<path fill="none" stroke="black" d="M58.72,-290.36C65.5,-281 76.26,-266.13 83.98,-255.47"/>
<polygon fill="black" stroke="black" points="85.57,-256.26 87.09,-251.18 82.74,-254.2 85.57,-256.26"/>
</g>
<!-- 19&#45;&gt;18 -->
<g id="edge31" class="edge">
<title>19&#45;&gt;18</title>
<path fill="none" stroke="black" d="M61.99,-294.03C65.5,-292.27 69.53,-290.37 73.31,-288.89 125.99,-268.36 142.64,-273.43 195.31,-252.89 197.44,-252.06 199.65,-251.1 201.8,-250.1"/>
<polygon fill="black" stroke="black" points="202.9,-251.51 206.64,-247.76 201.38,-248.36 202.9,-251.51"/>
</g>
<!-- 20 -->
<g id="node20" class="node">
<title>20</title>
<ellipse fill="none" stroke="black" cx="257.31" cy="-241.58" rx="11.13" ry="11.13"/>
<text text-anchor="middle" x="257.31" y="-238.48" font-family="DejaVu Serif,serif" font-size="12.00">20</text>
</g>
<!-- 20&#45;&gt;12 -->
<g id="edge32" class="edge">
<title>20&#45;&gt;12</title>
<path fill="none" stroke="black" d="M250.91,-231.73C244.13,-222.37 233.36,-207.5 225.64,-196.84"/>
<polygon fill="black" stroke="black" points="226.89,-195.58 222.54,-192.55 224.06,-197.63 226.89,-195.58"/>
</g>
<!-- 20&#45;&gt;16 -->
<g id="edge33" class="edge">
<title>20&#45;&gt;16</title>
<path fill="none" stroke="black" d="M257.31,-230.19C257.31,-221.57 257.31,-209.19 257.31,-199.4"/>
<polygon fill="black" stroke="black" points="259.06,-199.27 257.31,-194.27 255.56,-199.27 259.06,-199.27"/>
</g>
<!-- 21 -->
<g id="node21" class="node">
<title>21</title>
<ellipse fill="none" stroke="black" cx="93.31" cy="-300.21" rx="11.13" ry="11.13"/>
<text text-anchor="middle" x="93.31" y="-297.11" font-family="DejaVu Serif,serif" font-size="12.00">21</text>
</g>
<!-- 21&#45;&gt;13 -->
<g id="edge34" class="edge">
<title>21&#45;&gt;13</title>
<path fill="none" stroke="black" d="M86.91,-290.36C80.13,-281 69.36,-266.13 61.64,-255.47"/>
<polygon fill="black" stroke="black" points="62.89,-254.2 58.54,-251.18 60.06,-256.26 62.89,-254.2"/>
</g>
<!-- 21&#45;&gt;17 -->
<g id="edge35" class="edge">
<title>21&#45;&gt;17</title>
<path fill="none" stroke="black" d="M93.31,-288.82C93.31,-280.2 93.31,-267.81 93.31,-258.03"/>
<polygon fill="black" stroke="black" points="95.06,-257.9 93.31,-252.9 91.56,-257.9 95.06,-257.9"/>
</g>
<!-- 21&#45;&gt;20 -->
<g id="edge36" class="edge">
<title>21&#45;&gt;20</title>
<path fill="none" stroke="black" d="M102.99,-294.03C106.5,-292.27 110.53,-290.37 114.31,-288.89 166.99,-268.36 183.64,-273.43 236.31,-252.89 238.44,-252.06 240.65,-251.1 242.8,-250.1"/>
<polygon fill="black" stroke="black" points="243.9,-251.51 247.64,-247.76 242.38,-248.36 243.9,-251.51"/>
</g>
<!-- 22 -->
<g id="node22" class="node">
<title>22</title>
<ellipse fill="none" stroke="black" cx="257.31" cy="-300.21" rx="11.13" ry="11.13"/>
<text text-anchor="middle" x="257.31" y="-297.11" font-family="DejaVu Serif,serif" font-size="12.00">22</text>
</g>
<!-- 22&#45;&gt;14 -->
<g id="edge37" class="edge">
<title>22&#45;&gt;14</title>
<path fill="none" stroke="black" d="M248.22,-292.93C233.74,-282.93 205.35,-263.33 188.59,-251.75"/>
<polygon fill="black" stroke="black" points="189.3,-250.11 184.19,-248.71 187.31,-252.99 189.3,-250.11"/>
</g>
<!-- 22&#45;&gt;18 -->
<g id="edge38" class="edge">
<title>22&#45;&gt;18</title>
<path fill="none" stroke="black" d="M250.91,-290.36C244.13,-281 233.36,-266.13 225.64,-255.47"/>
<polygon fill="black" stroke="black" points="226.89,-254.2 222.54,-251.18 224.06,-256.26 226.89,-254.2"/>
</g>
<!-- 22&#45;&gt;20 -->
<g id="edge39" class="edge">
<title>22&#45;&gt;20</title>
<path fill="none" stroke="black" d="M257.31,-288.82C257.31,-280.2 257.31,-267.81 257.31,-258.03"/>
<polygon fill="black" stroke="black" points="259.06,-257.9 257.31,-252.9 255.56,-257.9 259.06,-257.9"/>
</g>
<!-- 23 -->
<g id="node23" class="node">
<title>23</title>
<ellipse fill="none" stroke="black" cx="93.31" cy="-358.84" rx="11.13" ry="11.13"/>
<text text-anchor="middle" x="93.31" y="-355.74" font-family="DejaVu Serif,serif" font-size="12.00">23</text>
</g>
<!-- 23&#45;&gt;15 -->
<g id="edge40" class="edge">
<title>23&#45;&gt;15</title>
<path fill="none" stroke="black" d="M84.22,-351.56C69.74,-341.56 41.35,-321.95 24.59,-310.38"/>
<polygon fill="black" stroke="black" points="25.3,-308.74 20.19,-307.34 23.31,-311.62 25.3,-308.74"/>
</g>
<!-- 23&#45;&gt;19 -->
<g id="edge41" class="edge">
<title>23&#45;&gt;19</title>
<path fill="none" stroke="black" d="M86.91,-348.99C80.13,-339.62 69.36,-324.76 61.64,-314.09"/>
<polygon fill="black" stroke="black" points="62.89,-312.83 58.54,-309.81 60.06,-314.88 62.89,-312.83"/>
</g>
<!-- 23&#45;&gt;21 -->
<g id="edge42" class="edge">
<title>23&#45;&gt;21</title>
<path fill="none" stroke="black" d="M93.31,-347.45C93.31,-338.83 93.31,-326.44 93.31,-316.66"/>
<polygon fill="black" stroke="black" points="95.06,-316.53 93.31,-311.53 91.56,-316.53 95.06,-316.53"/>
</g>
<!-- 23&#45;&gt;22 -->
<g id="edge43" class="edge">
<title>23&#45;&gt;22</title>
<path fill="none" stroke="black" d="M102.99,-352.66C106.5,-350.89 110.53,-349 114.31,-347.52 166.99,-326.99 183.64,-332.06 236.31,-311.52 238.44,-310.69 240.65,-309.73 242.8,-308.73"/>
<polygon fill="black" stroke="black" points="243.9,-310.14 247.64,-306.39 242.38,-306.99 243.9,-310.14"/>
</g>
<!-- 24 -->
<g id="node24" class="node">
<title>24</title>
<ellipse fill="none" stroke="black" cx="298.31" cy="-182.95" rx="11.13" ry="11.13"/>
<text text-anchor="middle" x="298.31" y="-179.85" font-family="DejaVu Serif,serif" font-size="12.00">24</text>
</g>
<!-- 24&#45;&gt;6 -->
<g id="edge45" class="edge">
<title>24&#45;&gt;6</title>
<path fill="none" stroke="black" d="M298.31,-171.44C298.31,-162.79 298.31,-150.43 298.31,-140.79"/>
<polygon fill="black" stroke="black" points="300.06,-140.76 298.31,-135.76 296.56,-140.76 300.06,-140.76"/>
</g>
<!-- 24&#45;&gt;8 -->
<g id="edge44" class="edge">
<title>24&#45;&gt;8</title>
<path fill="none" stroke="black" d="M289.22,-175.76C274.59,-165.77 245.75,-146.11 229.07,-134.73"/>
<polygon fill="black" stroke="black" points="229.82,-133.13 224.7,-131.75 227.85,-136.02 229.82,-133.13"/>
</g>
<!-- 25 -->
<g id="node25" class="node">
<title>25</title>
<ellipse fill="none" stroke="black" cx="134.31" cy="-241.58" rx="11.13" ry="11.13"/>
<text text-anchor="middle" x="134.31" y="-238.48" font-family="DejaVu Serif,serif" font-size="12.00">25</text>
</g>
<!-- 25&#45;&gt;9 -->
<g id="edge46" class="edge">
<title>25&#45;&gt;9</title>
<path fill="none" stroke="black" d="M130.83,-230.72C127.67,-221.76 122.96,-208.43 119.38,-198.3"/>
<polygon fill="black" stroke="black" points="120.94,-197.46 117.62,-193.33 117.64,-198.63 120.94,-197.46"/>
</g>
<!-- 25&#45;&gt;24 -->
<g id="edge47" class="edge">
<title>25&#45;&gt;24</title>
<path fill="none" stroke="black" d="M143.99,-235.4C147.5,-233.64 151.53,-231.74 155.31,-230.27 207.99,-209.73 224.64,-214.8 277.31,-194.27 279.44,-193.44 281.65,-192.47 283.8,-191.48"/>
<polygon fill="black" stroke="black" points="284.9,-192.89 288.64,-189.13 283.38,-189.74 284.9,-192.89"/>
</g>
<!-- 26 -->
<g id="node26" class="node">
<title>26</title>
<ellipse fill="none" stroke="black" cx="298.31" cy="-241.58" rx="11.13" ry="11.13"/>
<text text-anchor="middle" x="298.31" y="-238.48" font-family="DejaVu Serif,serif" font-size="12.00">26</text>
</g>
<!-- 26&#45;&gt;10 -->
<g id="edge48" class="edge">
<title>26&#45;&gt;10</title>
<path fill="none" stroke="black" d="M288.52,-235.68C285,-233.94 280.99,-231.99 277.31,-230.27 241.63,-213.58 232,-210.95 196.31,-194.27 194.24,-193.3 192.07,-192.26 189.94,-191.22"/>
<polygon fill="black" stroke="black" points="190.37,-189.49 185.11,-188.86 188.83,-192.63 190.37,-189.49"/>
</g>
<!-- 26&#45;&gt;24 -->
<g id="edge49" class="edge">
<title>26&#45;&gt;24</title>
<path fill="none" stroke="black" d="M298.31,-230.19C298.31,-221.57 298.31,-209.19 298.31,-199.4"/>
<polygon fill="black" stroke="black" points="300.06,-199.27 298.31,-194.27 296.56,-199.27 300.06,-199.27"/>
</g>
<!-- 27 -->
<g id="node27" class="node">
<title>27</title>
<ellipse fill="none" stroke="black" cx="134.31" cy="-300.21" rx="11.13" ry="11.13"/>
<text text-anchor="middle" x="134.31" y="-297.11" font-family="DejaVu Serif,serif" font-size="12.00">27</text>
</g>
<!-- 27&#45;&gt;11 -->
<g id="edge50" class="edge">
<title>27&#45;&gt;11</title>
<path fill="none" stroke="black" d="M124.52,-294.3C121,-292.56 116.99,-290.61 113.31,-288.89 77.63,-272.21 68,-269.58 32.31,-252.89 30.24,-251.93 28.07,-250.89 25.94,-249.85"/>
<polygon fill="black" stroke="black" points="26.37,-248.11 21.11,-247.49 24.83,-251.26 26.37,-248.11"/>
</g>
<!-- 27&#45;&gt;25 -->
<g id="edge51" class="edge">
<title>27&#45;&gt;25</title>
<path fill="none" stroke="black" d="M134.31,-288.82C134.31,-280.2 134.31,-267.81 134.31,-258.03"/>
<polygon fill="black" stroke="black" points="136.06,-257.9 134.31,-252.9 132.56,-257.9 136.06,-257.9"/>
</g>
<!-- 27&#45;&gt;26 -->
<g id="edge52" class="edge">
<title>27&#45;&gt;26</title>
<path fill="none" stroke="black" d="M143.99,-294.03C147.5,-292.27 151.53,-290.37 155.31,-288.89 207.99,-268.36 224.64,-273.43 277.31,-252.89 279.44,-252.06 281.65,-251.1 283.8,-250.1"/>
<polygon fill="black" stroke="black" points="284.9,-251.51 288.64,-247.76 283.38,-248.36 284.9,-251.51"/>
</g>
<!-- 28 -->
<g id="node28" class="node">
<title>28</title>
<ellipse fill="none" stroke="black" cx="339.31" cy="-241.58" rx="11.13" ry="11.13"/>
<text text-anchor="middle" x="339.31" y="-238.48" font-family="DejaVu Serif,serif" font-size="12.00">28</text>
</g>
<!-- 28&#45;&gt;12 -->
<g id="edge53" class="edge">
<title>28&#45;&gt;12</title>
<path fill="none" stroke="black" d="M329.52,-235.68C326,-233.94 321.99,-231.99 318.31,-230.27 282.63,-213.58 273,-210.95 237.31,-194.27 235.24,-193.3 233.07,-192.26 230.94,-191.22"/>
<polygon fill="black" stroke="black" points="231.37,-189.49 226.11,-188.86 229.83,-192.63 231.37,-189.49"/>
</g>
<!-- 28&#45;&gt;24 -->
<g id="edge54" class="edge">
<title>28&#45;&gt;24</title>
<path fill="none" stroke="black" d="M332.91,-231.73C326.13,-222.37 315.36,-207.5 307.64,-196.84"/>
<polygon fill="black" stroke="black" points="308.89,-195.58 304.54,-192.55 306.06,-197.63 308.89,-195.58"/>
</g>
<!-- 29 -->
<g id="node29" class="node">
<title>29</title>
<ellipse fill="none" stroke="black" cx="175.31" cy="-300.21" rx="11.13" ry="11.13"/>
<text text-anchor="middle" x="175.31" y="-297.11" font-family="DejaVu Serif,serif" font-size="12.00">29</text>
</g>
<!-- 29&#45;&gt;13 -->
<g id="edge55" class="edge">
<title>29&#45;&gt;13</title>
<path fill="none" stroke="black" d="M165.52,-294.3C162,-292.56 157.99,-290.61 154.31,-288.89 118.63,-272.21 109,-269.58 73.31,-252.89 71.24,-251.93 69.07,-250.89 66.94,-249.85"/>
<polygon fill="black" stroke="black" points="67.37,-248.11 62.11,-247.49 65.83,-251.26 67.37,-248.11"/>
</g>
<!-- 29&#45;&gt;25 -->
<g id="edge56" class="edge">
<title>29&#45;&gt;25</title>
<path fill="none" stroke="black" d="M168.91,-290.36C162.13,-281 151.36,-266.13 143.64,-255.47"/>
<polygon fill="black" stroke="black" points="144.89,-254.2 140.54,-251.18 142.06,-256.26 144.89,-254.2"/>
</g>
<!-- 29&#45;&gt;28 -->
<g id="edge57" class="edge">
<title>29&#45;&gt;28</title>
<path fill="none" stroke="black" d="M184.99,-294.03C188.5,-292.27 192.53,-290.37 196.31,-288.89 248.99,-268.36 265.64,-273.43 318.31,-252.89 320.44,-252.06 322.65,-251.1 324.8,-250.1"/>
<polygon fill="black" stroke="black" points="325.9,-251.51 329.64,-247.76 324.38,-248.36 325.9,-251.51"/>
</g>
<!-- 30 -->
<g id="node30" class="node">
<title>30</title>
<ellipse fill="none" stroke="black" cx="298.31" cy="-300.21" rx="11.13" ry="11.13"/>
<text text-anchor="middle" x="298.31" y="-297.11" font-family="DejaVu Serif,serif" font-size="12.00">30</text>
</g>
<!-- 30&#45;&gt;14 -->
<g id="edge58" class="edge">
<title>30&#45;&gt;14</title>
<path fill="none" stroke="black" d="M288.52,-294.3C285,-292.56 280.99,-290.61 277.31,-288.89 241.63,-272.21 232,-269.58 196.31,-252.89 194.24,-251.93 192.07,-250.89 189.94,-249.85"/>
<polygon fill="black" stroke="black" points="190.37,-248.11 185.11,-247.49 188.83,-251.26 190.37,-248.11"/>
</g>
<!-- 30&#45;&gt;26 -->
<g id="edge59" class="edge">
<title>30&#45;&gt;26</title>
<path fill="none" stroke="black" d="M298.31,-288.82C298.31,-280.2 298.31,-267.81 298.31,-258.03"/>
<polygon fill="black" stroke="black" points="300.06,-257.9 298.31,-252.9 296.56,-257.9 300.06,-257.9"/>
</g>
<!-- 30&#45;&gt;28 -->
<g id="edge60" class="edge">
<title>30&#45;&gt;28</title>
<path fill="none" stroke="black" d="M304.72,-290.36C311.5,-281 322.26,-266.13 329.98,-255.47"/>
<polygon fill="black" stroke="black" points="331.57,-256.26 333.09,-251.18 328.74,-254.2 331.57,-256.26"/>
</g>
<!-- 31 -->
<g id="node31" class="node">
<title>31</title>
<ellipse fill="none" stroke="black" cx="134.31" cy="-358.84" rx="11.13" ry="11.13"/>
<text text-anchor="middle" x="134.31" y="-355.74" font-family="DejaVu Serif,serif" font-size="12.00">31</text>
</g>
<!-- 31&#45;&gt;15 -->
<g id="edge61" class="edge">
<title>31&#45;&gt;15</title>
<path fill="none" stroke="black" d="M124.52,-352.93C121,-351.19 116.99,-349.24 113.31,-347.52 77.63,-330.84 68,-328.21 32.31,-311.52 30.24,-310.55 28.07,-309.51 25.94,-308.48"/>
<polygon fill="black" stroke="black" points="26.37,-306.74 21.11,-306.11 24.83,-309.88 26.37,-306.74"/>
</g>
<!-- 31&#45;&gt;27 -->
<g id="edge62" class="edge">
<title>31&#45;&gt;27</title>
<path fill="none" stroke="black" d="M134.31,-347.45C134.31,-338.83 134.31,-326.44 134.31,-316.66"/>
<polygon fill="black" stroke="black" points="136.06,-316.53 134.31,-311.53 132.56,-316.53 136.06,-316.53"/>
</g>
<!-- 31&#45;&gt;29 -->
<g id="edge63" class="edge">
<title>31&#45;&gt;29</title>
<path fill="none" stroke="black" d="M140.72,-348.99C147.5,-339.62 158.26,-324.76 165.98,-314.09"/>
<polygon fill="black" stroke="black" points="167.57,-314.88 169.09,-309.81 164.74,-312.83 167.57,-314.88"/>
</g>
<!-- 31&#45;&gt;30 -->
<g id="edge64" class="edge">
<title>31&#45;&gt;30</title>
<path fill="none" stroke="black" d="M143.99,-352.66C147.5,-350.89 151.53,-349 155.31,-347.52 207.99,-326.99 224.64,-332.06 277.31,-311.52 279.44,-310.69 281.65,-309.73 283.8,-308.73"/>
<polygon fill="black" stroke="black" points="284.9,-310.14 288.64,-306.39 283.38,-306.99 284.9,-310.14"/>
</g>
<!-- 32 -->
<g id="node32" class="node">
<title>32</title>
<ellipse fill="none" stroke="black" cx="380.31" cy="-241.58" rx="11.13" ry="11.13"/>
<text text-anchor="middle" x="380.31" y="-238.48" font-family="DejaVu Serif,serif" font-size="12.00">32</text>
</g>
<!-- 32&#45;&gt;7 -->
<g id="edge67" class="edge">
<title>32&#45;&gt;7</title>
<path fill="none" stroke="black" d="M373.75,-231.73C366.65,-222.15 355.26,-206.81 347.32,-196.1"/>
<polygon fill="black" stroke="black" points="348.54,-194.8 344.15,-191.83 345.73,-196.89 348.54,-194.8"/>
</g>
<!-- 32&#45;&gt;16 -->
<g id="edge65" class="edge">
<title>32&#45;&gt;16</title>
<path fill="none" stroke="black" d="M370.52,-235.68C367,-233.94 362.99,-231.99 359.31,-230.27 323.63,-213.58 314,-210.95 278.31,-194.27 276.24,-193.3 274.07,-192.26 271.94,-191.22"/>
<polygon fill="black" stroke="black" points="272.37,-189.49 267.11,-188.86 270.83,-192.63 272.37,-189.49"/>
</g>
<!-- 32&#45;&gt;24 -->
<g id="edge66" class="edge">
<title>32&#45;&gt;24</title>
<path fill="none" stroke="black" d="M371.22,-234.3C356.74,-224.3 328.35,-204.7 311.59,-193.12"/>
<polygon fill="black" stroke="black" points="312.3,-191.49 307.19,-190.09 310.31,-194.37 312.3,-191.49"/>
</g>
<!-- 33 -->
<g id="node33" class="node">
<title>33</title>
<ellipse fill="none" stroke="black" cx="216.31" cy="-300.21" rx="11.13" ry="11.13"/>
<text text-anchor="middle" x="216.31" y="-297.11" font-family="DejaVu Serif,serif" font-size="12.00">33</text>
</g>
<!-- 33&#45;&gt;17 -->
<g id="edge68" class="edge">
<title>33&#45;&gt;17</title>
<path fill="none" stroke="black" d="M206.52,-294.3C203,-292.56 198.99,-290.61 195.31,-288.89 159.63,-272.21 150,-269.58 114.31,-252.89 112.24,-251.93 110.07,-250.89 107.94,-249.85"/>
<polygon fill="black" stroke="black" points="108.37,-248.11 103.11,-247.49 106.83,-251.26 108.37,-248.11"/>
</g>
<!-- 33&#45;&gt;25 -->
<g id="edge69" class="edge">
<title>33&#45;&gt;25</title>
<path fill="none" stroke="black" d="M207.22,-292.93C192.74,-282.93 164.35,-263.33 147.59,-251.75"/>
<polygon fill="black" stroke="black" points="148.3,-250.11 143.19,-248.71 146.31,-252.99 148.3,-250.11"/>
</g>
<!-- 33&#45;&gt;32 -->
<g id="edge70" class="edge">
<title>33&#45;&gt;32</title>
<path fill="none" stroke="black" d="M225.99,-294.03C229.5,-292.27 233.53,-290.37 237.31,-288.89 289.99,-268.36 306.64,-273.43 359.31,-252.89 361.44,-252.06 363.65,-251.1 365.8,-250.1"/>
<polygon fill="black" stroke="black" points="366.9,-251.51 370.64,-247.76 365.38,-248.36 366.9,-251.51"/>
</g>
<!-- 34 -->
<g id="node34" class="node">
<title>34</title>
<ellipse fill="none" stroke="black" cx="339.31" cy="-300.21" rx="11.13" ry="11.13"/>
<text text-anchor="middle" x="339.31" y="-297.11" font-family="DejaVu Serif,serif" font-size="12.00">34</text>
</g>
<!-- 34&#45;&gt;18 -->
<g id="edge71" class="edge">
<title>34&#45;&gt;18</title>
<path fill="none" stroke="black" d="M329.52,-294.3C326,-292.56 321.99,-290.61 318.31,-288.89 282.63,-272.21 273,-269.58 237.31,-252.89 235.24,-251.93 233.07,-250.89 230.94,-249.85"/>
<polygon fill="black" stroke="black" points="231.37,-248.11 226.11,-247.49 229.83,-251.26 231.37,-248.11"/>
</g>
<!-- 34&#45;&gt;26 -->
<g id="edge72" class="edge">
<title>34&#45;&gt;26</title>
<path fill="none" stroke="black" d="M332.91,-290.36C326.13,-281 315.36,-266.13 307.64,-255.47"/>
<polygon fill="black" stroke="black" points="308.89,-254.2 304.54,-251.18 306.06,-256.26 308.89,-254.2"/>
</g>
<!-- 34&#45;&gt;32 -->
<g id="edge73" class="edge">
<title>34&#45;&gt;32</title>
<path fill="none" stroke="black" d="M345.72,-290.36C352.5,-281 363.26,-266.13 370.98,-255.47"/>
<polygon fill="black" stroke="black" points="372.57,-256.26 374.09,-251.18 369.74,-254.2 372.57,-256.26"/>
</g>
<!-- 35 -->
<g id="node35" class="node">
<title>35</title>
<ellipse fill="none" stroke="black" cx="175.31" cy="-358.84" rx="11.13" ry="11.13"/>
<text text-anchor="middle" x="175.31" y="-355.74" font-family="DejaVu Serif,serif" font-size="12.00">35</text>
</g>
<!-- 35&#45;&gt;19 -->
<g id="edge74" class="edge">
<title>35&#45;&gt;19</title>
<path fill="none" stroke="black" d="M165.52,-352.93C162,-351.19 157.99,-349.24 154.31,-347.52 118.63,-330.84 109,-328.21 73.31,-311.52 71.24,-310.55 69.07,-309.51 66.94,-308.48"/>
<polygon fill="black" stroke="black" points="67.37,-306.74 62.11,-306.11 65.83,-309.88 67.37,-306.74"/>
</g>
<!-- 35&#45;&gt;27 -->
<g id="edge75" class="edge">
<title>35&#45;&gt;27</title>
<path fill="none" stroke="black" d="M168.91,-348.99C162.13,-339.62 151.36,-324.76 143.64,-314.09"/>
<polygon fill="black" stroke="black" points="144.89,-312.83 140.54,-309.81 142.06,-314.88 144.89,-312.83"/>
</g>
<!-- 35&#45;&gt;33 -->
<g id="edge76" class="edge">
<title>35&#45;&gt;33</title>
<path fill="none" stroke="black" d="M181.72,-348.99C188.5,-339.62 199.26,-324.76 206.98,-314.09"/>
<polygon fill="black" stroke="black" points="208.57,-314.88 210.09,-309.81 205.74,-312.83 208.57,-314.88"/>
</g>
<!-- 35&#45;&gt;34 -->
<g id="edge77" class="edge">
<title>35&#45;&gt;34</title>
<path fill="none" stroke="black" d="M184.99,-352.66C188.5,-350.89 192.53,-349 196.31,-347.52 248.99,-326.99 265.64,-332.06 318.31,-311.52 320.44,-310.69 322.65,-309.73 324.8,-308.73"/>
<polygon fill="black" stroke="black" points="325.9,-310.14 329.64,-306.39 324.38,-306.99 325.9,-310.14"/>
</g>
<!-- 36 -->
<g id="node36" class="node">
<title>36</title>
<ellipse fill="none" stroke="black" cx="380.31" cy="-300.21" rx="11.13" ry="11.13"/>
<text text-anchor="middle" x="380.31" y="-297.11" font-family="DejaVu Serif,serif" font-size="12.00">36</text>
</g>
<!-- 36&#45;&gt;20 -->
<g id="edge78" class="edge">
<title>36&#45;&gt;20</title>
<path fill="none" stroke="black" d="M370.52,-294.3C367,-292.56 362.99,-290.61 359.31,-288.89 323.63,-272.21 314,-269.58 278.31,-252.89 276.24,-251.93 274.07,-250.89 271.94,-249.85"/>
<polygon fill="black" stroke="black" points="272.37,-248.11 267.11,-247.49 270.83,-251.26 272.37,-248.11"/>
</g>
<!-- 36&#45;&gt;28 -->
<g id="edge79" class="edge">
<title>36&#45;&gt;28</title>
<path fill="none" stroke="black" d="M373.91,-290.36C367.13,-281 356.36,-266.13 348.64,-255.47"/>
<polygon fill="black" stroke="black" points="349.89,-254.2 345.54,-251.18 347.06,-256.26 349.89,-254.2"/>
</g>
<!-- 36&#45;&gt;32 -->
<g id="edge80" class="edge">
<title>36&#45;&gt;32</title>
<path fill="none" stroke="black" d="M380.31,-288.82C380.31,-280.2 380.31,-267.81 380.31,-258.03"/>
<polygon fill="black" stroke="black" points="382.06,-257.9 380.31,-252.9 378.56,-257.9 382.06,-257.9"/>
</g>
<!-- 37 -->
<g id="node37" class="node">
<title>37</title>
<ellipse fill="none" stroke="black" cx="216.31" cy="-358.84" rx="11.13" ry="11.13"/>
<text text-anchor="middle" x="216.31" y="-355.74" font-family="DejaVu Serif,serif" font-size="12.00">37</text>
</g>
<!-- 37&#45;&gt;21 -->
<g id="edge81" class="edge">
<title>37&#45;&gt;21</title>
<path fill="none" stroke="black" d="M206.52,-352.93C203,-351.19 198.99,-349.24 195.31,-347.52 159.63,-330.84 150,-328.21 114.31,-311.52 112.24,-310.55 110.07,-309.51 107.94,-308.48"/>
<polygon fill="black" stroke="black" points="108.37,-306.74 103.11,-306.11 106.83,-309.88 108.37,-306.74"/>
</g>
<!-- 37&#45;&gt;29 -->
<g id="edge82" class="edge">
<title>37&#45;&gt;29</title>
<path fill="none" stroke="black" d="M209.91,-348.99C203.13,-339.62 192.36,-324.76 184.64,-314.09"/>
<polygon fill="black" stroke="black" points="185.89,-312.83 181.54,-309.81 183.06,-314.88 185.89,-312.83"/>
</g>
<!-- 37&#45;&gt;33 -->
<g id="edge83" class="edge">
<title>37&#45;&gt;33</title>
<path fill="none" stroke="black" d="M216.31,-347.45C216.31,-338.83 216.31,-326.44 216.31,-316.66"/>
<polygon fill="black" stroke="black" points="218.06,-316.53 216.31,-311.53 214.56,-316.53 218.06,-316.53"/>
</g>
<!-- 37&#45;&gt;36 -->
<g id="edge84" class="edge">
<title>37&#45;&gt;36</title>
<path fill="none" stroke="black" d="M227.27,-354.87C251.47,-348.19 311.18,-331.02 359.31,-311.52 361.43,-310.66 363.63,-309.69 365.78,-308.68"/>
<polygon fill="black" stroke="black" points="366.88,-310.09 370.62,-306.33 365.35,-306.94 366.88,-310.09"/>
</g>
<!-- 38 -->
<g id="node38" class="node">
<title>38</title>
<ellipse fill="none" stroke="black" cx="298.31" cy="-358.84" rx="11.13" ry="11.13"/>
<text text-anchor="middle" x="298.31" y="-355.74" font-family="DejaVu Serif,serif" font-size="12.00">38</text>
</g>
<!-- 38&#45;&gt;22 -->
<g id="edge85" class="edge">
<title>38&#45;&gt;22</title>
<path fill="none" stroke="black" d="M291.91,-348.99C285.13,-339.62 274.36,-324.76 266.64,-314.09"/>
<polygon fill="black" stroke="black" points="267.89,-312.83 263.54,-309.81 265.06,-314.88 267.89,-312.83"/>
</g>
<!-- 38&#45;&gt;30 -->
<g id="edge86" class="edge">
<title>38&#45;&gt;30</title>
<path fill="none" stroke="black" d="M298.31,-347.45C298.31,-338.83 298.31,-326.44 298.31,-316.66"/>
<polygon fill="black" stroke="black" points="300.06,-316.53 298.31,-311.53 296.56,-316.53 300.06,-316.53"/>
</g>
<!-- 38&#45;&gt;34 -->
<g id="edge87" class="edge">
<title>38&#45;&gt;34</title>
<path fill="none" stroke="black" d="M304.72,-348.99C311.5,-339.62 322.26,-324.76 329.98,-314.09"/>
<polygon fill="black" stroke="black" points="331.57,-314.88 333.09,-309.81 328.74,-312.83 331.57,-314.88"/>
</g>
<!-- 38&#45;&gt;36 -->
<g id="edge88" class="edge">
<title>38&#45;&gt;36</title>
<path fill="none" stroke="black" d="M307.4,-351.56C321.89,-341.56 350.27,-321.95 367.04,-310.38"/>
<polygon fill="black" stroke="black" points="368.31,-311.62 371.43,-307.34 366.32,-308.74 368.31,-311.62"/>
</g>
<!-- 39 -->
<g id="node39" class="node">
<title>39</title>
<ellipse fill="none" stroke="black" cx="175.31" cy="-417.46" rx="11.13" ry="11.13"/>
<text text-anchor="middle" x="175.31" y="-414.36" font-family="DejaVu Serif,serif" font-size="12.00">39</text>
</g>
<!-- 39&#45;&gt;23 -->
<g id="edge89" class="edge">
<title>39&#45;&gt;23</title>
<path fill="none" stroke="black" d="M166.22,-410.19C151.74,-400.18 123.35,-380.58 106.59,-369.01"/>
<polygon fill="black" stroke="black" points="107.3,-367.37 102.19,-365.97 105.31,-370.25 107.3,-367.37"/>
</g>
<!-- 39&#45;&gt;31 -->
<g id="edge90" class="edge">
<title>39&#45;&gt;31</title>
<path fill="none" stroke="black" d="M168.91,-407.61C162.13,-398.25 151.36,-383.38 143.64,-372.72"/>
<polygon fill="black" stroke="black" points="144.89,-371.46 140.54,-368.44 142.06,-373.51 144.89,-371.46"/>
</g>
<!-- 39&#45;&gt;35 -->
<g id="edge91" class="edge">
<title>39&#45;&gt;35</title>
<path fill="none" stroke="black" d="M175.31,-406.08C175.31,-397.46 175.31,-385.07 175.31,-375.28"/>
<polygon fill="black" stroke="black" points="177.06,-375.16 175.31,-370.16 173.56,-375.16 177.06,-375.16"/>
</g>
<!-- 39&#45;&gt;37 -->
<g id="edge92" class="edge">
<title>39&#45;&gt;37</title>
<path fill="none" stroke="black" d="M181.72,-407.61C188.5,-398.25 199.26,-383.38 206.98,-372.72"/>
<polygon fill="black" stroke="black" points="208.57,-373.51 210.09,-368.44 205.74,-371.46 208.57,-373.51"/>
</g>
<!-- 39&#45;&gt;38 -->
<g id="edge93" class="edge">
<title>39&#45;&gt;38</title>
<path fill="none" stroke="black" d="M185.38,-411.83C207,-401.87 257.98,-378.4 283.39,-366.71"/>
<polygon fill="black" stroke="black" points="284.3,-368.21 288.11,-364.53 282.84,-365.04 284.3,-368.21"/>
</g>
</g>
</svg>

