<?xml version="1.0" encoding="UTF-8" standalone="no"?>
<!DOCTYPE svg PUBLIC "-//W3C//DTD SVG 1.1//EN"
 "http://www.w3.org/Graphics/SVG/1.1/DTD/svg11.dtd">
<!-- Generated by graphviz version 7.0.2 (20221119.0110)
 -->
<!-- Title: subobject_lattice Pages: 1 -->
<svg width="151pt" height="320pt"
 viewBox="0.00 0.00 150.92 319.52" xmlns="http://www.w3.org/2000/svg" xmlns:xlink="http://www.w3.org/1999/xlink">
<g id="graph0" class="graph" transform="scale(1 1) rotate(0) translate(4 315.52)">
<title>subobject_lattice</title>
<polygon fill="white" stroke="none" points="-4,4 -4,-315.52 146.92,-315.52 146.92,4 -4,4"/>
<!-- 1 -->
<g id="node1" class="node">
<title>1</title>
<ellipse fill="none" stroke="black" cx="69.31" cy="-10.61" rx="10.71" ry="10.71"/>
<text text-anchor="middle" x="69.31" y="-7.51" font-family="DejaVu Serif,serif" font-size="12.00">1</text>
</g>
<!-- 2 -->
<g id="node2" class="node">
<title>2</title>
<ellipse fill="none" stroke="black" cx="50.31" cy="-67.82" rx="10.71" ry="10.71"/>
<text text-anchor="middle" x="50.31" y="-64.72" font-family="DejaVu Serif,serif" font-size="12.00">2</text>
</g>
<!-- 2&#45;&gt;1 -->
<g id="edge1" class="edge">
<title>2&#45;&gt;1</title>
<path fill="none" stroke="black" d="M53.62,-57.2C56.48,-48.89 60.67,-36.72 64,-27.05"/>
<polygon fill="black" stroke="black" points="65.58,-27.84 65.55,-22.54 62.27,-26.7 65.58,-27.84"/>
</g>
<!-- 3 -->
<g id="node3" class="node">
<title>3</title>
<ellipse fill="none" stroke="black" cx="11.31" cy="-125.03" rx="10.71" ry="10.71"/>
<text text-anchor="middle" x="11.31" y="-121.93" font-family="DejaVu Serif,serif" font-size="12.00">3</text>
</g>
<!-- 3&#45;&gt;2 -->
<g id="edge2" class="edge">
<title>3&#45;&gt;2</title>
<path fill="none" stroke="black" d="M17.07,-115.89C23.35,-107 33.5,-92.63 40.93,-82.1"/>
<polygon fill="black" stroke="black" points="42.21,-83.33 43.66,-78.24 39.35,-81.31 42.21,-83.33"/>
</g>
<!-- 4 -->
<g id="node4" class="node">
<title>4</title>
<ellipse fill="none" stroke="black" cx="89.31" cy="-67.82" rx="10.71" ry="10.71"/>
<text text-anchor="middle" x="89.31" y="-64.72" font-family="DejaVu Serif,serif" font-size="12.00">4</text>
</g>
<!-- 4&#45;&gt;1 -->
<g id="edge3" class="edge">
<title>4&#45;&gt;1</title>
<path fill="none" stroke="black" d="M85.83,-57.2C82.82,-48.89 78.41,-36.72 74.91,-27.05"/>
<polygon fill="black" stroke="black" points="76.62,-26.64 73.27,-22.54 73.33,-27.83 76.62,-26.64"/>
</g>
<!-- 5 -->
<g id="node5" class="node">
<title>5</title>
<ellipse fill="none" stroke="black" cx="89.31" cy="-125.03" rx="10.71" ry="10.71"/>
<text text-anchor="middle" x="89.31" y="-121.93" font-family="DejaVu Serif,serif" font-size="12.00">5</text>
</g>
<!-- 5&#45;&gt;4 -->
<g id="edge4" class="edge">
<title>5&#45;&gt;4</title>
<path fill="none" stroke="black" d="M89.31,-113.91C89.31,-105.89 89.31,-94.53 89.31,-85.22"/>
<polygon fill="black" stroke="black" points="91.06,-85.4 89.31,-80.4 87.56,-85.4 91.06,-85.4"/>
</g>
<!-- 6 -->
<g id="node6" class="node">
<title>6</title>
<ellipse fill="none" stroke="black" cx="128.31" cy="-125.03" rx="10.71" ry="10.71"/>
<text text-anchor="middle" x="128.31" y="-121.93" font-family="DejaVu Serif,serif" font-size="12.00">6</text>
</g>
<!-- 6&#45;&gt;4 -->
<g id="edge5" class="edge">
<title>6&#45;&gt;4</title>
<path fill="none" stroke="black" d="M122.56,-115.89C116.28,-107 106.13,-92.63 98.7,-82.1"/>
<polygon fill="black" stroke="black" points="100.28,-81.31 95.97,-78.24 97.42,-83.33 100.28,-81.31"/>
</g>
<!-- 7 -->
<g id="node7" class="node">
<title>7</title>
<ellipse fill="none" stroke="black" cx="132.31" cy="-182.95" rx="10.71" ry="10.71"/>
<text text-anchor="middle" x="132.31" y="-179.85" font-family="DejaVu Serif,serif" font-size="12.00">7</text>
</g>
<!-- 7&#45;&gt;5 -->
<g id="edge6" class="edge">
<title>7&#45;&gt;5</title>
<path fill="none" stroke="black" d="M125.97,-173.7C118.9,-164.51 107.39,-149.54 99.15,-138.83"/>
<polygon fill="black" stroke="black" points="100.76,-138.05 96.33,-135.16 97.99,-140.19 100.76,-138.05"/>
</g>
<!-- 7&#45;&gt;6 -->
<g id="edge7" class="edge">
<title>7&#45;&gt;6</title>
<path fill="none" stroke="black" d="M131.6,-171.96C131.01,-163.69 130.16,-151.78 129.47,-142.16"/>
<polygon fill="black" stroke="black" points="131.23,-142.32 129.13,-137.45 127.74,-142.57 131.23,-142.32"/>
</g>
<!-- 8 -->
<g id="node8" class="node">
<title>8</title>
<ellipse fill="none" stroke="black" cx="50.31" cy="-125.03" rx="10.71" ry="10.71"/>
<text text-anchor="middle" x="50.31" y="-121.93" font-family="DejaVu Serif,serif" font-size="12.00">8</text>
</g>
<!-- 8&#45;&gt;2 -->
<g id="edge8" class="edge">
<title>8&#45;&gt;2</title>
<path fill="none" stroke="black" d="M50.31,-113.91C50.31,-105.89 50.31,-94.53 50.31,-85.22"/>
<polygon fill="black" stroke="black" points="52.06,-85.4 50.31,-80.4 48.56,-85.4 52.06,-85.4"/>
</g>
<!-- 8&#45;&gt;4 -->
<g id="edge9" class="edge">
<title>8&#45;&gt;4</title>
<path fill="none" stroke="black" d="M56.07,-115.89C62.35,-107 72.5,-92.63 79.93,-82.1"/>
<polygon fill="black" stroke="black" points="81.21,-83.33 82.66,-78.24 78.35,-81.31 81.21,-83.33"/>
</g>
<!-- 9 -->
<g id="node9" class="node">
<title>9</title>
<ellipse fill="none" stroke="black" cx="11.31" cy="-182.95" rx="10.71" ry="10.71"/>
<text text-anchor="middle" x="11.31" y="-179.85" font-family="DejaVu Serif,serif" font-size="12.00">9</text>
</g>
<!-- 9&#45;&gt;3 -->
<g id="edge10" class="edge">
<title>9&#45;&gt;3</title>
<path fill="none" stroke="black" d="M11.31,-171.96C11.31,-163.77 11.31,-152.01 11.31,-142.44"/>
<polygon fill="black" stroke="black" points="13.06,-142.46 11.31,-137.46 9.56,-142.46 13.06,-142.46"/>
</g>
<!-- 9&#45;&gt;8 -->
<g id="edge11" class="edge">
<title>9&#45;&gt;8</title>
<path fill="none" stroke="black" d="M17.07,-173.7C23.35,-164.7 33.5,-150.15 40.93,-139.49"/>
<polygon fill="black" stroke="black" points="42.24,-140.66 43.67,-135.56 39.37,-138.66 42.24,-140.66"/>
</g>
<!-- 10 -->
<g id="node10" class="node">
<title>10</title>
<ellipse fill="none" stroke="black" cx="51.31" cy="-182.95" rx="11.13" ry="11.13"/>
<text text-anchor="middle" x="51.31" y="-179.85" font-family="DejaVu Serif,serif" font-size="12.00">10</text>
</g>
<!-- 10&#45;&gt;5 -->
<g id="edge13" class="edge">
<title>10&#45;&gt;5</title>
<path fill="none" stroke="black" d="M57.25,-173.22C63.31,-164.3 72.8,-150.33 79.89,-139.9"/>
<polygon fill="black" stroke="black" points="81.33,-140.9 82.69,-135.78 78.43,-138.93 81.33,-140.9"/>
</g>
<!-- 10&#45;&gt;8 -->
<g id="edge12" class="edge">
<title>10&#45;&gt;8</title>
<path fill="none" stroke="black" d="M51.13,-171.44C50.98,-163.29 50.78,-151.85 50.61,-142.5"/>
<polygon fill="black" stroke="black" points="52.36,-142.61 50.52,-137.64 48.86,-142.67 52.36,-142.61"/>
</g>
<!-- 11 -->
<g id="node11" class="node">
<title>11</title>
<ellipse fill="none" stroke="black" cx="11.31" cy="-241.58" rx="11.13" ry="11.13"/>
<text text-anchor="middle" x="11.31" y="-238.48" font-family="DejaVu Serif,serif" font-size="12.00">11</text>
</g>
<!-- 11&#45;&gt;9 -->
<g id="edge14" class="edge">
<title>11&#45;&gt;9</title>
<path fill="none" stroke="black" d="M11.31,-230.19C11.31,-221.79 11.31,-209.8 11.31,-200.14"/>
<polygon fill="black" stroke="black" points="13.06,-200.41 11.31,-195.41 9.56,-200.41 13.06,-200.41"/>
</g>
<!-- 11&#45;&gt;10 -->
<g id="edge15" class="edge">
<title>11&#45;&gt;10</title>
<path fill="none" stroke="black" d="M17.22,-232.23C23.58,-223.21 33.83,-208.71 41.43,-197.95"/>
<polygon fill="black" stroke="black" points="42.8,-199.05 44.25,-193.95 39.94,-197.03 42.8,-199.05"/>
</g>
<!-- 12 -->
<g id="node12" class="node">
<title>12</title>
<ellipse fill="none" stroke="black" cx="92.31" cy="-182.95" rx="11.13" ry="11.13"/>
<text text-anchor="middle" x="92.31" y="-179.85" font-family="DejaVu Serif,serif" font-size="12.00">12</text>
</g>
<!-- 12&#45;&gt;6 -->
<g id="edge17" class="edge">
<title>12&#45;&gt;6</title>
<path fill="none" stroke="black" d="M98.1,-172.97C103.87,-164.01 112.81,-150.12 119.47,-139.78"/>
<polygon fill="black" stroke="black" points="120.84,-140.87 122.08,-135.72 117.9,-138.98 120.84,-140.87"/>
</g>
<!-- 12&#45;&gt;8 -->
<g id="edge16" class="edge">
<title>12&#45;&gt;8</title>
<path fill="none" stroke="black" d="M86.12,-173.7C79.35,-164.7 68.43,-150.15 60.42,-139.49"/>
<polygon fill="black" stroke="black" points="61.85,-138.48 57.45,-135.53 59.05,-140.58 61.85,-138.48"/>
</g>
<!-- 13 -->
<g id="node13" class="node">
<title>13</title>
<ellipse fill="none" stroke="black" cx="52.31" cy="-241.58" rx="11.13" ry="11.13"/>
<text text-anchor="middle" x="52.31" y="-238.48" font-family="DejaVu Serif,serif" font-size="12.00">13</text>
</g>
<!-- 13&#45;&gt;9 -->
<g id="edge18" class="edge">
<title>13&#45;&gt;9</title>
<path fill="none" stroke="black" d="M46.26,-232.23C39.66,-223.11 28.99,-208.37 21.18,-197.58"/>
<polygon fill="black" stroke="black" points="22.63,-196.59 18.28,-193.57 19.79,-198.65 22.63,-196.59"/>
</g>
<!-- 13&#45;&gt;12 -->
<g id="edge19" class="edge">
<title>13&#45;&gt;12</title>
<path fill="none" stroke="black" d="M58.22,-232.23C64.58,-223.21 74.83,-208.71 82.43,-197.95"/>
<polygon fill="black" stroke="black" points="83.8,-199.05 85.25,-193.95 80.94,-197.03 83.8,-199.05"/>
</g>
<!-- 14 -->
<g id="node14" class="node">
<title>14</title>
<ellipse fill="none" stroke="black" cx="93.31" cy="-241.58" rx="11.13" ry="11.13"/>
<text text-anchor="middle" x="93.31" y="-238.48" font-family="DejaVu Serif,serif" font-size="12.00">14</text>
</g>
<!-- 14&#45;&gt;7 -->
<g id="edge22" class="edge">
<title>14&#45;&gt;7</title>
<path fill="none" stroke="black" d="M99.41,-231.73C105.76,-222.51 115.78,-207.96 123.1,-197.34"/>
<polygon fill="black" stroke="black" points="124.39,-198.54 125.78,-193.43 121.51,-196.56 124.39,-198.54"/>
</g>
<!-- 14&#45;&gt;10 -->
<g id="edge20" class="edge">
<title>14&#45;&gt;10</title>
<path fill="none" stroke="black" d="M87.12,-232.23C80.29,-223.02 69.23,-208.1 61.2,-197.28"/>
<polygon fill="black" stroke="black" points="62.82,-196.53 58.44,-193.56 60.01,-198.62 62.82,-196.53"/>
</g>
<!-- 14&#45;&gt;12 -->
<g id="edge21" class="edge">
<title>14&#45;&gt;12</title>
<path fill="none" stroke="black" d="M93.13,-230.19C92.99,-221.97 92.78,-210.32 92.61,-200.78"/>
<polygon fill="black" stroke="black" points="94.36,-200.76 92.52,-195.79 90.86,-200.82 94.36,-200.76"/>
</g>
<!-- 15 -->
<g id="node15" class="node">
<title>15</title>
<ellipse fill="none" stroke="black" cx="52.31" cy="-300.21" rx="11.13" ry="11.13"/>
<text text-anchor="middle" x="52.31" y="-297.11" font-family="DejaVu Serif,serif" font-size="12.00">15</text>
</g>
<!-- 15&#45;&gt;11 -->
<g id="edge23" class="edge">
<title>15&#45;&gt;11</title>
<path fill="none" stroke="black" d="M46.26,-290.85C39.66,-281.74 28.99,-267 21.18,-256.21"/>
<polygon fill="black" stroke="black" points="22.63,-255.22 18.28,-252.2 19.79,-257.27 22.63,-255.22"/>
</g>
<!-- 15&#45;&gt;13 -->
<g id="edge24" class="edge">
<title>15&#45;&gt;13</title>
<path fill="none" stroke="black" d="M52.31,-288.82C52.31,-280.6 52.31,-268.95 52.31,-259.4"/>
<polygon fill="black" stroke="black" points="54.06,-259.41 52.31,-254.41 50.56,-259.41 54.06,-259.41"/>
</g>
<!-- 15&#45;&gt;14 -->
<g id="edge25" class="edge">
<title>15&#45;&gt;14</title>
<path fill="none" stroke="black" d="M58.36,-290.85C64.96,-281.74 75.63,-267 83.45,-256.21"/>
<polygon fill="black" stroke="black" points="84.84,-257.27 86.35,-252.2 82,-255.22 84.84,-257.27"/>
</g>
</g>
</svg>
